STARTFONT 2.1
COMMENT
COMMENT Converted from OpenType font "BeVietnam-Regular.ttf" by "otf2bdf 3.0".
COMMENT
FONT -FreeType-Be Vietnam-Medium-R-Normal--66-480-100-100-P-309-ISO10646-1
SIZE 48 100 100
FONTBOUNDINGBOX 102 90 -25 -17
STARTPROPERTIES 19
FOUNDRY "FreeType"
FAMILY_NAME "Be Vietnam"
WEIGHT_NAME "Medium"
SLANT "R"
SETWIDTH_NAME "Normal"
ADD_STYLE_NAME ""
PIXEL_SIZE 66
POINT_SIZE 480
RESOLUTION_X 100
RESOLUTION_Y 100
SPACING "P"
AVERAGE_WIDTH 309
CHARSET_REGISTRY "ISO10646"
CHARSET_ENCODING "1"
FONT_ASCENT 80
FONT_DESCENT 17
COPYRIGHT "Copyright 2019 The Bevietnam Project Authors (https://github.com/bettergui/beVietnam)"
_OTF_FONTFILE "BeVietnam-Regular.ttf"
_OTF_PSNAME "BeVietnam-Regular"
ENDPROPERTIES
CHARS 445
STARTCHAR 000D
ENCODING 13
SWIDTH 600 0
DWIDTH 40 0
BBX 0 0 0 0
BITMAP
ENDCHAR
STARTCHAR 0020
ENCODING 32
SWIDTH 225 0
DWIDTH 15 0
BBX 0 0 0 0
BITMAP
ENDCHAR
STARTCHAR 0021
ENCODING 33
SWIDTH 240 0
DWIDTH 16 0
BBX 8 51 4 -1
BITMAP
7E
7E
7E
7E
7E
7E
7E
7E
7E
7E
7E
7E
7E
7E
7E
7E
7E
7E
7E
7E
3E
3E
3E
3E
3E
3E
3E
3E
3C
3C
3C
3C
3C
3C
3C
3C
3C
3C
00
00
00
00
00
1C
7E
7F
FF
7F
7F
3E
08
ENDCHAR
STARTCHAR 0022
ENCODING 34
SWIDTH 510 0
DWIDTH 34 0
BBX 23 17 6 34
BITMAP
02000C
0E003C
3E0078
3800F0
7000E0
E001C0
E001C0
E001C0
E003C0
E003C0
FE03FC
FF03FE
FF03FE
FF03FE
FF01FE
FF01FE
7E00F8
ENDCHAR
STARTCHAR 0023
ENCODING 35
SWIDTH 870 0
DWIDTH 58 0
BBX 47 47 6 0
BITMAP
00007C001E00
00007C003E00
00007C003E00
00007C003E00
0000F8003E00
0000F8003E00
0000F8007C00
0000F8007C00
0000F8007C00
0001F0007C00
0001F000F800
0001F000F800
0001F000F800
1FFFFFFFFFFE
1FFFFFFFFFFE
1FFFFFFFFFFE
3FFFFFFFFFFC
3FFFFFFFFFFC
0007C001F000
0007C003F000
0007C003E000
0007C003E000
0007C003E000
000F8003E000
000F8007C000
000F8007C000
000F8007C000
001F8007C000
001F0007C000
001F000F8000
FFFFFFFFFFF0
FFFFFFFFFFF0
FFFFFFFFFFF0
FFFFFFFFFFF0
003E001F0000
003E001F0000
003E001F0000
007C001F0000
007C003E0000
007C003E0000
007C003E0000
00FC003E0000
00F8003E0000
00F8007C0000
00F8007C0000
00F8007C0000
01F0007C0000
ENDCHAR
STARTCHAR 0024
ENCODING 36
SWIDTH 555 0
DWIDTH 37 0
BBX 32 56 3 -5
BITMAP
00018000
00018000
00018000
00018000
00018000
003FFC00
00FFFF00
03FFFFC0
07FFFFE0
0FFFFFF0
1FE187F8
1FC183F8
3F8181FC
3F0180FC
7E01807E
7E01807E
7E01807E
7E01803E
7E01803F
7E018000
7F018000
3F018000
3F818000
3FC18000
1FF98000
0FFFC000
07FFFE00
01FFFF80
007FFFE0
000FFFF0
0001BFFC
000183FC
000180FE
0001807F
0001803F
0001803F
FC01801F
FC01801F
FC01801F
FE01801F
7E01803F
7F01803F
3F01803F
3F81807E
1FC180FE
1FF183FC
0FFFFFF8
07FFFFF0
01FFFFE0
00FFFFC0
003FFE00
0001C000
00018000
00018000
00018000
00018000
ENDCHAR
STARTCHAR 0025
ENCODING 37
SWIDTH 825 0
DWIDTH 55 0
BBX 51 48 2 -1
BITMAP
07F800001F0000
1FFE00003F0000
3FFF00003E0000
3E1F00007E0000
7C0780007C0000
78078000F80000
F807C000F80000
F803C001F00000
F803C001F00000
F803C003E00000
F803C003E00000
F803C007C00000
7807C007C00000
7807800F800000
7C0F800F800000
3FFF001F000000
1FFF001F000000
0FFC003E000000
03F0003E000000
0000007C000000
0000007C000000
000000F8000000
000000F8000000
000001F0000000
000001F0000000
000003E0000000
000003E0000000
000007C0000000
000007C0006000
00000F8007FE00
00001F800FFF00
00001F001FFF80
00003F003E07C0
00003E003E03C0
00007E003C03C0
00007C007C03E0
0000F8007C01E0
0000F8007C01E0
0001F0007C01E0
0001F0007C01E0
0003E0007C03E0
0003E0003C03C0
0007C0003E03C0
0007C0003E07C0
000F80001FFF80
000F80000FFF00
001F000007FE00
0000000000F000
ENDCHAR
STARTCHAR 0026
ENCODING 38
SWIDTH 630 0
DWIDTH 42 0
BBX 40 48 4 0
BITMAP
0000200000
0007FF0000
001FFFC000
003FFFF000
007FFFF800
00FFFFFC00
01FE03FC00
01FC00FE00
03F8007E00
03F0007E00
03F0003F00
03F0003F00
03F0003F00
03F0003F00
03F0000000
01F0000000
01F8000000
01F8000000
00FC000000
007E000000
007F000000
003F800000
001FC00000
001FE00000
00FFE007E0
03FFF007E0
07FFF80FC0
1FF1FC0FC0
3F80FE1F80
3F007F1F00
7E003FBF00
7C001FFE00
FC000FFE00
FC0007FC00
F80007F800
F80003F800
F80001FC00
F80003FE00
FC0003FF00
FC0007FF80
FE000FDF80
7F001F8FC0
7F807F0FE0
3FFFFE07F0
1FFFFC03F8
0FFFF801FC
07FFF000FE
01FFC0007F
ENDCHAR
STARTCHAR 0027
ENCODING 39
SWIDTH 300 0
DWIDTH 20 0
BBX 9 17 5 36
BITMAP
3E00
7F00
7F80
FF80
FF80
7F80
3F80
0780
0380
0380
0380
0300
0700
0E00
3C00
3800
2000
ENDCHAR
STARTCHAR 0028
ENCODING 40
SWIDTH 450 0
DWIDTH 30 0
BBX 18 67 7 -14
BITMAP
000080
0001C0
0007C0
000F80
001F00
003E00
007E00
007C00
00F800
01F800
01F000
03E000
07E000
07E000
0FC000
0FC000
0F8000
1F8000
1F8000
3F0000
3F0000
3F0000
3F0000
7E0000
7E0000
7E0000
7E0000
7E0000
7E0000
7C0000
FC0000
FC0000
FC0000
FC0000
FC0000
FC0000
FC0000
7C0000
7E0000
7E0000
7E0000
7E0000
7E0000
7E0000
3E0000
3F0000
3F0000
3F0000
1F8000
1F8000
1F8000
0FC000
0FC000
07C000
07E000
03E000
03F000
01F000
00F800
00FC00
007C00
003E00
001F00
000F00
000780
0003C0
000080
ENDCHAR
STARTCHAR 0029
ENCODING 41
SWIDTH 480 0
DWIDTH 32 0
BBX 18 66 7 -13
BITMAP
700000
780000
3C0000
1E0000
1F0000
0F8000
07C000
07E000
03E000
01F000
01F800
00F800
00FC00
00FC00
007E00
007E00
003E00
003F00
003F00
001F00
001F80
001F80
001F80
000F80
000FC0
000FC0
000FC0
000FC0
000FC0
000FC0
000FC0
000FC0
000FC0
000FC0
000FC0
000FC0
000FC0
000FC0
000FC0
000FC0
000FC0
000FC0
001F80
001F80
001F80
001F80
003F00
003F00
003F00
007E00
007E00
007C00
00FC00
00F800
01F800
01F000
03F000
03E000
07C000
0F8000
0F0000
1F0000
3E0000
780000
F00000
600000
ENDCHAR
STARTCHAR 002A
ENCODING 42
SWIDTH 495 0
DWIDTH 33 0
BBX 22 24 6 27
BITMAP
007800
007800
007800
007800
407818
707838
F8787C
FE71FC
7F73F8
1FFFE0
07FF80
01FE00
01FE00
0FFF80
3FF7F0
FF73FC
FC71FC
F87878
607838
407800
007800
007800
007800
007800
ENDCHAR
STARTCHAR 002B
ENCODING 43
SWIDTH 570 0
DWIDTH 38 0
BBX 26 26 6 8
BITMAP
001F0000
001F0000
001F0000
001F0000
001F0000
001F0000
001F0000
001F0000
001F0000
001F0000
001F0000
FFFFFFC0
FFFFFFC0
FFFFFFC0
FFFFFFC0
FFFFFFC0
001F0000
001F0000
001F0000
001F0000
001F0000
001F0000
001F0000
001F0000
001F0000
001F0000
ENDCHAR
STARTCHAR 002C
ENCODING 44
SWIDTH 285 0
DWIDTH 19 0
BBX 9 17 5 -11
BITMAP
3C00
7F00
FF00
FF80
FF80
FF80
7F80
0F80
0780
0380
0380
0700
0700
0E00
1E00
3C00
3000
ENDCHAR
STARTCHAR 002D
ENCODING 45
SWIDTH 600 0
DWIDTH 40 0
BBX 24 5 8 18
BITMAP
FFFFFF
FFFFFF
FFFFFF
FFFFFF
FFFFFF
ENDCHAR
STARTCHAR 002E
ENCODING 46
SWIDTH 270 0
DWIDTH 18 0
BBX 8 7 5 0
BITMAP
3C
7E
FF
FF
FF
7E
3E
ENDCHAR
STARTCHAR 002F
ENCODING 47
SWIDTH 510 0
DWIDTH 34 0
BBX 28 64 4 -10
BITMAP
000001F0
000003F0
000003F0
000003E0
000007E0
000007C0
00000FC0
00000FC0
00000F80
00001F80
00001F80
00001F00
00003F00
00003F00
00003E00
00007E00
00007C00
00007C00
0000FC00
0000F800
0001F800
0001F800
0001F000
0003F000
0003F000
0003E000
0007E000
0007E000
0007C000
000FC000
000F8000
001F8000
001F8000
001F0000
003F0000
003F0000
003E0000
007E0000
007E0000
007C0000
00FC0000
00F80000
01F80000
01F80000
01F00000
03F00000
03F00000
03E00000
07E00000
07E00000
07C00000
0FC00000
0FC00000
0F800000
1F800000
1F000000
3F000000
3F000000
3E000000
7E000000
7E000000
7C000000
FC000000
FC000000
ENDCHAR
STARTCHAR 0030
ENCODING 48
SWIDTH 600 0
DWIDTH 40 0
BBX 34 49 3 -1
BITMAP
0000C00000
001FFF0000
00FFFFC000
01FFFFE000
03FFFFF000
07FFFFF800
0FF803FC00
0FE001FE00
1FC000FE00
1F80007F00
3F80003F00
3F00003F00
7F00003F80
7E00001F80
7E00001F80
7E00001F80
7E00001FC0
7E00001FC0
FE00000FC0
FE00000FC0
FE00000FC0
FE00000FC0
FE00000FC0
FE00000FC0
FE00000FC0
FE00000FC0
FE00000FC0
FE00000FC0
FE00000FC0
FE00000FC0
FE00001FC0
7E00001FC0
7E00001FC0
7E00001F80
7E00001F80
7E00001F80
7F00003F80
3F00003F00
3F80003F00
1F80007F00
1FC000FE00
0FE001FE00
0FF003FC00
07FF3FF800
03FFFFF000
01FFFFE000
00FFFFC000
003FFF0000
0001E00000
ENDCHAR
STARTCHAR 0031
ENCODING 49
SWIDTH 480 0
DWIDTH 32 0
BBX 24 47 6 0
BITMAP
007E00
00FE00
01FE00
03FE00
07FE00
0FFE00
1FFE00
3FBE00
7F3E00
FE3E00
FC3E00
F83E00
F03E00
E03E00
C03E00
803E00
003E00
003E00
003E00
003E00
003E00
003E00
003E00
003E00
003E00
003E00
003E00
003E00
003E00
003E00
003E00
003E00
003E00
003E00
003E00
003E00
003E00
003E00
003E00
003E00
003E00
003E00
FFFFFF
FFFFFF
FFFFFF
FFFFFF
FFFFFF
ENDCHAR
STARTCHAR 0032
ENCODING 50
SWIDTH 585 0
DWIDTH 39 0
BBX 31 48 5 0
BITMAP
00078000
007FFC00
01FFFF00
07FFFF80
0FFFFFC0
1FFC7FE0
1FC00FF0
3F8003F8
7F0001F8
7E0001F8
7E0000FC
7C0000FC
FC0000FC
FC0000FC
FC00007C
FC0000FC
000000FC
000000FC
000000FC
000001F8
000001F8
000003F0
000003F0
000007E0
00000FE0
00001FC0
00003F80
00007F00
0000FE00
0001FC00
0003F800
0007F000
001FE000
003FC000
007F8000
00FF0000
01FC0000
03F80000
07F00000
0FE00000
1FC00000
7F800000
FF000000
FFFFFFFE
FFFFFFFE
FFFFFFFE
FFFFFFFE
FFFFFFFE
ENDCHAR
STARTCHAR 0033
ENCODING 51
SWIDTH 585 0
DWIDTH 39 0
BBX 32 49 4 -1
BITMAP
0007C000
007FFE00
01FFFF80
03FFFFE0
07FFFFF0
0FFC1FF8
1FE007F8
1F8001FC
3F0000FC
3F0000FE
7E00007E
7E00007E
0000007E
0000007E
0000007E
0000007E
0000007E
0000007C
000000FC
000001F8
000007F8
0000FFF0
000FFFC0
000FFF00
000FFF80
000FFFE0
00001FF0
000003F8
000001FC
000000FC
0000007E
0000003E
0000003E
0000003F
0000003F
0000003F
0000003F
FC00003E
7E00007E
7E00007E
7F0000FE
3F8001FC
1FE007FC
1FFFFFF8
0FFFFFF0
03FFFFE0
01FFFF80
007FFE00
0002C000
ENDCHAR
STARTCHAR 0034
ENCODING 52
SWIDTH 600 0
DWIDTH 40 0
BBX 34 47 3 0
BITMAP
00000FE000
00001FE000
00003FE000
00003FE000
00007FE000
0000FFE000
0000FFE000
0001FBE000
0003FBE000
0003F3E000
0007E3E000
000FE3E000
000FC3E000
001F83E000
003F83E000
003F03E000
007E03E000
00FE03E000
00FC03E000
01F803E000
01F803E000
03F003E000
07E003E000
07E003E000
0FC003E000
1F8003E000
1F0003E000
3F0003E000
7E0003E000
7C0003E000
FC0003E000
FFFFFFFFC0
FFFFFFFFC0
FFFFFFFFC0
FFFFFFFFC0
000003E000
000003E000
000003E000
000003E000
000003E000
000003E000
000003E000
000003E000
000003E000
000003E000
000003E000
000003E000
ENDCHAR
STARTCHAR 0035
ENCODING 53
SWIDTH 600 0
DWIDTH 40 0
BBX 32 47 5 0
BITMAP
3FFFFFF0
3FFFFFF0
3FFFFFF0
3FFFFFF0
3FFFFFF0
3FFFFFF0
3E000000
3E000000
3E000000
7E000000
7C000000
7C000000
7C000000
7C000000
7C000000
7C000000
7C1FFE00
7C7FFF80
7CFFFFC0
7DFFFFE0
7FF01FF0
7FC007F8
7F8001FC
7F0000FC
7E0000FE
3E00007E
0000007E
0000003E
0000003F
0000003F
0000003F
0000003F
0000003F
0000003F
0000007E
FC00007E
FC00007E
7E0000FE
7E0000FC
3F0001FC
3FC003F8
1FF01FF0
0FFFFFF0
07FFFFC0
03FFFF80
00FFFF00
003FF800
ENDCHAR
STARTCHAR 0036
ENCODING 54
SWIDTH 585 0
DWIDTH 39 0
BBX 32 48 4 -1
BITMAP
0001F800
0003F000
0003E000
0007E000
000FC000
000F8000
001F8000
003F0000
007E0000
007E0000
00FC0000
01F80000
01F80000
03F00000
07E00000
07E00000
0FC00000
0F83F800
1F9FFF00
1F7FFF80
3EFFFFE0
3FFFFFF0
7FE00FF8
7F8003F8
7F0001FC
FE0000FC
FE00007E
FC00007E
FC00007E
FC00003E
F800003E
F800003F
F800003F
F800003E
FC00003E
FC00003E
FC00007E
7E00007E
7E0000FC
3F0001FC
3F8003F8
1FC007F8
0FFC3FF0
07FFFFE0
03FFFFC0
01FFFF00
003FFC00
00020000
ENDCHAR
STARTCHAR 0037
ENCODING 55
SWIDTH 510 0
DWIDTH 34 0
BBX 29 47 2 0
BITMAP
FFFFFFF8
FFFFFFF8
FFFFFFF8
FFFFFFF8
FFFFFFF8
FFFFFFF8
000001F8
000001F8
000001F0
000003F0
000003E0
000007E0
000007E0
00000FC0
00000FC0
00001F80
00001F80
00001F00
00003F00
00003F00
00007E00
00007E00
0000FC00
0000FC00
0001F800
0001F800
0001F800
0003F000
0003F000
0007E000
0007E000
000FC000
000FC000
001FC000
001F8000
001F8000
003F0000
003F0000
007E0000
007E0000
00FC0000
00FC0000
01FC0000
01F80000
01F80000
03F00000
03F00000
ENDCHAR
STARTCHAR 0038
ENCODING 56
SWIDTH 600 0
DWIDTH 40 0
BBX 33 49 4 -1
BITMAP
0000C00000
003FFE0000
00FFFF8000
03FFFFE000
07FFFFF000
0FFC1FF800
0FE003FC00
1FC001FC00
1F8000FE00
3F00007E00
3F00007E00
3E00003E00
3E00003E00
3E00003E00
3E00003E00
3E00003E00
3F00007E00
3F00007E00
1F8000FC00
1FC001FC00
0FE003F800
07FC1FF000
03FFFFE000
00FFFF8000
03FFFFE000
07FE3FF000
0FE003FC00
1F8000FC00
3F00007E00
7E00003F00
7E00003F00
FC00001F80
FC00001F80
FC00001F80
FC00001F80
FC00001F80
FC00001F80
FC00001F80
FC00001F80
7E00003F80
7F00007F00
7F8000FF00
3FC001FE00
1FF80FFC00
0FFFFFF800
07FFFFF000
01FFFFE000
007FFF0000
0003E00000
ENDCHAR
STARTCHAR 0039
ENCODING 57
SWIDTH 585 0
DWIDTH 39 0
BBX 32 48 4 0
BITMAP
00034000
007FFC00
01FFFF00
07FFFFC0
0FFFFFE0
1FF83FF0
1FC007F8
3F8003F8
7F0001FC
7E0000FC
7E00007E
FC00007E
FC00003E
F800003E
F800003E
F800003E
F800003F
F800003F
FC00003E
FC00007E
FC00007E
7E00007E
7E0000FE
7F0001FE
3F8003FC
1FE00FFC
0FFFFF7C
07FFFEF8
03FFFDF8
00FFF9F0
003FC3F0
000007E0
000007E0
00000FC0
00001F80
00001F80
00003F00
00007E00
00007E00
0000FC00
0001F800
0003F800
0003F000
0007E000
000FE000
000FC000
001F8000
003F8000
ENDCHAR
STARTCHAR 003A
ENCODING 58
SWIDTH 285 0
DWIDTH 19 0
BBX 8 35 5 0
BITMAP
38
7E
FE
FE
FF
FE
7E
3C
00
00
00
00
00
00
00
00
00
00
00
00
00
00
00
00
00
00
00
00
7C
FE
FE
FF
FE
FE
7C
ENDCHAR
STARTCHAR 003B
ENCODING 59
SWIDTH 315 0
DWIDTH 21 0
BBX 9 46 6 -11
BITMAP
3800
7E00
FE00
FF00
FF00
FE00
7E00
3C00
0000
0000
0000
0000
0000
0000
0000
0000
0000
0000
0000
0000
0000
0000
0000
0000
0000
0000
0000
0000
3C00
7F00
FF00
FF80
FF80
FF80
7F80
0F80
0780
0780
0700
0700
0700
0E00
1C00
7800
7000
4000
ENDCHAR
STARTCHAR 003C
ENCODING 60
SWIDTH 555 0
DWIDTH 37 0
BBX 24 30 7 7
BITMAP
000001
000007
00001F
00003F
0000FF
0003FF
000FFC
003FF0
00FFC0
01FF00
07FC00
1FF800
7FE000
FF8000
FE0000
FC0000
FF0000
FFC000
3FF000
0FFC00
03FF00
00FFC0
003FF0
001FFC
0007FF
0001FF
00007F
00001F
000007
000001
ENDCHAR
STARTCHAR 003D
ENCODING 61
SWIDTH 705 0
DWIDTH 47 0
BBX 31 20 8 11
BITMAP
FFFFFFFE
FFFFFFFE
FFFFFFFE
FFFFFFFE
FFFFFFFE
00000000
00000000
00000000
00000000
00000000
00000000
00000000
00000000
00000000
00000000
FFFFFFFE
FFFFFFFE
FFFFFFFE
FFFFFFFE
FFFFFFFE
ENDCHAR
STARTCHAR 003E
ENCODING 62
SWIDTH 555 0
DWIDTH 37 0
BBX 24 30 7 7
BITMAP
800000
C00000
F00000
FC0000
FF0000
FFC000
3FF000
0FFC00
07FE00
01FF80
007FE0
001FF8
0007FE
0001FF
00007F
00003F
0000FF
0003FE
000FFC
003FF0
00FFC0
03FF00
0FFC00
3FF000
FFC000
FF8000
FE0000
F80000
E00000
800000
ENDCHAR
STARTCHAR 003F
ENCODING 63
SWIDTH 570 0
DWIDTH 38 0
BBX 31 49 4 -1
BITMAP
0007C000
007FFE00
01FFFF80
07FFFFC0
0FFFFFE0
1FFFFFF0
1FE00FF8
3F8003F8
7F0001FC
7F0000FC
7E0000FC
FC00007E
FC00007E
FC00007E
FC00007E
FC00007E
0000007C
000000FC
000000FC
000001F8
000003F8
000007F0
00000FE0
00001FC0
00003F80
00007F00
0000FE00
0001FC00
0001F800
0003F000
0007E000
0007E000
000FC000
000FC000
000FC000
000FC000
00000000
00000000
00000000
00000000
00000000
00070000
000FC000
001FC000
001FE000
001FC000
000FC000
000F8000
00020000
ENDCHAR
STARTCHAR 0040
ENCODING 64
SWIDTH 1005 0
DWIDTH 67 0
BBX 58 58 5 -11
BITMAP
000007FFF8000000
00003FFFFF000000
0001FFFFFFE00000
0007FFFFFFF80000
000FFE003FFC0000
003FF00003FF0000
007F8000007F8000
00FE0000003FC000
01FC0000000FE000
03F000000007F000
07E000000001F800
07C000000000F800
0F8000000000FC00
1F80000000007C00
1F00000000003E00
3E0003FC3E003E00
3E000FFE3E001F00
7C001FFF3E001F00
7C003FFFBE000F80
7C007F03FE000F80
7800FC01FE000F80
F800F800FE000780
F801F8007E000780
F801F0007E0007C0
F801F0003E0007C0
F001F0003E0007C0
F003E0003E0007C0
F003E0003E0007C0
F003E0003E0007C0
F003E0003E0007C0
F003F0003E000780
F001F0003E000780
F801F0003E000780
F801F0007E000F80
F801F8007E000F00
F800F800FF001F00
F800FC00EF003E00
7C007E03CF807E00
7C007FFFC7F1FC00
7C003FFF83FFF800
3E001FFF01FFE000
3E0007FE00FF8000
1F00004000000000
1F00000000000000
0F80000000000000
0FC0000000000000
07E0000000000000
03F0000000000000
03F8000000000000
01FE000000000000
00FF000000000000
007FE00000000000
001FFC0000000000
000FFFF800000000
0003FFFFFFFF0000
0000FFFFFFFF0000
00001FFFFFFF0000
000001FFFFFF0000
ENDCHAR
STARTCHAR 0041
ENCODING 65
SWIDTH 675 0
DWIDTH 45 0
BBX 40 47 3 0
BITMAP
00007C0000
0000FE0000
0000FE0000
0000FF0000
0001FF0000
0001FF0000
0001FF8000
0003FF8000
0003EFC000
0007EFC000
0007C7C000
0007C7E000
000FC3E000
000F83E000
000F83F000
001F81F000
001F01F800
003F01F800
003F00F800
003E00FC00
007E00FC00
007E007C00
007C007E00
00FC003E00
00F8003F00
01F8003F00
01F8001F00
01F0001F80
03F0001F80
03FFFFFF80
03FFFFFFC0
07FFFFFFC0
07FFFFFFE0
0FC00007E0
0FC00003E0
0F800003F0
1F800003F0
1F800001F0
1F000001F8
3F000001F8
3F000000FC
7E000000FC
7E0000007C
7E0000007E
FC0000007E
FC0000003F
F80000003F
ENDCHAR
STARTCHAR 0042
ENCODING 66
SWIDTH 615 0
DWIDTH 41 0
BBX 34 47 5 0
BITMAP
FFFFF00000
FFFFFF8000
FFFFFFE000
FFFFFFF000
FFFFFFF800
FC001FFC00
FC0001FC00
FC0000FE00
FC00007E00
FC00003E00
FC00003F00
FC00003F00
FC00003F00
FC00003F00
FC00003F00
FC00003E00
FC00007E00
FC00007C00
FC0000FC00
FC0003F800
FC001FF000
FFFFFFC000
FFFFFF0000
FFFFFFE000
FFFFFFF800
FC000FFC00
FC0000FE00
FC00003F00
FC00001F80
FC00001F80
FC00000FC0
FC00000FC0
FC00000FC0
FC00000FC0
FC00000FC0
FC00000FC0
FC00000FC0
FC00000F80
FC00001F80
FC00003F80
FC00007F00
FC0001FF00
FFFFFFFE00
FFFFFFFC00
FFFFFFF800
FFFFFFE000
FFFFFF0000
ENDCHAR
STARTCHAR 0043
ENCODING 67
SWIDTH 705 0
DWIDTH 47 0
BBX 40 48 4 0
BITMAP
00003F0000
0007FFF000
001FFFFC00
007FFFFF00
00FFFFFF80
01FFFFFFC0
03FE003FE0
07F8000FF0
0FF00003F8
1FE00001FC
1FC00000FC
3F800000FE
3F0000007E
3F0000003F
7E0000003F
7E0000003F
7E0000001F
FC00000000
FC00000000
FC00000000
FC00000000
FC00000000
FC00000000
FC00000000
FC00000000
FC00000000
FC00000000
FC00000000
FC00000000
FC00000000
FC00000000
FE00000000
7E00000000
7E0000003F
7F0000003F
3F0000003E
3F8000007E
3F800000FE
1FC00001FC
0FE00003F8
0FF00007F8
07F8000FF0
03FF007FE0
01FFFFFFC0
00FFFFFF80
003FFFFF00
001FFFFC00
0003FFE000
ENDCHAR
STARTCHAR 0044
ENCODING 68
SWIDTH 675 0
DWIDTH 45 0
BBX 38 47 5 0
BITMAP
FFFFF00000
FFFFFF0000
FFFFFFE000
FFFFFFF800
FFFFFFFC00
FFFFFFFE00
FC0003FF00
FC0000FF80
FC00003FC0
FC00001FC0
FC00000FE0
FC000007E0
FC000007F0
FC000003F0
FC000003F8
FC000001F8
FC000001F8
FC000001F8
FC000001FC
FC000000FC
FC000000FC
FC000000FC
FC000000FC
FC000000FC
FC000000FC
FC000000FC
FC000000FC
FC000000FC
FC000001FC
FC000001F8
FC000001F8
FC000001F8
FC000003F8
FC000003F0
FC000007F0
FC000007F0
FC00000FE0
FC00001FC0
FC00003FC0
FC00007F80
FC0001FF00
FC003FFE00
FFFFFFFC00
FFFFFFF800
FFFFFFE000
FFFFFF8000
FFFFFC0000
ENDCHAR
STARTCHAR 0045
ENCODING 69
SWIDTH 555 0
DWIDTH 37 0
BBX 29 47 5 0
BITMAP
FFFFFFF8
FFFFFFF8
FFFFFFF8
FFFFFFF8
FFFFFFF8
FFFFFFF8
FC000000
FC000000
FC000000
FC000000
FC000000
FC000000
FC000000
FC000000
FC000000
FC000000
FC000000
FC000000
FC000000
FC000000
FC000000
FFFFFFC0
FFFFFFC0
FFFFFFC0
FFFFFFC0
FFFFFFC0
FC000000
FC000000
FC000000
FC000000
FC000000
FC000000
FC000000
FC000000
FC000000
FC000000
FC000000
FC000000
FC000000
FC000000
FC000000
FC000000
FFFFFFF8
FFFFFFF8
FFFFFFF8
FFFFFFF8
FFFFFFF8
ENDCHAR
STARTCHAR 0046
ENCODING 70
SWIDTH 510 0
DWIDTH 34 0
BBX 28 47 5 0
BITMAP
FFFFFFF0
FFFFFFF0
FFFFFFF0
FFFFFFF0
FFFFFFF0
FFFFFFF0
FC000000
FC000000
FC000000
FC000000
FC000000
FC000000
FC000000
FC000000
FC000000
FC000000
FC000000
FC000000
FC000000
FC000000
FC000000
FFFFFF80
FFFFFF80
FFFFFF80
FFFFFF80
FFFFFF80
FC000000
FC000000
FC000000
FC000000
FC000000
FC000000
FC000000
FC000000
FC000000
FC000000
FC000000
FC000000
FC000000
FC000000
FC000000
FC000000
FC000000
FC000000
FC000000
FC000000
FC000000
ENDCHAR
STARTCHAR 0047
ENCODING 71
SWIDTH 705 0
DWIDTH 47 0
BBX 40 48 4 0
BITMAP
00003E0000
0007FFF000
001FFFFC00
007FFFFF00
00FFFFFF80
01FFFFFFC0
03FE003FE0
07F8000FF0
0FE00007F0
1FC00003F8
1F800001FC
3F800000FC
3F000000FE
7F0000007E
7E0000007E
7E00000000
FC00000000
FC00000000
FC00000000
FC00000000
FC00000000
FC00000000
F800000000
F800000000
F80007FFFF
F80007FFFF
F80007FFFF
FC0007FFFF
FC0000003F
FC0000003F
FC0000003F
FC0000003F
7C0000003F
7E0000003F
7E0000007F
7F0000007F
3F0000007F
3F800000FF
1F800001FF
1FC00001FF
0FE00003DF
07F8000FDF
03FE003F9F
01FFF7FF1F
00FFFFFE1F
007FFFFC1F
001FFFF01F
0007FFC01F
ENDCHAR
STARTCHAR 0048
ENCODING 72
SWIDTH 675 0
DWIDTH 45 0
BBX 35 47 5 0
BITMAP
FC000007E0
FC000007E0
FC000007E0
FC000007E0
FC000007E0
FC000007E0
FC000007E0
FC000007E0
FC000007E0
FC000007E0
FC000007E0
FC000007E0
FC000007E0
FC000007E0
FC000007E0
FC000007E0
FC000007E0
FC000007E0
FC000007E0
FC000007E0
FC000007E0
FFFFFFFFE0
FFFFFFFFE0
FFFFFFFFE0
FFFFFFFFE0
FFFFFFFFE0
FC000007E0
FC000007E0
FC000007E0
FC000007E0
FC000007E0
FC000007E0
FC000007E0
FC000007E0
FC000007E0
FC000007E0
FC000007E0
FC000007E0
FC000007E0
FC000007E0
FC000007E0
FC000007E0
FC000007E0
FC000007E0
FC000007E0
FC000007E0
FC000007E0
ENDCHAR
STARTCHAR 0049
ENCODING 73
SWIDTH 240 0
DWIDTH 16 0
BBX 6 47 5 0
BITMAP
FC
FC
FC
FC
FC
FC
FC
FC
FC
FC
FC
FC
FC
FC
FC
FC
FC
FC
FC
FC
FC
FC
FC
FC
FC
FC
FC
FC
FC
FC
FC
FC
FC
FC
FC
FC
FC
FC
FC
FC
FC
FC
FC
FC
FC
FC
FC
ENDCHAR
STARTCHAR 004A
ENCODING 74
SWIDTH 345 0
DWIDTH 23 0
BBX 14 47 3 0
BITMAP
007C
007C
007C
007C
007C
007C
007C
007C
007C
007C
007C
007C
007C
007C
007C
007C
007C
007C
007C
007C
007C
007C
007C
007C
007C
007C
007C
007C
007C
007C
007C
007C
007C
007C
007C
007C
007C
007C
007C
00FC
00FC
01FC
03FC
FFF8
FFF0
FFF0
FFC0
ENDCHAR
STARTCHAR 004B
ENCODING 75
SWIDTH 615 0
DWIDTH 41 0
BBX 33 47 5 0
BITMAP
FC0000FE00
FC0001FC00
FC0001F800
FC0003F800
FC0007F000
FC000FE000
FC001FC000
FC003F8000
FC007F0000
FC00FE0000
FC01FC0000
FC03F80000
FC03F00000
FC07E00000
FC0FC00000
FC1FC00000
FC3F800000
FC7F000000
FCFE000000
FDFC000000
FFF8000000
FFFC000000
FFFE000000
FFFE000000
FFFF000000
FFBF800000
FF1FC00000
FE0FC00000
FC0FE00000
FC07F00000
FC03F80000
FC01F80000
FC01FC0000
FC00FE0000
FC007F0000
FC003F0000
FC003F8000
FC001FC000
FC000FE000
FC0007E000
FC0007F000
FC0003F800
FC0001FC00
FC0000FC00
FC0000FE00
FC00007F00
FC00003F80
ENDCHAR
STARTCHAR 004C
ENCODING 76
SWIDTH 525 0
DWIDTH 35 0
BBX 28 47 5 0
BITMAP
FC000000
FC000000
FC000000
FC000000
FC000000
FC000000
FC000000
FC000000
FC000000
FC000000
FC000000
FC000000
FC000000
FC000000
FC000000
FC000000
FC000000
FC000000
FC000000
FC000000
FC000000
FC000000
FC000000
FC000000
FC000000
FC000000
FC000000
FC000000
FC000000
FC000000
FC000000
FC000000
FC000000
FC000000
FC000000
FC000000
FC000000
FC000000
FC000000
FC000000
FC000000
FC000000
FFFFFFF0
FFFFFFF0
FFFFFFF0
FFFFFFF0
FFFFFFF0
ENDCHAR
STARTCHAR 004D
ENCODING 77
SWIDTH 810 0
DWIDTH 54 0
BBX 45 47 5 0
BITMAP
FF8000000FF8
FF8000000FF8
FF8000000FF8
FFC000001FF8
FFC000001FF8
FFC000003FF8
FFE000003FF8
FFE000003FF8
FFF000007FF8
FFF000007FF8
FFF00000FDF8
FDF80000FDF8
FDF80000FDF8
FCFC0001F9F8
FCFC0001F9F8
FCFC0001F9F8
FC7E0003F1F8
FC7E0003F1F8
FC7F0007E1F8
FC3F0007E1F8
FC3F0007E1F8
FC1F800FC1F8
FC1F800FC1F8
FC1F801F81F8
FC0FC01F81F8
FC0FC01F81F8
FC07E03F01F8
FC07E03F01F8
FC07E07F01F8
FC03F07E01F8
FC03F07E01F8
FC03F8FC01F8
FC01F8FC01F8
FC01F8FC01F8
FC00FDF801F8
FC00FDF801F8
FC00FFF801F8
FC007FF001F8
FC007FF001F8
FC007FE001F8
FC003FE001F8
FC003FE001F8
FC001FC001F8
FC001FC001F8
FC001F8001F8
FC000F8001F8
FC000F8001F8
ENDCHAR
STARTCHAR 004E
ENCODING 78
SWIDTH 705 0
DWIDTH 47 0
BBX 37 47 5 0
BITMAP
FE000000F8
FE000000F8
FF000000F8
FF800000F8
FF800000F8
FFC00000F8
FFE00000F8
FFE00000F8
FFF00000F8
FFF80000F8
FFF80000F8
FDFC0000F8
FCFE0000F8
FCFE0000F8
FC7F0000F8
FC3F8000F8
FC3F8000F8
FC1FC000F8
FC0FE000F8
FC0FE000F8
FC07F000F8
FC03F800F8
FC03F800F8
FC01FC00F8
FC00FE00F8
FC00FE00F8
FC007F00F8
FC003F80F8
FC003F80F8
FC001FC0F8
FC000FE0F8
FC000FE0F8
FC0007F0F8
FC0003F8F8
FC0003F8F8
FC0001FCF8
FC0000FEF8
FC0000FEF8
FC00007FF8
FC00003FF8
FC00003FF8
FC00001FF8
FC00000FF8
FC000007F8
FC000007F8
FC000003F8
FC000001F8
ENDCHAR
STARTCHAR 004F
ENCODING 79
SWIDTH 735 0
DWIDTH 49 0
BBX 42 48 3 0
BITMAP
00001F000000
0003FFF80000
000FFFFE0000
003FFFFF8000
007FFFFFC000
00FFFFFFE000
01FF001FF000
03FC0007F800
07F80003FC00
0FF00001FE00
0FE00000FE00
1FC000007F00
1F8000003F00
3F8000003F80
3F0000001F80
3F0000001F80
7F0000001FC0
7E0000000FC0
7E0000000FC0
7E0000000FC0
7E0000000FC0
7E0000000FC0
FE0000000FC0
FC0000000FC0
FC0000000FC0
FC0000000FC0
FE0000000FC0
7E0000000FC0
7E0000000FC0
7E0000000FC0
7E0000000FC0
7E0000000FC0
7F0000001FC0
3F0000001F80
3F0000003F80
3F8000003F80
1F8000007F00
1FC000007F00
0FE00000FE00
0FF00001FE00
07F80003FC00
03FE000FF800
01FF803FF000
00FFFFFFE000
007FFFFFC000
003FFFFF8000
000FFFFE0000
0001FFF00000
ENDCHAR
STARTCHAR 0050
ENCODING 80
SWIDTH 585 0
DWIDTH 39 0
BBX 32 47 5 0
BITMAP
FFFFE000
FFFFFE00
FFFFFF80
FFFFFFC0
FFFFFFF0
FFFFFFF8
FC0007F8
FC0001FC
FC0000FC
FC00007E
FC00007E
FC00003E
FC00003F
FC00003F
FC00003F
FC00003F
FC00003F
FC00003F
FC00003F
FC00003F
FC00003E
FC00007E
FC0000FE
FC0001FC
FC0003FC
FC001FF8
FFFFFFF0
FFFFFFE0
FFFFFF80
FFFFFE00
FFFFF000
FC000000
FC000000
FC000000
FC000000
FC000000
FC000000
FC000000
FC000000
FC000000
FC000000
FC000000
FC000000
FC000000
FC000000
FC000000
FC000000
ENDCHAR
STARTCHAR 0051
ENCODING 81
SWIDTH 720 0
DWIDTH 48 0
BBX 42 52 3 -4
BITMAP
00001F000000
0003FFF80000
000FFFFE0000
003FFFFF8000
007FFFFFC000
00FFFFFFE000
01FF001FF000
03FC0007F800
07F80003FC00
0FF00001FE00
0FE00000FE00
1FC000007F00
1F8000003F00
3F8000003F80
3F0000001F80
3F0000001F80
7F0000001FC0
7E0000000FC0
7E0000000FC0
7E0000000FC0
7E0000000FC0
7E0000000FC0
FE0000000FC0
FC0000000FC0
FC0000000FC0
FC0000000FC0
FE0000000FC0
7E0000000FC0
7E0000000FC0
7E0000000FC0
7E001F000FC0
7E000F800FC0
7F0007C01FC0
3F0007E01F80
3F0003F03F80
3F8001F03F80
1F8000F87F00
1FC000FC7F00
0FE0007EFE00
0FF0003FFE00
07F8001FFC00
03FE000FF800
01FF803FF000
00FFFFFFE000
007FFFFFF000
003FFFFFF000
000FFFFEF800
0001FFF0FC00
000000007E00
000000003F00
000000001F00
000000000F80
ENDCHAR
STARTCHAR 0052
ENCODING 82
SWIDTH 600 0
DWIDTH 40 0
BBX 32 47 5 0
BITMAP
FFFFE000
FFFFFE00
FFFFFF80
FFFFFFE0
FFFFFFF0
FFFFFFF8
FC0007FC
FC0001FC
FC0000FE
FC00007E
FC00003E
FC00003F
FC00003F
FC00003F
FC00003F
FC00003F
FC00003F
FC00003F
FC00003E
FC00007E
FC0000FE
FC0001FC
FC0007FC
FFFFFFF8
FFFFFFF0
FFFFFFE0
FFFFFF80
FFFFFE00
FC03F000
FC01F800
FC01FC00
FC00FC00
FC007E00
FC007F00
FC003F00
FC001F80
FC001FC0
FC000FC0
FC0007E0
FC0007F0
FC0003F0
FC0001F8
FC0001F8
FC0000FC
FC0000FE
FC00007E
FC00003F
ENDCHAR
STARTCHAR 0053
ENCODING 83
SWIDTH 585 0
DWIDTH 39 0
BBX 34 49 3 -1
BITMAP
0001F00000
003FFF0000
00FFFFC000
03FFFFE000
07FFFFF800
0FFE3FFC00
0FF003FC00
1FC001FE00
1F8000FF00
3F80007F00
3F00003F00
3F00003F80
3F00001F80
3F00001F80
3F00001F80
3F00000000
3F00000000
3F80000000
1FC0000000
1FE0000000
0FF8000000
07FFC00000
03FFFE0000
01FFFFC000
007FFFF000
000FFFF800
0000FFFC00
000007FE00
000000FF00
0000007F80
0000003F80
0000001F80
0000001FC0
FE00000FC0
7E00000FC0
7E00000FC0
7E00000FC0
7F00001F80
7F00001F80
3F80003F80
3FC0007F00
1FE000FF00
0FF803FE00
07FFFFFC00
03FFFFF800
01FFFFF000
00FFFFC000
001FFF0000
0000400000
ENDCHAR
STARTCHAR 0054
ENCODING 84
SWIDTH 585 0
DWIDTH 39 0
BBX 33 47 3 0
BITMAP
FFFFFFFF80
FFFFFFFF80
FFFFFFFF80
FFFFFFFF80
FFFFFFFF80
FFFFFFFF80
0003E00000
0003E00000
0003E00000
0003E00000
0003E00000
0003E00000
0003E00000
0003E00000
0003E00000
0003E00000
0003E00000
0003E00000
0003E00000
0003E00000
0003E00000
0003E00000
0003E00000
0003E00000
0003E00000
0003E00000
0003E00000
0003E00000
0003E00000
0003E00000
0003E00000
0003E00000
0003E00000
0003E00000
0003E00000
0003E00000
0003E00000
0003E00000
0003E00000
0003E00000
0003E00000
0003E00000
0003E00000
0003E00000
0003E00000
0003E00000
0003E00000
ENDCHAR
STARTCHAR 0055
ENCODING 85
SWIDTH 675 0
DWIDTH 45 0
BBX 37 48 4 -1
BITMAP
FC000000F8
FC000000F8
FC000000F8
FC000000F8
FC000000F8
FC000000F8
FC000000F8
FC000000F8
FC000000F8
FC000000F8
FC000000F8
FC000000F8
FC000000F8
FC000000F8
FC000000F8
FC000000F8
FC000000F8
FC000000F8
FC000000F8
FC000000F8
FC000000F8
FC000000F8
FC000000F8
FC000000F8
FC000000F8
FC000000F8
FC000000F8
FC000001F8
FC000001F8
FC000001F8
7C000001F8
7E000001F8
7E000001F8
7E000003F8
7E000003F0
3F000003F0
3F000007F0
3F800007E0
1F80000FE0
1FC0001FC0
0FF0003FC0
07FC01FF80
07FFFFFF00
01FFFFFE00
00FFFFFC00
007FFFF000
000FFFC000
0000300000
ENDCHAR
STARTCHAR 0056
ENCODING 86
SWIDTH 630 0
DWIDTH 42 0
BBX 40 47 1 0
BITMAP
FC0000003F
FC0000003F
7E0000003F
7E0000007E
7E0000007E
3F0000007C
3F000000FC
3F000000FC
1F800000F8
1F800001F8
1F800001F8
0FC00001F0
0FC00003F0
07C00003F0
07E00003E0
07E00007E0
03E00007E0
03F00007C0
03F0000FC0
01F0000FC0
01F8001F80
01F8001F80
00F8001F80
00FC003F00
00FC003F00
007E003F00
007E007E00
007E007E00
003F007E00
003F00FC00
003F00FC00
001F80FC00
001F81F800
001F81F800
000FC1F000
000FC3F000
000FC3F000
0007E3E000
0007E7E000
0003E7E000
0003F7C000
0003FFC000
0001FFC000
0001FF8000
0001FF8000
0000FF8000
0000FF0000
ENDCHAR
STARTCHAR 0057
ENCODING 87
SWIDTH 990 0
DWIDTH 66 0
BBX 64 47 1 0
BITMAP
FC000007E000003F
FC000007E000003F
7C000007E000003F
7E00000FF000003E
7E00000FF000007E
7E00000FF000007E
3E00001FF800007E
3F00001FF800007C
3F00001FF80000FC
3F00003FFC0000FC
1F00003FFC0000F8
1F80003F7C0000F8
1F80007E7E0001F8
0F80007E7E0001F8
0F80007E3E0001F0
0FC0007C3F0003F0
0FC000FC3F0003F0
07C000FC1F0003F0
07C000F81F8003E0
07E001F81F8007E0
07E001F80F8007E0
03E001F00FC007E0
03F003F00FC007C0
03F003F00FC00FC0
03F003E007E00FC0
01F007E007E00F80
01F807E007E00F80
01F807C003F01F80
00F80FC003F01F80
00F80FC003F01F00
00FC0F8001F81F00
00FC1F8001F83F00
007C1F8001F83F00
007C1F0000F83E00
007E3F0000FC7E00
007E3F0000FC7E00
003E3E00007C7E00
003E7E00007E7C00
003F7E00007EFC00
003F7E00003EFC00
001FFC00003FF800
001FFC00003FF800
001FFC00001FF800
000FF800001FF800
000FF800001FF000
000FF800000FF000
000FF000000FF000
ENDCHAR
STARTCHAR 0058
ENCODING 88
SWIDTH 645 0
DWIDTH 43 0
BBX 38 47 3 0
BITMAP
FC000000FC
7E000001FC
7F000003F8
3F000003F0
1F800007F0
1FC0000FE0
0FC0000FC0
0FE0001FC0
07F0001F80
03F0003F00
03F8007F00
01FC007E00
00FC00FC00
00FE01FC00
007F01F800
003F03F000
003F87F000
001F87E000
000FCFC000
000FFFC000
0007FF8000
0003FF0000
0003FF0000
0001FE0000
0001FE0000
0003FF0000
0007FF8000
0007FF8000
000FCFC000
001FCFE000
001F87E000
003F03F000
007F03F800
007E01F800
00FC00FC00
01FC00FE00
01F8007E00
03F0003F00
07F0003F80
07E0001F80
0FC0000FC0
1FC0000FE0
1F800007E0
3F000003F0
7F000003F8
7E000001F8
FC000000FC
ENDCHAR
STARTCHAR 0059
ENCODING 89
SWIDTH 600 0
DWIDTH 40 0
BBX 36 47 2 0
BITMAP
FE000003F0
7E000003F0
7F000007E0
3F000007E0
3F80000FC0
1F80000FC0
1FC0001F80
0FC0001F80
0FE0003F00
07E0003F00
07F0007E00
03F0007E00
03F800FC00
01F800FC00
01FC01F800
00FC01F800
007E03F000
007E03F000
003F07E000
003F07E000
001F8FC000
001F8FC000
000FDF8000
000FDF8000
0007FF0000
0007FF0000
0003FE0000
0003FE0000
0001FC0000
0001FC0000
0001F80000
0001F80000
0001F80000
0001F80000
0001F80000
0001F80000
0001F80000
0001F80000
0001F80000
0001F80000
0001F80000
0001F80000
0001F80000
0001F80000
0001F80000
0001F80000
0001F80000
ENDCHAR
STARTCHAR 005A
ENCODING 90
SWIDTH 600 0
DWIDTH 40 0
BBX 33 47 3 0
BITMAP
FFFFFFFF80
FFFFFFFF80
FFFFFFFF80
FFFFFFFF80
FFFFFFFF80
FFFFFFFF80
0000003F80
0000007F00
000000FE00
000000FE00
000001FC00
000003F800
000003F800
000007F000
00000FE000
00001FC000
00001FC000
00003F8000
00007F0000
00007E0000
0000FE0000
0001FC0000
0003F80000
0003F80000
0007F00000
000FE00000
001FC00000
001FC00000
003F800000
007F000000
007E000000
00FE000000
01FC000000
03F8000000
03F8000000
07F0000000
0FE0000000
1FC0000000
1FC0000000
3F80000000
7F00000000
7F00000000
FFFFFFFF80
FFFFFFFF80
FFFFFFFF80
FFFFFFFF80
FFFFFFFF80
ENDCHAR
STARTCHAR 005B
ENCODING 91
SWIDTH 435 0
DWIDTH 29 0
BBX 19 66 5 -12
BITMAP
FFFFE0
FFFFE0
FFFFE0
FFFFE0
F80000
F80000
F80000
F80000
F80000
F80000
F80000
F80000
F80000
F80000
F80000
F80000
F80000
F80000
F80000
F80000
F80000
F80000
F80000
F80000
F80000
F80000
F80000
F80000
F80000
F80000
F80000
F80000
F80000
F80000
F80000
F80000
F80000
F80000
F80000
F80000
F80000
F80000
F80000
F80000
F80000
F80000
F80000
F80000
F80000
F80000
F80000
F80000
F80000
F80000
F80000
F80000
F80000
F80000
F80000
F80000
F80000
FFFFE0
FFFFE0
FFFFE0
FFFFE0
FFFFE0
ENDCHAR
STARTCHAR 005C
ENCODING 92
SWIDTH 510 0
DWIDTH 34 0
BBX 28 64 2 -10
BITMAP
F8000000
FC000000
FC000000
7C000000
7E000000
3E000000
3F000000
3F000000
1F000000
1F800000
1F800000
0F800000
0FC00000
0FC00000
07C00000
07E00000
03E00000
03E00000
03F00000
01F00000
01F80000
01F80000
00F80000
00FC0000
00FC0000
007C0000
007E0000
003E0000
003E0000
003F0000
001F0000
001F8000
001F8000
000F8000
000FC000
000FC000
0007C000
0007E000
0007E000
0003E000
0003F000
0001F000
0001F800
0001F800
0000F800
0000FC00
0000FC00
00007C00
00007E00
00007E00
00003E00
00003F00
00001F00
00001F00
00001F80
00000F80
00000FC0
00000FC0
000007C0
000007E0
000007E0
000003E0
000003F0
000001F0
ENDCHAR
STARTCHAR 005D
ENCODING 93
SWIDTH 435 0
DWIDTH 29 0
BBX 19 66 5 -12
BITMAP
FFFFE0
FFFFE0
FFFFE0
FFFFE0
0003E0
0003E0
0003E0
0003E0
0003E0
0003E0
0003E0
0003E0
0003E0
0003E0
0003E0
0003E0
0003E0
0003E0
0003E0
0003E0
0003E0
0003E0
0003E0
0003E0
0003E0
0003E0
0003E0
0003E0
0003E0
0003E0
0003E0
0003E0
0003E0
0003E0
0003E0
0003E0
0003E0
0003E0
0003E0
0003E0
0003E0
0003E0
0003E0
0003E0
0003E0
0003E0
0003E0
0003E0
0003E0
0003E0
0003E0
0003E0
0003E0
0003E0
0003E0
0003E0
0003E0
0003E0
0003E0
0003E0
0003E0
FFFFE0
FFFFE0
FFFFE0
FFFFE0
FFFFE0
ENDCHAR
STARTCHAR 005E
ENCODING 94
SWIDTH 405 0
DWIDTH 27 0
BBX 24 12 2 38
BITMAP
00FF00
01FF00
03FF80
03EFC0
07E7E0
0FC3E0
0F83F0
1F01F8
3F00F8
7E007C
7C007E
FC003F
ENDCHAR
STARTCHAR 005F
ENCODING 95
SWIDTH 705 0
DWIDTH 47 0
BBX 33 5 7 0
BITMAP
FFFFFFFF80
FFFFFFFF80
FFFFFFFF80
FFFFFFFF80
FFFFFFFF80
ENDCHAR
STARTCHAR 0060
ENCODING 96
SWIDTH 240 0
DWIDTH 16 0
BBX 13 12 2 41
BITMAP
FE00
7E00
3F00
1F00
1F80
0F80
07C0
07C0
03E0
01F0
01F0
00F8
ENDCHAR
STARTCHAR 0061
ENCODING 97
SWIDTH 615 0
DWIDTH 41 0
BBX 33 36 3 0
BITMAP
001FE00000
00FFFC1F80
01FFFE1F80
03FFFF1F80
07FFFF9F80
0FF80FDF80
1FE003DF80
1FC001FF80
3F8000FF80
3F00007F80
7F00003F80
7E00003F80
7E00003F80
7E00001F80
FC00001F80
FC00001F80
FC00001F80
FC00001F80
FC00001F80
FC00001F80
FC00001F80
FC00001F80
FC00001F80
7E00001F80
7E00003F80
7E00003F80
7F00007F80
3F80007F80
3F8000FF80
1FC001FF80
1FF007DF80
0FFF7F9F80
07FFFF1F80
03FFFE1F80
01FFFC1F80
007FF01F80
ENDCHAR
STARTCHAR 0062
ENCODING 98
SWIDTH 615 0
DWIDTH 41 0
BBX 33 50 5 0
BITMAP
FC00000000
FC00000000
FC00000000
FC00000000
FC00000000
FC00000000
FC00000000
FC00000000
FC00000000
FC00000000
FC00000000
FC00000000
FC00000000
FC00000000
FC03FC0000
FC1FFF8000
FC3FFFC000
FC7FFFF000
FCFFFFF800
FDF80FF800
FDE003FC00
FFC001FE00
FF8000FE00
FF00007F00
FF00007F00
FE00003F00
FE00003F00
FC00001F80
FC00001F80
FC00001F80
FC00001F80
FC00001F80
FC00001F80
FC00001F80
FC00001F80
FC00001F80
FC00001F80
FE00003F00
FE00003F00
FE00003F00
FF00007F00
FF00007E00
FF8000FE00
FDC001FC00
FDF007FC00
FCFF7FF800
FC7FFFF000
FC3FFFE000
FC1FFFC000
FC07FF0000
ENDCHAR
STARTCHAR 0063
ENCODING 99
SWIDTH 570 0
DWIDTH 38 0
BBX 32 36 3 0
BITMAP
000FFC00
003FFF00
00FFFFC0
03FFFFE0
07FFFFF0
0FF807F8
0FE001FC
1FC000FC
1F80007E
3F00007E
3F00003F
7E00003F
7E00001F
7E00001F
7E000000
7C000000
FC000000
FC000000
FC000000
FC000000
7C000000
7C000000
7E000000
7E00001F
7E00003F
3F00003F
3F00003F
3F80007E
1FC000FE
1FE001FC
0FF003F8
07FF3FF8
03FFFFF0
01FFFFE0
007FFF80
001FFE00
ENDCHAR
STARTCHAR 0064
ENCODING 100
SWIDTH 615 0
DWIDTH 41 0
BBX 33 50 3 0
BITMAP
0000000F80
0000000F80
0000000F80
0000000F80
0000000F80
0000000F80
0000000F80
0000000F80
0000000F80
0000000F80
0000000F80
0000000F80
0000000F80
0000000F80
001FE00F80
00FFFC0F80
01FFFE0F80
03FFFF0F80
07FFFF8F80
0FF80FCF80
1FE003EF80
1FC000FF80
3F8000FF80
3F00007F80
7F00003F80
7E00003F80
7E00001F80
7E00001F80
FC00001F80
FC00001F80
FC00001F80
FC00001F80
FC00001F80
FC00001F80
FC00001F80
FC00001F80
7E00001F80
7E00001F80
7E00003F80
7F00003F80
3F00007F80
3F80007F80
3F8000FF80
1FC001EF80
0FF007CF80
0FFF7F8F80
07FFFF0F80
03FFFE0F80
00FFFC0F80
003FF00F80
ENDCHAR
STARTCHAR 0065
ENCODING 101
SWIDTH 570 0
DWIDTH 38 0
BBX 32 36 3 0
BITMAP
000FF800
007FFF00
00FFFFC0
03FFFFE0
07FF7FF0
0FF007F8
0FC001FC
1F8000FC
1F80007E
3F00007E
3E00003E
7E00003F
7E00003F
7E00001F
7C00001F
7C00001F
FFFFFFFF
FFFFFFFF
FFFFFFFF
FFFFFFFF
7C000000
7C000000
7C000000
7E000000
7E000000
3E00003F
3F00003F
3F00007E
1F8000FE
1FC001FC
0FF003F8
07FE3FF8
03FFFFF0
01FFFFC0
007FFF80
001FFE00
ENDCHAR
STARTCHAR 0066
ENCODING 102
SWIDTH 360 0
DWIDTH 24 0
BBX 19 49 3 0
BITMAP
003FE0
00FFE0
01FFE0
03FFE0
03F800
07F000
07E000
07E000
07E000
07E000
07E000
07E000
07E000
07E000
FFFFE0
FFFFE0
FFFFE0
FFFFE0
07E000
07E000
07E000
07E000
07E000
07E000
07E000
07E000
07E000
07E000
07E000
07E000
07E000
07E000
07E000
07E000
07E000
07E000
07E000
07E000
07E000
07E000
07E000
07E000
07E000
07E000
07E000
07E000
07E000
07E000
07E000
ENDCHAR
STARTCHAR 0067
ENCODING 103
SWIDTH 615 0
DWIDTH 41 0
BBX 33 50 3 -14
BITMAP
001FF00000
00FFFC0F80
01FFFE0F80
03FFFF0F80
07FFFF8F80
0FF807CF80
1FE001EF80
1FC000EF80
3F80007F80
3F80007F80
7F00003F80
7F00003F80
7E00001F80
7E00001F80
7E00001F80
FE00001F80
FC00001F80
FC00000F80
FC00001F80
FE00001F80
7E00001F80
7E00001F80
7E00001F80
7E00003F80
7F00003F80
3F00003F80
3F80007F80
1FC000FF80
1FE001EF80
0FF807CF80
0FFFFFCF80
07FFFF8F80
01FFFF0F80
00FFFC0F80
003FF00F80
0000000F80
0000001F80
0000001F80
0000001F80
0000001F80
0000003F00
0000007F00
0000007F00
000001FE00
000807FC00
000FFFF800
000FFFF000
000FFFE000
000FFF8000
0007FE0000
ENDCHAR
STARTCHAR 0068
ENCODING 104
SWIDTH 600 0
DWIDTH 40 0
BBX 31 50 5 0
BITMAP
FC000000
FC000000
FC000000
FC000000
FC000000
FC000000
FC000000
FC000000
FC000000
FC000000
FC000000
FC000000
FC000000
FC000000
FC03FC00
FC1FFF80
FC3FFFC0
FC7FFFE0
FCFFFFF0
FDF81FF8
FDC007F8
FF8003FC
FF0001FC
FE0000FE
FE00007E
FC00007E
FC00007E
FC00007E
FC00007E
FC00003E
FC00003E
FC00003E
FC00003E
FC00003E
FC00003E
FC00003E
FC00003E
FC00003E
FC00003E
FC00003E
FC00003E
FC00003E
FC00003E
FC00003E
FC00003E
FC00003E
FC00003E
FC00003E
FC00003E
FC00003E
ENDCHAR
STARTCHAR 0069
ENCODING 105
SWIDTH 240 0
DWIDTH 16 0
BBX 7 49 5 0
BITMAP
78
FC
FE
FE
FE
FE
7C
00
00
00
00
00
00
00
FC
FC
FC
FC
FC
FC
FC
FC
FC
FC
FC
FC
FC
FC
FC
FC
FC
FC
FC
FC
FC
FC
FC
FC
FC
FC
FC
FC
FC
FC
FC
FC
FC
FC
FC
ENDCHAR
STARTCHAR 006A
ENCODING 106
SWIDTH 240 0
DWIDTH 16 0
BBX 16 64 -3 -15
BITMAP
003C
007E
00FE
00FF
00FE
007E
007C
0000
0000
0000
0000
0000
0000
007C
007C
007C
007C
007C
007C
007C
007C
007C
007C
007C
007C
007C
007C
007C
007C
007C
007C
007C
007C
007C
007E
007E
007E
007E
007E
007E
007E
007E
007E
007E
007E
007E
007E
007E
007E
007E
007E
007E
007E
007E
007E
007C
00FC
00FC
01FC
FFF8
FFF8
FFF0
FFE0
1C00
ENDCHAR
STARTCHAR 006B
ENCODING 107
SWIDTH 510 0
DWIDTH 34 0
BBX 26 50 5 0
BITMAP
FC000000
FC000000
FC000000
FC000000
FC000000
FC000000
FC000000
FC000000
FC000000
FC000000
FC000000
FC000000
FC000000
FC000000
FC000000
FC001FC0
FC003F80
FC007F00
FC00FE00
FC01FC00
FC03F800
FC07F000
FC0FE000
FC1FC000
FC3F8000
FC7F0000
FCFE0000
FDFC0000
FFF80000
FFF00000
FFE00000
FFE00000
FFF00000
FDF80000
FCFC0000
FCFE0000
FC7E0000
FC3F0000
FC1F8000
FC0FC000
FC0FE000
FC07F000
FC03F800
FC01F800
FC00FC00
FC007E00
FC007F00
FC003F80
FC001FC0
FC000FC0
ENDCHAR
STARTCHAR 006C
ENCODING 108
SWIDTH 300 0
DWIDTH 20 0
BBX 13 50 5 0
BITMAP
FC00
FC00
FC00
FC00
FC00
FC00
FC00
FC00
FC00
FC00
FC00
FC00
FC00
FC00
FC00
FC00
FC00
FC00
FC00
FC00
FC00
FC00
FC00
FC00
FC00
FC00
FC00
FC00
FC00
FC00
FC00
FC00
FC00
FC00
FC00
FC00
FC00
FC00
FC00
FC00
FC00
FC00
FC00
FC00
FE00
7F00
7FF8
3FF8
3FF8
0FF8
ENDCHAR
STARTCHAR 006D
ENCODING 109
SWIDTH 945 0
DWIDTH 63 0
BBX 54 36 5 0
BITMAP
0007F80007FC00
FC1FFE001FFF00
FC3FFF803FFF80
FC7FFFC07FFFC0
FCFFFFE0FFFFE0
FDF87FF1F83FF0
FDC00FF3E00FF0
FF8007FB8003F8
FF0003FF0001F8
FE0001FF0001FC
FE0001FE0000FC
FC0000FE0000FC
FC0000FC0000FC
FC0000FC00007C
FC0000FC00007C
FC0000FC00007C
FC0000FC00007C
FC0000FC00007C
FC0000FC00007C
FC0000FC00007C
FC0000FC00007C
FC0000FC00007C
FC0000FC00007C
FC0000FC00007C
FC0000FC00007C
FC0000FC00007C
FC0000FC00007C
FC0000FC00007C
FC0000FC00007C
FC0000FC00007C
FC0000FC00007C
FC0000FC00007C
FC0000FC00007C
FC0000FC00007C
FC0000FC00007C
FC0000FC00007C
ENDCHAR
STARTCHAR 006E
ENCODING 110
SWIDTH 600 0
DWIDTH 40 0
BBX 31 36 5 0
BITMAP
0003FC00
FC1FFF80
FC3FFFC0
FC7FFFE0
FCFFFFF0
FDF81FF8
FDC007F8
FF8003FC
FF0001FC
FE0000FE
FE00007E
FC00007E
FC00007E
FC00007E
FC00007E
FC00003E
FC00003E
FC00003E
FC00003E
FC00003E
FC00003E
FC00003E
FC00003E
FC00003E
FC00003E
FC00003E
FC00003E
FC00003E
FC00003E
FC00003E
FC00003E
FC00003E
FC00003E
FC00003E
FC00003E
FC00003E
ENDCHAR
STARTCHAR 006F
ENCODING 111
SWIDTH 585 0
DWIDTH 39 0
BBX 33 36 3 0
BITMAP
000FF80000
003FFF0000
00FFFFC000
01FFFFE000
07FFFFF000
07F807F800
0FE001FC00
1FC000FE00
1F80007E00
3F00007F00
3F00003F00
7E00003F00
7E00001F80
7E00001F80
7C00001F80
7C00001F80
FC00001F80
FC00000F80
FC00000F80
FC00001F80
7C00001F80
7C00001F80
7E00001F80
7E00001F80
7E00003F00
3F00003F00
3F00007F00
3F80007E00
1FC000FE00
0FE001FC00
0FF007F800
07FFFFF800
03FFFFF000
01FFFFC000
007FFF8000
001FFE0000
ENDCHAR
STARTCHAR 0070
ENCODING 112
SWIDTH 615 0
DWIDTH 41 0
BBX 33 50 5 -14
BITMAP
0003FC0000
FC1FFF8000
FC3FFFC000
FC7FFFF000
FCFFFFF800
FDF80FF800
FDE003FC00
FFC001FE00
FF8000FE00
FF00007F00
FF00007F00
FE00003F00
FE00003F00
FC00001F80
FC00001F80
FC00001F80
FC00001F80
FC00001F80
FC00001F80
FC00001F80
FC00001F80
FC00001F80
FC00001F80
FE00003F00
FE00003F00
FE00003F00
FF00007F00
FF00007E00
FF8000FE00
FDC001FC00
FDF007FC00
FCFF7FF800
FC7FFFF000
FC3FFFE000
FC1FFFC000
FC07FF0000
FC00000000
FC00000000
FC00000000
FC00000000
FC00000000
FC00000000
FC00000000
FC00000000
FC00000000
FC00000000
FC00000000
FC00000000
FC00000000
FC00000000
ENDCHAR
STARTCHAR 0071
ENCODING 113
SWIDTH 615 0
DWIDTH 41 0
BBX 34 50 3 -14
BITMAP
001FF00000
007FFC0FC0
01FFFE0FC0
03FFFF0FC0
07FFFF8FC0
0FF807CFC0
1FE001EFC0
1FC000FFC0
3F80007FC0
3F80007FC0
3F00003FC0
7F00003FC0
7E00001FC0
7E00001FC0
7E00001FC0
7E00001FC0
FC00000FC0
FC00000FC0
FC00000FC0
FC00000FC0
7E00001FC0
7E00001FC0
7E00001FC0
7E00001FC0
7E00001FC0
7F00003FC0
3F00003FC0
3F80007FC0
1FC000FFC0
1FE001EFC0
0FF003CFC0
07FFFFCFC0
07FFFF8FC0
03FFFF0FC0
00FFFC0FC0
003FF00FC0
0000000FC0
0000000FC0
0000000FC0
0000000FC0
0000000FC0
0000000FC0
0000000FC0
0000000FC0
0000000FC0
0000000FC0
0000000FC0
0000000FC0
0000000FC0
0000000FC0
ENDCHAR
STARTCHAR 0072
ENCODING 114
SWIDTH 345 0
DWIDTH 23 0
BBX 18 35 5 0
BITMAP
F81FC0
F87FC0
F8FFC0
F9FFC0
FBFFC0
FFF0C0
FF8000
FF0000
FE0000
FC0000
FC0000
FC0000
FC0000
FC0000
F80000
F80000
F80000
F80000
F80000
F80000
F80000
F80000
F80000
F80000
F80000
F80000
F80000
F80000
F80000
F80000
F80000
F80000
F80000
F80000
F80000
ENDCHAR
STARTCHAR 0073
ENCODING 115
SWIDTH 495 0
DWIDTH 33 0
BBX 27 36 3 0
BITMAP
007FC000
03FFF800
07FFFC00
0FFFFE00
1FFBFF00
3F803F80
3F001FC0
7E000FC0
7E000FC0
7C0007C0
7C0007C0
7E000000
7E000000
3F000000
3F800000
1FFC0000
1FFFE000
07FFFC00
01FFFE00
007FFF80
0000FFC0
00001FC0
00000FE0
000007E0
FC0007E0
FC0003E0
FC0003E0
7E0007E0
7E0007E0
7F000FC0
3F801FC0
1FF0FF80
1FFFFF80
07FFFE00
03FFFC00
00FFF000
ENDCHAR
STARTCHAR 0074
ENCODING 116
SWIDTH 390 0
DWIDTH 26 0
BBX 21 47 2 0
BITMAP
01F000
01F000
01F000
01F000
01F000
01F000
01F000
01F000
01F000
01F000
01F000
01F000
FFFFF8
FFFFF8
FFFFF8
FFFFF8
01F000
01F000
01F000
01F000
01F000
01F000
01F000
01F000
01F000
01F000
01F000
01F000
01F000
01F000
01F000
01F000
01F000
01F000
01F000
01F000
01F000
01F000
01F000
01F000
01F800
01F800
01FC00
01FFF8
00FFF8
007FF8
003FF8
ENDCHAR
STARTCHAR 0075
ENCODING 117
SWIDTH 600 0
DWIDTH 40 0
BBX 31 36 5 -1
BITMAP
FC00007E
FC00007E
FC00007E
FC00007E
FC00007E
FC00007E
FC00007E
FC00007E
FC00007E
FC00007E
FC00007E
FC00007E
FC00007E
FC00007E
FC00007E
FC00007E
FC00007E
FC00007E
FC00007E
FC00007E
FC00007E
FC00007E
FC00007E
FC0000FE
FC0000FE
7E0000FE
7E0001FE
7F0003FE
3F80077E
3FE00F7E
1FFFFE7E
1FFFFC7E
0FFFF87E
03FFF07E
01FFC07E
001C0000
ENDCHAR
STARTCHAR 0076
ENCODING 118
SWIDTH 540 0
DWIDTH 36 0
BBX 33 35 2 0
BITMAP
FC00001F80
7C00001F00
7E00003F00
7E00003E00
3E00007E00
3F00007E00
1F00007C00
1F8000FC00
1F8000FC00
0F8000F800
0FC001F800
0FC001F800
07C001F000
07E003F000
07E003E000
03E007E000
03F007E000
01F007C000
01F00FC000
01F80FC000
00F80F8000
00FC1F8000
00FC1F8000
007C1F0000
007E3F0000
007E3E0000
003E7E0000
003F7E0000
001F7C0000
001FFC0000
001FFC0000
000FF80000
000FF80000
000FF00000
0007F00000
ENDCHAR
STARTCHAR 0077
ENCODING 119
SWIDTH 810 0
DWIDTH 54 0
BBX 50 35 2 0
BITMAP
FC0003F00007C0
7C0003F0000FC0
7C0003F8000FC0
7E0003F8000F80
7E0007F8000F80
3E0007FC001F80
3E0007FC001F80
3F000FFC001F00
1F000FFE001F00
1F000FBE003F00
1F801FBE003E00
1F801F3F003E00
0F801F3F003E00
0F803F1F007E00
0FC03F1F007C00
07C03E1F807C00
07C03E0F80FC00
07C07E0F80FC00
07E07C0FC0F800
03E07C07C0F800
03E0FC07C1F800
03F0F807E1F000
03F0F803E1F000
01F1F803E1F000
01F1F003F3F000
01F9F003F3E000
00FBF001F3E000
00FBF001F3E000
00FBE001FFC000
00FFE000FFC000
007FE000FFC000
007FC000FFC000
007FC0007F8000
003FC0007F8000
003F80007F8000
ENDCHAR
STARTCHAR 0078
ENCODING 120
SWIDTH 555 0
DWIDTH 37 0
BBX 30 35 3 0
BITMAP
FC0001FC
FE0001F8
7E0003F8
3F0003F0
3F8007E0
1F800FE0
0FC00FC0
0FE01F80
07E03F80
03F03F00
03F07E00
01F87E00
00FCFC00
00FDF800
007FF800
003FF000
003FE000
001FE000
003FE000
007FF000
007FF800
00FDF800
01FCFC00
01F87E00
03F07E00
03F03F00
07E03F80
0FE01F80
0FC00FC0
1F800FE0
3F8007E0
3F0003F0
7E0003F8
FE0001F8
FC0001FC
ENDCHAR
STARTCHAR 0079
ENCODING 121
SWIDTH 525 0
DWIDTH 35 0
BBX 32 49 2 -14
BITMAP
FC00003F
7E00003F
7E00007E
7E00007E
3F00007E
3F0000FC
1F0000FC
1F8001F8
1F8001F8
0F8001F0
0FC003F0
0FC003F0
07E003E0
07E007E0
03E007C0
03F00FC0
03F00FC0
01F00F80
01F81F80
00F81F00
00F81F00
00FC3F00
007C3E00
007C7E00
003E7C00
003E7C00
003FF800
001FF800
001FF800
001FF000
000FF000
000FE000
0007E000
0007E000
000FC000
000FC000
000F8000
001F8000
001F8000
003F0000
003F0000
007E0000
00FE0000
01FC0000
7FFC0000
7FF80000
7FF00000
7FC00000
0C000000
ENDCHAR
STARTCHAR 007A
ENCODING 122
SWIDTH 495 0
DWIDTH 33 0
BBX 27 35 3 0
BITMAP
3FFFFFE0
3FFFFFE0
3FFFFFE0
3FFFFFE0
3FFFFFE0
00000FE0
00001FC0
00001F80
00003F00
00007E00
0000FE00
0001FC00
0001F800
0003F000
0007E000
000FE000
001FC000
001F8000
003F0000
007E0000
00FE0000
01FC0000
01F80000
03F00000
07E00000
0FE00000
0FC00000
1F800000
3F000000
7E000000
FFFFFFE0
FFFFFFE0
FFFFFFE0
FFFFFFE0
FFFFFFE0
ENDCHAR
STARTCHAR 007B
ENCODING 123
SWIDTH 450 0
DWIDTH 30 0
BBX 20 70 7 -14
BITMAP
0003F0
007FF0
00FFF0
01FFF0
03FFF0
03E000
03E000
07C000
07C000
07C000
07C000
07C000
07C000
07C000
07C000
07C000
07C000
07C000
07C000
07C000
07C000
07C000
07C000
07C000
07C000
07C000
07C000
07C000
07C000
07C000
07C000
07C000
07C000
0F8000
FF0000
FE0000
FF8000
0F8000
07C000
07C000
07C000
07C000
07C000
07C000
07C000
07C000
07C000
07C000
07C000
07C000
07C000
07C000
07C000
07C000
07C000
07C000
07C000
07C000
07C000
07C000
07C000
07C000
07C000
07C000
03E000
03F000
03FFF0
01FFF0
00FFF0
003FF0
ENDCHAR
STARTCHAR 007C
ENCODING 124
SWIDTH 285 0
DWIDTH 19 0
BBX 5 79 7 -16
BITMAP
F8
F8
F8
F8
F8
F8
F8
F8
F8
F8
F8
F8
F8
F8
F8
F8
F8
F8
F8
F8
F8
F8
F8
F8
F8
F8
F8
F8
F8
F8
F8
F8
F8
F8
F8
F8
F8
F8
F8
F8
F8
F8
F8
F8
F8
F8
F8
F8
F8
F8
F8
F8
F8
F8
F8
F8
F8
F8
F8
F8
F8
F8
F8
F8
F8
F8
F8
F8
F8
F8
F8
F8
F8
F8
F8
F8
F8
F8
F8
ENDCHAR
STARTCHAR 007D
ENCODING 125
SWIDTH 465 0
DWIDTH 31 0
BBX 20 70 8 -14
BITMAP
FC0000
FFC000
FFF000
FFF800
FFFC00
00FC00
007C00
007C00
007E00
003E00
003E00
003E00
003E00
003E00
003E00
003E00
003E00
003E00
003E00
003E00
003E00
003E00
003E00
003E00
003E00
003E00
003E00
003E00
003E00
003E00
003E00
003E00
003E00
003F00
001FF0
0007F0
001FF0
003F00
003E00
003E00
003E00
003E00
003E00
003E00
003E00
003E00
003E00
003E00
003E00
003E00
003E00
003E00
003E00
003E00
003E00
003E00
003E00
003E00
003E00
003E00
003E00
003E00
007C00
007C00
007C00
00FC00
FFF800
FFF800
FFF000
FFC000
ENDCHAR
STARTCHAR 007E
ENCODING 126
SWIDTH 555 0
DWIDTH 37 0
BBX 25 7 6 22
BITMAP
07E00780
1FF80780
3FFE0F80
7FFFFF00
7C3FFE00
780FFC00
F001F800
ENDCHAR
STARTCHAR 00A0
ENCODING 160
SWIDTH 225 0
DWIDTH 15 0
BBX 0 0 0 0
BITMAP
ENDCHAR
STARTCHAR 00A1
ENCODING 161
SWIDTH 225 0
DWIDTH 15 0
BBX 8 51 4 -17
BITMAP
3C
7E
7F
FF
7F
7E
3C
00
00
00
00
00
00
3C
3C
3C
3C
3C
3C
3C
3C
3C
3E
3E
3E
3E
3E
3E
3E
3E
7E
7E
7E
7E
7E
7E
7E
7E
7E
7E
7E
7E
7E
7E
7E
7E
7E
7E
7E
7E
7E
ENDCHAR
STARTCHAR 00A2
ENCODING 162
SWIDTH 600 0
DWIDTH 40 0
BBX 32 46 3 -5
BITMAP
0001C000
0001C000
0001C000
0001C000
0001C000
000FFC00
003FFF00
00FFFFC0
03FFFFE0
07FFFFF0
0FF9C7F8
0FE1C1FC
1FC1C0FC
1F81C07E
3F01C07E
3F01C03F
7E01C03F
7E01C01F
7E01C01F
7E01C000
7C01C000
FC01C000
FC01C000
FC01C000
FC01C000
7C01C000
7C01C000
7E01C000
7E01C01F
7E01C03F
3F01C03F
3F01C03F
3F81C07E
1FC1C0FE
1FE1C1FC
0FF1C3F8
07FFFFF8
03FFFFF0
01FFFFE0
007FFF80
001FFE00
0001C000
0001C000
0001C000
0001C000
0001C000
ENDCHAR
STARTCHAR 00A3
ENCODING 163
SWIDTH 585 0
DWIDTH 39 0
BBX 33 48 3 0
BITMAP
0001F00000
003FFF0000
00FFFFC000
03FFFFE000
07FFFFF000
0FFC1FF800
0FF003FC00
1FE001FC00
1FC000FE00
3F80007E00
3F80007E00
3F00007F00
3F00003F00
3F00003F00
3F00003F00
3F80000000
3F80000000
1F80000000
1FC0000000
1FE0000000
0FE0000000
07F0000000
07F0000000
03F8000000
01FC000000
01FC000000
7FFFFF8000
7FFFFF8000
7FFFFF8000
7FFFFF8000
003F000000
003F000000
003F000000
003F000000
003E000000
003E000000
007E000000
007C000000
007C000000
00F8000000
01F0000000
03E0000000
0F80000000
FFFFFFFF80
FFFFFFFF80
FFFFFFFF80
FFFFFFFF80
FFFFFFFF80
ENDCHAR
STARTCHAR 00A4
ENCODING 164
SWIDTH 585 0
DWIDTH 39 0
BBX 30 32 5 8
BITMAP
20000020
70000070
F81FC0F8
FCFFF9F8
7FFFFFF0
3FFFFFE0
1FFFFFC0
1FC01FC0
1F800FE0
3E0003E0
7E0003F0
7C0001F0
780000F0
F80000F8
F80000F8
F80000F8
F80000F8
F80000F8
F80000F8
780000F8
7C0001F0
7C0001F0
3E0003E0
3F0007E0
1F800FC0
1FE03FC0
3FFFFFE0
7FFFFFF0
FDFFFDF8
F87FF0FC
700F8078
20000020
ENDCHAR
STARTCHAR 00A5
ENCODING 165
SWIDTH 615 0
DWIDTH 41 0
BBX 35 47 3 0
BITMAP
FC000007E0
FC000007E0
FE00000FC0
7E00000FC0
7F00001F80
3F00001F80
3F80003F00
1F80003F00
1FC0007E00
0FC0007E00
0FE000FC00
07E000FC00
07F001F800
03F001F800
03F803F000
01F803F000
00FC07E000
00FC07E000
007E0FC000
007E0FC000
003F1F8000
003F1F8000
001FBF0000
001FBF0000
000FFE0000
000FFE0000
0007FC0000
07FFFFFC00
07FFFFFC00
07FFFFFC00
07FFFFFC00
0003F00000
0003F00000
0003F00000
0003F00000
07FFFFFC00
07FFFFFC00
07FFFFFC00
07FFFFFC00
0003F00000
0003F00000
0003F00000
0003F00000
0003F00000
0003F00000
0003F00000
0003F00000
ENDCHAR
STARTCHAR 00A6
ENCODING 166
SWIDTH 285 0
DWIDTH 19 0
BBX 5 79 7 -16
BITMAP
F8
F8
F8
F8
F8
F8
F8
F8
F8
F8
F8
F8
F8
F8
F8
F8
F8
F8
F8
F8
F8
F8
F8
F8
F8
F8
F8
F8
F8
F8
F8
F8
F8
F8
F8
00
00
00
00
00
00
00
00
00
00
00
F8
F8
F8
F8
F8
F8
F8
F8
F8
F8
F8
F8
F8
F8
F8
F8
F8
F8
F8
F8
F8
F8
F8
F8
F8
F8
F8
F8
F8
F8
F8
F8
F8
ENDCHAR
STARTCHAR 00A7
ENCODING 167
SWIDTH 540 0
DWIDTH 36 0
BBX 30 49 4 -1
BITMAP
000F0000
00FFF800
03FFFC00
0FFFFF00
1FFFFF80
3FC03FC0
3F001FC0
3F000FE0
7E0007E0
7E0007E0
7E0003E0
3E000000
3F000000
3F800000
1FF80000
0FFFE000
0FFFFC00
3FFFFF80
7FFFFFC0
FE01FFE0
FC000FF0
F80003F8
F80001F8
F80001F8
F80000FC
FC0000FC
FE0000F8
7F0001F8
7FF001F8
3FFFC7F0
0FFFFFE0
03FFFFC0
00FFFF00
0007FFC0
00003FE0
00000FE0
000007E0
FC0003F0
FC0003F0
7E0003F0
7E0003F0
7F0007E0
3F800FE0
1FF07FC0
1FFFFF80
07FFFF00
03FFFE00
00FFF800
00020000
ENDCHAR
STARTCHAR 00A8
ENCODING 168
SWIDTH 360 0
DWIDTH 24 0
BBX 21 7 2 42
BITMAP
3C01E0
7E03F0
FF07F8
FF07F8
FF07F8
7E03F0
3C01E0
ENDCHAR
STARTCHAR 00A9
ENCODING 169
SWIDTH 810 0
DWIDTH 54 0
BBX 48 49 3 -1
BITMAP
000000C00000
0000FFFF0000
0003FFFFE000
000FFFFFF800
003FFC3FFC00
007F8000FF00
01FC00003F80
03F800000FC0
07E0000007E0
07C0000003E0
0F8003C001F0
1F001FFC00F8
1F007FFF0078
3E01FFFF807C
3C03F81FC03C
7C07E003E03C
7807C001F01E
780F8000F01E
780F0000781E
F01F0000780F
F01E0000780F
F01E0000000F
F01E0000000F
F01E0000000F
F01E0000000F
F01E0000000F
F01E0000000F
F01E0000000F
F01E0000780F
F81F0000781F
780F0000781E
780F8000F01E
7807C001F01E
7C07E003E03C
3C03F80FC03C
3E01FFFF807C
1F007FFF0078
1F003FFC00F8
0F8003E001F0
07C0000003E0
07E0000007E0
03F800000FC0
01FC00003F80
00FF8000FF00
003FF81FFC00
001FFFFFF800
0007FFFFE000
0000FFFF0000
000007E00000
ENDCHAR
STARTCHAR 00AA
ENCODING 170
SWIDTH 150 0
DWIDTH 10 0
BBX 9 9 0 26
BITMAP
3D80
7F80
E380
E180
E180
E180
E380
7F80
3D80
ENDCHAR
STARTCHAR 00AB
ENCODING 171
SWIDTH 630 0
DWIDTH 42 0
BBX 36 28 3 7
BITMAP
000FC003F0
001F8007E0
003F000FC0
007F001F80
00FE003F80
00FC003F00
01F8007E00
03F000FC00
07E001F800
0FC003F000
1F8007E000
3F000FC000
7E001F8000
FC003F0000
FC003F0000
7E001F8000
3F000FC000
1F8007E000
0FC003F000
07E001F800
03F000FC00
01F8007E00
00FC003F00
007E001F80
003F000FC0
001F8007E0
000FC003F0
0007E001F0
ENDCHAR
STARTCHAR 00AC
ENCODING 172
SWIDTH 645 0
DWIDTH 43 0
BBX 33 17 5 18
BITMAP
FFFFFFFF80
FFFFFFFF80
FFFFFFFF80
FFFFFFFF80
0000000780
0000000780
0000000780
0000000780
0000000780
0000000780
0000000780
0000000780
0000000780
0000000780
0000000780
0000000780
0000000780
ENDCHAR
STARTCHAR 00AD
ENCODING 173
SWIDTH 600 0
DWIDTH 40 0
BBX 24 5 8 18
BITMAP
FFFFFF
FFFFFF
FFFFFF
FFFFFF
FFFFFF
ENDCHAR
STARTCHAR 00AE
ENCODING 174
SWIDTH 330 0
DWIDTH 22 0
BBX 17 17 3 30
BITMAP
01C000
0FF800
1E3C00
300E00
638700
63E300
C23300
C23180
C3E180
C3C180
C26100
E26300
623300
700600
3C1E00
1FF800
07F000
ENDCHAR
STARTCHAR 00AF
ENCODING 175
SWIDTH 360 0
DWIDTH 24 0
BBX 20 3 2 43
BITMAP
FFFFF0
FFFFF0
FFFFF0
ENDCHAR
STARTCHAR 00B0
ENCODING 176
SWIDTH 300 0
DWIDTH 20 0
BBX 12 13 4 45
BITMAP
0600
3FC0
7FE0
F9F0
E070
E070
E070
E070
E070
F0F0
7FE0
3FC0
1F80
ENDCHAR
STARTCHAR 00B1
ENCODING 177
SWIDTH 600 0
DWIDTH 40 0
BBX 27 36 7 0
BITMAP
001F0000
001F0000
001F0000
001F0000
001F0000
001F0000
001F0000
001F0000
001F0000
001F0000
FFFFFFE0
FFFFFFE0
FFFFFFE0
FFFFFFE0
FFFFFFE0
001F0000
001F0000
001F0000
001F0000
001F0000
001F0000
001F0000
001F0000
001F0000
001F0000
001F0000
00000000
00000000
00000000
00000000
00000000
00000000
FFFFFFE0
FFFFFFE0
FFFFFFE0
FFFFFFE0
ENDCHAR
STARTCHAR 00B2
ENCODING 178
SWIDTH 300 0
DWIDTH 20 0
BBX 17 26 2 25
BITMAP
03C000
0FF800
3FFC00
7FFE00
781E00
F00F00
F00F00
F00F00
F00F00
000F00
000F00
001E00
003E00
007C00
00F800
01F000
03E000
07C000
0F8000
1F0000
3E0000
7C0000
FFFF80
FFFF80
FFFF80
FFFF80
ENDCHAR
STARTCHAR 00B3
ENCODING 179
SWIDTH 315 0
DWIDTH 21 0
BBX 17 26 2 25
BITMAP
01E000
0FFC00
3FFE00
3F7F00
780F00
780780
F00780
000780
000780
000780
000F00
03FE00
03FC00
03FC00
003F00
000F00
000780
000780
000780
F00780
F00780
F80F80
7F7F00
3FFE00
1FFC00
07F000
ENDCHAR
STARTCHAR 00B4
ENCODING 180
SWIDTH 240 0
DWIDTH 16 0
BBX 12 12 2 41
BITMAP
03F0
03E0
07E0
0FC0
0F80
1F80
1F00
3E00
3E00
7C00
7800
F800
ENDCHAR
STARTCHAR 00B5
ENCODING 181
SWIDTH 645 0
DWIDTH 43 0
BBX 36 49 5 -14
BITMAP
F80003F000
F80003F000
F80003F000
F80003F000
F80003F000
F80003F000
F80003F000
F80003F000
F80003F000
F80003F000
F80003F000
F80003F000
F80003F000
F80003F000
F80003F000
F80003F000
F80003F000
F80003F000
F80003F000
F80003F000
F80003F000
F80003F000
F80003F000
FC0003F000
FC0007F000
FC0007F000
FC000FF000
FE000FF000
FE001DF000
FF007DF800
FFE1F9FC00
FFFFF1FFF0
FFFFE0FFF0
FBFFC07FF0
F9FF803FF0
F800000000
F800000000
F800000000
F800000000
F800000000
F800000000
F800000000
F800000000
F800000000
F800000000
F800000000
F800000000
F800000000
F800000000
ENDCHAR
STARTCHAR 00B6
ENCODING 182
SWIDTH 525 0
DWIDTH 35 0
BBX 29 47 2 0
BITMAP
001FFFF8
03FFFFF8
07FFFFF8
1FFFFFF8
3FFFFFF8
3FFFF078
7FFFF078
7FFFF078
FFFFF078
FFFFF078
FFFFF078
FFFFF078
FFFFF078
FFFFF078
FFFFF078
FFFFF078
FFFFF078
7FFFF078
7FFFF078
3FFFF078
3FFFF078
1FFFF078
07FFF078
01FFF078
0000F078
0000F078
0000F078
0000F078
0000F078
0000F078
0000F078
0000F078
0000F078
0000F078
0000F078
0000F078
0000F078
0000F078
0000F078
0000F078
0000F078
0000F078
0000F078
0000F078
0000F078
0000F078
0000F078
ENDCHAR
STARTCHAR 00B7
ENCODING 183
SWIDTH 270 0
DWIDTH 18 0
BBX 7 7 6 21
BITMAP
7C
FE
FE
FE
FE
FE
7C
ENDCHAR
STARTCHAR 00B8
ENCODING 184
SWIDTH 240 0
DWIDTH 16 0
BBX 12 17 2 -17
BITMAP
3800
3800
7800
7000
7F80
FFE0
FFF0
00F0
0070
0070
0070
0070
01F0
7FE0
7FC0
7F80
1C00
ENDCHAR
STARTCHAR 00B9
ENCODING 185
SWIDTH 255 0
DWIDTH 17 0
BBX 13 25 2 26
BITMAP
0780
0F80
1F80
7F80
FF80
F780
E780
C780
8780
0780
0780
0780
0780
0780
0780
0780
0780
0780
0780
0780
0780
0780
FFF8
FFF8
FFF8
ENDCHAR
STARTCHAR 00BA
ENCODING 186
SWIDTH 150 0
DWIDTH 10 0
BBX 9 10 1 26
BITMAP
0800
7E00
7700
E380
C380
C180
C380
E380
7F00
3E00
ENDCHAR
STARTCHAR 00BB
ENCODING 187
SWIDTH 630 0
DWIDTH 42 0
BBX 36 28 3 7
BITMAP
FC003F0000
7E001F8000
3F000FC000
1F8007E000
0FC003F000
07E001F800
03F000FC00
01F8007E00
00FC003F00
007E001F80
007F001FC0
003F800FE0
001FC007F0
000FC003F0
000FC003F0
001F8007E0
003F000FC0
007E001F80
00FE003F80
01FC007F00
03F800FE00
03F000FC00
07E001F800
0FC003F000
1F8007E000
3F000FC000
7E001F8000
FC003F0000
ENDCHAR
STARTCHAR 00BC
ENCODING 188
SWIDTH 810 0
DWIDTH 54 0
BBX 48 47 3 0
BITMAP
0F8000000F80
1F8000001F80
3F8000001F00
7F8000003E00
FF8000007E00
F78000007C00
E7800000FC00
C7800000F800
87800001F000
07800003F000
07800003E000
07800007E000
07800007C000
0780000F8000
0780001F8000
0780001F0000
0780003F0000
0780003E0000
0780007C0000
078000FC0000
FFF800F80000
FFF801F80000
FFF801F00000
FFF803E00000
000007E000F8
000007C001F8
00000FC003F8
00000F8003F8
00001F0007F8
00003F000F78
00003E000E78
00007E001E78
00007C001C78
0000F8003878
0001F8007878
0001F0007078
0003F000E078
0003E001E078
0007C001FFFF
000FC001FFFF
000F8001FFFF
001F80000078
001F00000078
003E00000078
007E00000078
007C00000078
00FC00000078
ENDCHAR
STARTCHAR 00BD
ENCODING 189
SWIDTH 840 0
DWIDTH 56 0
BBX 50 47 3 0
BITMAP
0F80000007C000
1F8000000FC000
3F8000000F8000
7F8000001F8000
FF8000001F0000
F78000003F0000
E78000003E0000
C78000007C0000
87800000FC0000
07800000F80000
07800001F80000
07800001F00000
07800003E00000
07800007E00000
07800007C00000
0780000FC00000
0780000F800000
0780001F000000
0780003F000000
0780003E000000
FFF8007E000000
FFF8007C000000
FFF800F8000000
FFF801F800F800
000001F003FE00
000003F007FF80
000003E00FFF80
000007C01F07C0
00000FC01E03C0
00000F801E03C0
00001F801E03C0
00001F000003C0
00003E000003C0
00007E00000780
00007C00000F80
0000FC00000F00
0000F800003E00
0001F000007C00
0003F00000F800
0003E00001F000
0007E00003E000
0007C00007C000
000F80000F8000
001F80001FFFC0
001F00001FFFC0
003F00001FFFC0
003E00001FFFC0
ENDCHAR
STARTCHAR 00BE
ENCODING 190
SWIDTH 840 0
DWIDTH 56 0
BBX 51 47 3 0
BITMAP
07E0000003E000
1FF8000007E000
3FFE00000FC000
7FFE00000F8000
781F00001F8000
F00F00001F0000
000F00003F0000
000F00003E0000
000F00007C0000
001F0000FC0000
03FE0000F80000
03FC0001F80000
03F80001F00000
03FE0003E00000
001F0007E00000
000F0007C00000
000F000FC00000
000F000F800000
F00F001F000000
F81F003F000000
FE7F003E000000
7FFE007E000000
3FFC007C000000
1FF800F8000000
000001F8003F00
000001F0007F00
000003F0007F00
000003E000FF00
000007C001EF00
00000FC001CF00
00000F8003CF00
00001F80078F00
00001F00070F00
00003E000F0F00
00007E001E0F00
00007C001C0F00
0000FC003C0F00
0000F800380F00
0001F0007FFFE0
0003F0007FFFE0
0003E0007FFFE0
0007E000000F00
0007C000000F00
000F8000000F00
001F8000000F00
001F0000000F00
003F0000000F00
ENDCHAR
STARTCHAR 00BF
ENCODING 191
SWIDTH 570 0
DWIDTH 38 0
BBX 31 49 4 -17
BITMAP
00038000
0007E000
000FE000
000FF000
000FF000
0007E000
0007E000
00010000
00000000
00000000
00000000
00000000
00000000
0007E000
0007E000
0007E000
000FC000
000FC000
001FC000
003F8000
007F0000
00FE0000
01FC0000
03F80000
07F00000
0FE00000
1FC00000
1F800000
3F000000
7F000000
7E000000
7C000000
FC000000
FC00007E
FC00007E
FC00007E
FC00007E
FC0000FC
FC0000FC
7E0001FC
7F0003F8
3F8007F8
3FE01FF0
1FFFFFE0
0FFFFFC0
07FFFF80
01FFFF00
007FF800
00018000
ENDCHAR
STARTCHAR 00C0
ENCODING 192
SWIDTH 675 0
DWIDTH 45 0
BBX 40 63 3 0
BITMAP
003F000000
003F000000
001F800000
000F800000
000FC00000
0007C00000
0003E00000
0003F00000
0001F00000
0000F80000
0000F80000
00007C0000
0000000000
0000000000
0000000000
0000000000
00007C0000
0000FE0000
0000FE0000
0000FF0000
0001FF0000
0001FF0000
0001FF8000
0003FF8000
0003EFC000
0007EFC000
0007C7C000
0007C7E000
000FC3E000
000F83E000
000F83F000
001F81F000
001F01F800
003F01F800
003F00F800
003E00FC00
007E00FC00
007E007C00
007C007E00
00FC003E00
00F8003F00
01F8003F00
01F8001F00
01F0001F80
03F0001F80
03FFFFFF80
03FFFFFFC0
07FFFFFFC0
07FFFFFFE0
0FC00007E0
0FC00003E0
0F800003F0
1F800003F0
1F800001F0
1F000001F8
3F000001F8
3F000000FC
7E000000FC
7E0000007C
7E0000007E
FC0000007E
FC0000003F
F80000003F
ENDCHAR
STARTCHAR 00C1
ENCODING 193
SWIDTH 675 0
DWIDTH 45 0
BBX 40 63 3 0
BITMAP
000000FC00
000001F800
000003F000
000003F000
000007E000
000007C000
00000FC000
00000F8000
00001F0000
00001F0000
00003E0000
00003C0000
0000000000
0000000000
0000000000
0000000000
00007C0000
0000FE0000
0000FE0000
0000FF0000
0001FF0000
0001FF0000
0001FF8000
0003FF8000
0003EFC000
0007EFC000
0007C7C000
0007C7E000
000FC3E000
000F83E000
000F83F000
001F81F000
001F01F800
003F01F800
003F00F800
003E00FC00
007E00FC00
007E007C00
007C007E00
00FC003E00
00F8003F00
01F8003F00
01F8001F00
01F0001F80
03F0001F80
03FFFFFF80
03FFFFFFC0
07FFFFFFC0
07FFFFFFE0
0FC00007E0
0FC00003E0
0F800003F0
1F800003F0
1F800001F0
1F000001F8
3F000001F8
3F000000FC
7E000000FC
7E0000007C
7E0000007E
FC0000007E
FC0000003F
F80000003F
ENDCHAR
STARTCHAR 00C2
ENCODING 194
SWIDTH 675 0
DWIDTH 45 0
BBX 40 61 3 0
BITMAP
00007C0000
0000FE0000
0001FF0000
0003FF8000
0007EFC000
000FC7E000
001F83F000
001F01F800
003E00FC00
007C007C00
0000000000
0000000000
0000000000
0000000000
00007C0000
0000FE0000
0000FE0000
0000FF0000
0001FF0000
0001FF0000
0001FF8000
0003FF8000
0003EFC000
0007EFC000
0007C7C000
0007C7E000
000FC3E000
000F83E000
000F83F000
001F81F000
001F01F800
003F01F800
003F00F800
003E00FC00
007E00FC00
007E007C00
007C007E00
00FC003E00
00F8003F00
01F8003F00
01F8001F00
01F0001F80
03F0001F80
03FFFFFF80
03FFFFFFC0
07FFFFFFC0
07FFFFFFE0
0FC00007E0
0FC00003E0
0F800003F0
1F800003F0
1F800001F0
1F000001F8
3F000001F8
3F000000FC
7E000000FC
7E0000007C
7E0000007E
FC0000007E
FC0000003F
F80000003F
ENDCHAR
STARTCHAR 00C3
ENCODING 195
SWIDTH 675 0
DWIDTH 45 0
BBX 40 60 3 0
BITMAP
0007E03800
000FF07800
001FFC7800
001FFFF800
003C3FF000
003C1FE000
003C07C000
0000000000
0000000000
0000000000
0000000000
0000000000
0000000000
00007C0000
0000FE0000
0000FE0000
0000FF0000
0001FF0000
0001FF0000
0001FF8000
0003FF8000
0003EFC000
0007EFC000
0007C7C000
0007C7E000
000FC3E000
000F83E000
000F83F000
001F81F000
001F01F800
003F01F800
003F00F800
003E00FC00
007E00FC00
007E007C00
007C007E00
00FC003E00
00F8003F00
01F8003F00
01F8001F00
01F0001F80
03F0001F80
03FFFFFF80
03FFFFFFC0
07FFFFFFC0
07FFFFFFE0
0FC00007E0
0FC00003E0
0F800003F0
1F800003F0
1F800001F0
1F000001F8
3F000001F8
3F000000FC
7E000000FC
7E0000007C
7E0000007E
FC0000007E
FC0000003F
F80000003F
ENDCHAR
STARTCHAR 00C4
ENCODING 196
SWIDTH 675 0
DWIDTH 45 0
BBX 40 61 3 0
BITMAP
000C006000
003F00F800
003F81FC00
007F81FC00
007F81FC00
003F81FC00
003F01F800
000E007000
0000000000
0000000000
0000000000
0000000000
0000000000
0000000000
00007C0000
0000FE0000
0000FE0000
0000FF0000
0001FF0000
0001FF0000
0001FF8000
0003FF8000
0003EFC000
0007EFC000
0007C7C000
0007C7E000
000FC3E000
000F83E000
000F83F000
001F81F000
001F01F800
003F01F800
003F00F800
003E00FC00
007E00FC00
007E007C00
007C007E00
00FC003E00
00F8003F00
01F8003F00
01F8001F00
01F0001F80
03F0001F80
03FFFFFF80
03FFFFFFC0
07FFFFFFC0
07FFFFFFE0
0FC00007E0
0FC00003E0
0F800003F0
1F800003F0
1F800001F0
1F000001F8
3F000001F8
3F000000FC
7E000000FC
7E0000007C
7E0000007E
FC0000007E
FC0000003F
F80000003F
ENDCHAR
STARTCHAR 00C5
ENCODING 197
SWIDTH 675 0
DWIDTH 45 0
BBX 40 64 3 0
BITMAP
00007C0000
0000FF0000
0001FF0000
0003838000
0003838000
0003018000
0003818000
0003838000
0003C78000
0001FF0000
0000FE0000
0000100000
0000000000
0000000000
0000000000
0000000000
0000000000
00007C0000
0000FE0000
0000FE0000
0000FF0000
0001FF0000
0001FF0000
0001FF8000
0003FF8000
0003EFC000
0007EFC000
0007C7C000
0007C7E000
000FC3E000
000F83E000
000F83F000
001F81F000
001F01F800
003F01F800
003F00F800
003E00FC00
007E00FC00
007E007C00
007C007E00
00FC003E00
00F8003F00
01F8003F00
01F8001F00
01F0001F80
03F0001F80
03FFFFFF80
03FFFFFFC0
07FFFFFFC0
07FFFFFFE0
0FC00007E0
0FC00003E0
0F800003F0
1F800003F0
1F800001F0
1F000001F8
3F000001F8
3F000000FC
7E000000FC
7E0000007C
7E0000007E
FC0000007E
FC0000003F
F80000003F
ENDCHAR
STARTCHAR 00C6
ENCODING 198
SWIDTH 945 0
DWIDTH 63 0
BBX 58 47 2 0
BITMAP
000000FFFFFFFFC0
000000FFFFFFFFC0
000001FFFFFFFFC0
000001FFFFFFFFC0
000003FFFFFFFFC0
000003FFFFFFFFC0
000007F7E0000000
00000FE7E0000000
00000FE7E0000000
00001FC7E0000000
00001FC7E0000000
00003F87E0000000
00003F07E0000000
00007F07E0000000
00007E07E0000000
0000FE07E0000000
0000FC07E0000000
0001FC07E0000000
0001F807E0000000
0003F807E0000000
0003F007E0000000
0007F007FFFFFE00
000FE007FFFFFE00
000FC007FFFFFE00
001FC007FFFFFE00
001F8007FFFFFE00
003F8007E0000000
003F0007E0000000
007F0007E0000000
007FFFFFE0000000
00FFFFFFE0000000
00FFFFFFE0000000
01FFFFFFE0000000
01F80007E0000000
03F80007E0000000
07F00007E0000000
07E00007E0000000
0FE00007E0000000
0FC00007E0000000
1FC00007E0000000
1F800007E0000000
3F800007E0000000
3F000007FFFFFFC0
7F000007FFFFFFC0
7E000007FFFFFFC0
FE000007FFFFFFC0
FC000007FFFFFFC0
ENDCHAR
STARTCHAR 00C7
ENCODING 199
SWIDTH 705 0
DWIDTH 47 0
BBX 40 64 4 -16
BITMAP
00003F0000
0007FFF000
001FFFFC00
007FFFFF00
00FFFFFF80
01FFFFFFC0
03FE003FE0
07F8000FF0
0FF00003F8
1FE00001FC
1FC00000FC
3F800000FE
3F0000007E
3F0000003F
7E0000003F
7E0000003F
7E0000001F
FC00000000
FC00000000
FC00000000
FC00000000
FC00000000
FC00000000
FC00000000
FC00000000
FC00000000
FC00000000
FC00000000
FC00000000
FC00000000
FC00000000
FE00000000
7E00000000
7E0000003F
7F0000003F
3F0000003E
3F8000007E
3F800000FE
1FC00001FC
0FE00003F8
0FF00007F8
07F8000FF0
03FF007FE0
01FFFFFFC0
00FFFFFF80
003FFFFF00
001FFFFC00
0003FFE000
00001E0000
00001C0000
00003C0000
00003C0000
00003FE000
00003FF000
00007FF800
0000003800
0000003C00
0000003C00
0000003C00
0000003800
000000F800
00003FF000
00003FF000
00003FC000
ENDCHAR
STARTCHAR 00C8
ENCODING 200
SWIDTH 555 0
DWIDTH 37 0
BBX 29 63 5 0
BITMAP
0FC00000
07E00000
03E00000
03F00000
01F80000
00F80000
00FC0000
007C0000
003E0000
003E0000
001F0000
000F0000
00000000
00000000
00000000
00000000
FFFFFFF8
FFFFFFF8
FFFFFFF8
FFFFFFF8
FFFFFFF8
FFFFFFF8
FC000000
FC000000
FC000000
FC000000
FC000000
FC000000
FC000000
FC000000
FC000000
FC000000
FC000000
FC000000
FC000000
FC000000
FC000000
FFFFFFC0
FFFFFFC0
FFFFFFC0
FFFFFFC0
FFFFFFC0
FC000000
FC000000
FC000000
FC000000
FC000000
FC000000
FC000000
FC000000
FC000000
FC000000
FC000000
FC000000
FC000000
FC000000
FC000000
FC000000
FFFFFFF8
FFFFFFF8
FFFFFFF8
FFFFFFF8
FFFFFFF8
ENDCHAR
STARTCHAR 00C9
ENCODING 201
SWIDTH 555 0
DWIDTH 37 0
BBX 29 63 5 0
BITMAP
00003F00
00003F00
00007E00
00007C00
0000FC00
0000F800
0001F000
0003F000
0003E000
0007C000
0007C000
000F8000
00000000
00000000
00000000
00000000
FFFFFFF8
FFFFFFF8
FFFFFFF8
FFFFFFF8
FFFFFFF8
FFFFFFF8
FC000000
FC000000
FC000000
FC000000
FC000000
FC000000
FC000000
FC000000
FC000000
FC000000
FC000000
FC000000
FC000000
FC000000
FC000000
FFFFFFC0
FFFFFFC0
FFFFFFC0
FFFFFFC0
FFFFFFC0
FC000000
FC000000
FC000000
FC000000
FC000000
FC000000
FC000000
FC000000
FC000000
FC000000
FC000000
FC000000
FC000000
FC000000
FC000000
FC000000
FFFFFFF8
FFFFFFF8
FFFFFFF8
FFFFFFF8
FFFFFFF8
ENDCHAR
STARTCHAR 00CA
ENCODING 202
SWIDTH 555 0
DWIDTH 37 0
BBX 29 61 5 0
BITMAP
000F8000
001FC000
003FE000
007FF000
00FDF800
01F8FC00
03F07E00
07E03E00
0FC01F00
0F801F80
00000000
00000000
00000000
00000000
FFFFFFF8
FFFFFFF8
FFFFFFF8
FFFFFFF8
FFFFFFF8
FFFFFFF8
FC000000
FC000000
FC000000
FC000000
FC000000
FC000000
FC000000
FC000000
FC000000
FC000000
FC000000
FC000000
FC000000
FC000000
FC000000
FFFFFFC0
FFFFFFC0
FFFFFFC0
FFFFFFC0
FFFFFFC0
FC000000
FC000000
FC000000
FC000000
FC000000
FC000000
FC000000
FC000000
FC000000
FC000000
FC000000
FC000000
FC000000
FC000000
FC000000
FC000000
FFFFFFF8
FFFFFFF8
FFFFFFF8
FFFFFFF8
FFFFFFF8
ENDCHAR
STARTCHAR 00CB
ENCODING 203
SWIDTH 555 0
DWIDTH 37 0
BBX 29 61 5 0
BITMAP
01800C00
07E03F00
0FE03F00
0FF07F80
0FF07F80
0FE07F00
07E03F00
03801C00
00000000
00000000
00000000
00000000
00000000
00000000
FFFFFFF8
FFFFFFF8
FFFFFFF8
FFFFFFF8
FFFFFFF8
FFFFFFF8
FC000000
FC000000
FC000000
FC000000
FC000000
FC000000
FC000000
FC000000
FC000000
FC000000
FC000000
FC000000
FC000000
FC000000
FC000000
FFFFFFC0
FFFFFFC0
FFFFFFC0
FFFFFFC0
FFFFFFC0
FC000000
FC000000
FC000000
FC000000
FC000000
FC000000
FC000000
FC000000
FC000000
FC000000
FC000000
FC000000
FC000000
FC000000
FC000000
FC000000
FFFFFFF8
FFFFFFF8
FFFFFFF8
FFFFFFF8
FFFFFFF8
ENDCHAR
STARTCHAR 00CC
ENCODING 204
SWIDTH 240 0
DWIDTH 16 0
BBX 13 63 -2 0
BITMAP
FC00
7E00
3E00
3F00
1F00
0F80
0F80
07C0
03E0
03E0
01F0
00F0
0000
0000
0000
0000
01F8
01F8
01F8
01F8
01F8
01F8
01F8
01F8
01F8
01F8
01F8
01F8
01F8
01F8
01F8
01F8
01F8
01F8
01F8
01F8
01F8
01F8
01F8
01F8
01F8
01F8
01F8
01F8
01F8
01F8
01F8
01F8
01F8
01F8
01F8
01F8
01F8
01F8
01F8
01F8
01F8
01F8
01F8
01F8
01F8
01F8
01F8
ENDCHAR
STARTCHAR 00CD
ENCODING 205
SWIDTH 240 0
DWIDTH 16 0
BBX 13 63 5 0
BITMAP
01F8
01F0
03F0
07E0
07C0
0FC0
0F80
1F00
1F00
3E00
3C00
7C00
0000
0000
0000
0000
FC00
FC00
FC00
FC00
FC00
FC00
FC00
FC00
FC00
FC00
FC00
FC00
FC00
FC00
FC00
FC00
FC00
FC00
FC00
FC00
FC00
FC00
FC00
FC00
FC00
FC00
FC00
FC00
FC00
FC00
FC00
FC00
FC00
FC00
FC00
FC00
FC00
FC00
FC00
FC00
FC00
FC00
FC00
FC00
FC00
FC00
FC00
ENDCHAR
STARTCHAR 00CE
ENCODING 206
SWIDTH 240 0
DWIDTH 16 0
BBX 22 61 -3 0
BITMAP
00FC00
01FE00
01FF00
03FF80
07EFC0
0FC7C0
1F83E0
3F03F0
7E01F8
FC00FC
000000
000000
000000
000000
00FC00
00FC00
00FC00
00FC00
00FC00
00FC00
00FC00
00FC00
00FC00
00FC00
00FC00
00FC00
00FC00
00FC00
00FC00
00FC00
00FC00
00FC00
00FC00
00FC00
00FC00
00FC00
00FC00
00FC00
00FC00
00FC00
00FC00
00FC00
00FC00
00FC00
00FC00
00FC00
00FC00
00FC00
00FC00
00FC00
00FC00
00FC00
00FC00
00FC00
00FC00
00FC00
00FC00
00FC00
00FC00
00FC00
00FC00
ENDCHAR
STARTCHAR 00CF
ENCODING 207
SWIDTH 240 0
DWIDTH 16 0
BBX 21 61 -2 0
BITMAP
1800C0
7C03F0
FE07F0
FE07F0
FE07F8
FE07F0
7E03F0
3801C0
000000
000000
000000
000000
000000
000000
01F800
01F800
01F800
01F800
01F800
01F800
01F800
01F800
01F800
01F800
01F800
01F800
01F800
01F800
01F800
01F800
01F800
01F800
01F800
01F800
01F800
01F800
01F800
01F800
01F800
01F800
01F800
01F800
01F800
01F800
01F800
01F800
01F800
01F800
01F800
01F800
01F800
01F800
01F800
01F800
01F800
01F800
01F800
01F800
01F800
01F800
01F800
ENDCHAR
STARTCHAR 00D0
ENCODING 208
SWIDTH 705 0
DWIDTH 47 0
BBX 42 47 3 0
BITMAP
0FFFF8000000
0FFFFFE00000
0FFFFFFC0000
0FFFFFFF0000
0FFFFFFF8000
0FFFFFFFE000
0F80007FF000
0F80000FF800
0F800007F800
0F800001FC00
0F800000FE00
0F800000FE00
0F8000007F00
0F8000003F00
0F8000003F00
0F8000001F80
0F8000001F80
0F8000001F80
0F8000001F80
0F8000001F80
0F8000000FC0
FFFFC0000FC0
FFFFC0000FC0
FFFFC0000FC0
FFFFC0000FC0
0F8000000FC0
0F8000000FC0
0F8000000FC0
0F8000001F80
0F8000001F80
0F8000001F80
0F8000001F80
0F8000003F80
0F8000003F00
0F8000007F00
0F8000007E00
0F800000FE00
0F800001FC00
0F800003FC00
0F800007F800
0F80001FF000
0F8003FFE000
0FFFFFFFC000
0FFFFFFF0000
0FFFFFFE0000
0FFFFFF00000
0FFFFF800000
ENDCHAR
STARTCHAR 00D1
ENCODING 209
SWIDTH 705 0
DWIDTH 47 0
BBX 37 60 5 0
BITMAP
000FC07000
001FE07000
003FF8F000
003FFFF000
00787FE000
00783FE000
00780F8000
0000000000
0000000000
0000000000
0000000000
0000000000
0000000000
FE000000F8
FE000000F8
FF000000F8
FF800000F8
FF800000F8
FFC00000F8
FFE00000F8
FFE00000F8
FFF00000F8
FFF80000F8
FFF80000F8
FDFC0000F8
FCFE0000F8
FCFE0000F8
FC7F0000F8
FC3F8000F8
FC3F8000F8
FC1FC000F8
FC0FE000F8
FC0FE000F8
FC07F000F8
FC03F800F8
FC03F800F8
FC01FC00F8
FC00FE00F8
FC00FE00F8
FC007F00F8
FC003F80F8
FC003F80F8
FC001FC0F8
FC000FE0F8
FC000FE0F8
FC0007F0F8
FC0003F8F8
FC0003F8F8
FC0001FCF8
FC0000FEF8
FC0000FEF8
FC00007FF8
FC00003FF8
FC00003FF8
FC00001FF8
FC00000FF8
FC000007F8
FC000007F8
FC000003F8
FC000001F8
ENDCHAR
STARTCHAR 00D2
ENCODING 210
SWIDTH 735 0
DWIDTH 49 0
BBX 42 63 3 0
BITMAP
001FC0000000
000FC0000000
0007E0000000
0003E0000000
0003F0000000
0001F0000000
0000F8000000
0000F8000000
00007C000000
00003E000000
00003E000000
00001F000000
000000000000
000000000000
000000000000
00001F000000
0003FFF80000
000FFFFE0000
003FFFFF8000
007FFFFFC000
00FFFFFFE000
01FF001FF000
03FC0007F800
07F80003FC00
0FF00001FE00
0FE00000FE00
1FC000007F00
1F8000003F00
3F8000003F80
3F0000001F80
3F0000001F80
7F0000001FC0
7E0000000FC0
7E0000000FC0
7E0000000FC0
7E0000000FC0
7E0000000FC0
FE0000000FC0
FC0000000FC0
FC0000000FC0
FC0000000FC0
FE0000000FC0
7E0000000FC0
7E0000000FC0
7E0000000FC0
7E0000000FC0
7E0000000FC0
7F0000001FC0
3F0000001F80
3F0000003F80
3F8000003F80
1F8000007F00
1FC000007F00
0FE00000FE00
0FF00001FE00
07F80003FC00
03FE000FF800
01FF803FF000
00FFFFFFE000
007FFFFFC000
003FFFFF8000
000FFFFE0000
0001FFF00000
ENDCHAR
STARTCHAR 00D3
ENCODING 211
SWIDTH 735 0
DWIDTH 49 0
BBX 42 63 3 0
BITMAP
0000007F0000
0000007E0000
000000FC0000
000000FC0000
000001F80000
000001F00000
000003E00000
000003E00000
000007C00000
000007800000
00000F800000
00001F000000
000000000000
000000000000
000000000000
00001F000000
0003FFF80000
000FFFFE0000
003FFFFF8000
007FFFFFC000
00FFFFFFE000
01FF001FF000
03FC0007F800
07F80003FC00
0FF00001FE00
0FE00000FE00
1FC000007F00
1F8000003F00
3F8000003F80
3F0000001F80
3F0000001F80
7F0000001FC0
7E0000000FC0
7E0000000FC0
7E0000000FC0
7E0000000FC0
7E0000000FC0
FE0000000FC0
FC0000000FC0
FC0000000FC0
FC0000000FC0
FE0000000FC0
7E0000000FC0
7E0000000FC0
7E0000000FC0
7E0000000FC0
7E0000000FC0
7F0000001FC0
3F0000001F80
3F0000003F80
3F8000003F80
1F8000007F00
1FC000007F00
0FE00000FE00
0FF00001FE00
07F80003FC00
03FE000FF800
01FF803FF000
00FFFFFFE000
007FFFFFC000
003FFFFF8000
000FFFFE0000
0001FFF00000
ENDCHAR
STARTCHAR 00D4
ENCODING 212
SWIDTH 735 0
DWIDTH 49 0
BBX 42 61 3 0
BITMAP
00001F000000
00003F800000
00007FC00000
0000FFE00000
0001FBF00000
0003F1F80000
0007E0FC0000
000FC07E0000
000F803F0000
001F001F0000
000000000000
000000000000
000000000000
00001F000000
0003FFF80000
000FFFFE0000
003FFFFF8000
007FFFFFC000
00FFFFFFE000
01FF001FF000
03FC0007F800
07F80003FC00
0FF00001FE00
0FE00000FE00
1FC000007F00
1F8000003F00
3F8000003F80
3F0000001F80
3F0000001F80
7F0000001FC0
7E0000000FC0
7E0000000FC0
7E0000000FC0
7E0000000FC0
7E0000000FC0
FE0000000FC0
FC0000000FC0
FC0000000FC0
FC0000000FC0
FE0000000FC0
7E0000000FC0
7E0000000FC0
7E0000000FC0
7E0000000FC0
7E0000000FC0
7F0000001FC0
3F0000001F80
3F0000003F80
3F8000003F80
1F8000007F00
1FC000007F00
0FE00000FE00
0FF00001FE00
07F80003FC00
03FE000FF800
01FF803FF000
00FFFFFFE000
007FFFFFC000
003FFFFF8000
000FFFFE0000
0001FFF00000
ENDCHAR
STARTCHAR 00D5
ENCODING 213
SWIDTH 735 0
DWIDTH 49 0
BBX 42 60 3 0
BITMAP
0001F00E0000
0003FC1E0000
0007FF1E0000
000FFFFC0000
000F0FFC0000
000F07F80000
000E01F00000
000000000000
000000000000
000000000000
000000000000
000000000000
00001F000000
0003FFF80000
000FFFFE0000
003FFFFF8000
007FFFFFC000
00FFFFFFE000
01FF001FF000
03FC0007F800
07F80003FC00
0FF00001FE00
0FE00000FE00
1FC000007F00
1F8000003F00
3F8000003F80
3F0000001F80
3F0000001F80
7F0000001FC0
7E0000000FC0
7E0000000FC0
7E0000000FC0
7E0000000FC0
7E0000000FC0
FE0000000FC0
FC0000000FC0
FC0000000FC0
FC0000000FC0
FE0000000FC0
7E0000000FC0
7E0000000FC0
7E0000000FC0
7E0000000FC0
7E0000000FC0
7F0000001FC0
3F0000001F80
3F0000003F80
3F8000003F80
1F8000007F00
1FC000007F00
0FE00000FE00
0FF00001FE00
07F80003FC00
03FE000FF800
01FF803FF000
00FFFFFFE000
007FFFFFC000
003FFFFF8000
000FFFFE0000
0001FFF00000
ENDCHAR
STARTCHAR 00D6
ENCODING 214
SWIDTH 735 0
DWIDTH 49 0
BBX 42 61 3 0
BITMAP
000300180000
000FC07E0000
000FE07F0000
001FE0FF0000
001FE0FF0000
000FE07F0000
000FC07E0000
0003801C0000
000000000000
000000000000
000000000000
000000000000
000000000000
00001F000000
0003FFF80000
000FFFFE0000
003FFFFF8000
007FFFFFC000
00FFFFFFE000
01FF001FF000
03FC0007F800
07F80003FC00
0FF00001FE00
0FE00000FE00
1FC000007F00
1F8000003F00
3F8000003F80
3F0000001F80
3F0000001F80
7F0000001FC0
7E0000000FC0
7E0000000FC0
7E0000000FC0
7E0000000FC0
7E0000000FC0
FE0000000FC0
FC0000000FC0
FC0000000FC0
FC0000000FC0
FE0000000FC0
7E0000000FC0
7E0000000FC0
7E0000000FC0
7E0000000FC0
7E0000000FC0
7F0000001FC0
3F0000001F80
3F0000003F80
3F8000003F80
1F8000007F00
1FC000007F00
0FE00000FE00
0FF00001FE00
07F80003FC00
03FE000FF800
01FF803FF000
00FFFFFFE000
007FFFFFC000
003FFFFF8000
000FFFFE0000
0001FFF00000
ENDCHAR
STARTCHAR 00D7
ENCODING 215
SWIDTH 540 0
DWIDTH 36 0
BBX 21 21 8 11
BITMAP
300060
7800F0
FC01F8
FE03F8
7F07F0
3FCFE0
1FFFC0
0FFF80
07FF00
03FE00
01FC00
03FE00
07FF00
0FFF80
1FDFC0
3F8FE0
7F07F0
FE03F8
FC01F8
7800F0
300060
ENDCHAR
STARTCHAR 00D8
ENCODING 216
SWIDTH 735 0
DWIDTH 49 0
BBX 42 53 4 -3
BITMAP
000000001F00
000000003F00
00003F007E00
0007FFF07C00
001FFFFCFC00
007FFFFFF800
00FFFFFFF000
01FFFFFFF000
03FF003FF000
07FC000FF800
0FF0000FF800
1FE0000FFC00
1FC0001FFE00
3F80003FFE00
3F80003E7E00
3F00007E7F00
7F0000FC3F00
7E0000F83F80
7E0001F81F80
FE0001F01F80
FC0003E01F80
FC0007E01F80
FC0007C01F80
FC000F800FC0
FC001F800FC0
FC001F000FC0
FC003F000FC0
FC007E000FC0
FC007C000FC0
FC00FC001FC0
FC00F8001FC0
FC01F0001F80
FC03F0001F80
FE03E0001F80
7E07C0003F80
7E0FC0003F80
7F0F80003F00
3F1F80007F00
3FBF00007E00
3FBE0000FE00
1FFE0001FC00
0FFC0003FC00
0FF80007F800
07FC000FF000
03FF007FF000
03FFFFFFE000
07FFFFFF8000
07FFFFFF0000
0F9FFFFC0000
1F83FFE00000
1F0000000000
3F0000000000
7E0000000000
ENDCHAR
STARTCHAR 00D9
ENCODING 217
SWIDTH 675 0
DWIDTH 45 0
BBX 37 64 4 -1
BITMAP
007E000000
003E000000
003F000000
001F800000
000F800000
000FC00000
0007C00000
0003E00000
0003E00000
0001F00000
0000F00000
0000F80000
0000000000
0000000000
0000000000
0000000000
FC000000F8
FC000000F8
FC000000F8
FC000000F8
FC000000F8
FC000000F8
FC000000F8
FC000000F8
FC000000F8
FC000000F8
FC000000F8
FC000000F8
FC000000F8
FC000000F8
FC000000F8
FC000000F8
FC000000F8
FC000000F8
FC000000F8
FC000000F8
FC000000F8
FC000000F8
FC000000F8
FC000000F8
FC000000F8
FC000000F8
FC000000F8
FC000001F8
FC000001F8
FC000001F8
7C000001F8
7E000001F8
7E000001F8
7E000003F8
7E000003F0
3F000003F0
3F000007F0
3F800007E0
1F80000FE0
1FC0001FC0
0FF0003FC0
07FC01FF80
07FFFFFF00
01FFFFFE00
00FFFFFC00
007FFFF000
000FFFC000
0000300000
ENDCHAR
STARTCHAR 00DA
ENCODING 218
SWIDTH 675 0
DWIDTH 45 0
BBX 37 64 4 -1
BITMAP
000001F800
000003F000
000003F000
000007E000
000007C000
00000F8000
00000F8000
00001F0000
00003E0000
00003E0000
00007C0000
0000780000
0000000000
0000000000
0000000000
0000000000
FC000000F8
FC000000F8
FC000000F8
FC000000F8
FC000000F8
FC000000F8
FC000000F8
FC000000F8
FC000000F8
FC000000F8
FC000000F8
FC000000F8
FC000000F8
FC000000F8
FC000000F8
FC000000F8
FC000000F8
FC000000F8
FC000000F8
FC000000F8
FC000000F8
FC000000F8
FC000000F8
FC000000F8
FC000000F8
FC000000F8
FC000000F8
FC000001F8
FC000001F8
FC000001F8
7C000001F8
7E000001F8
7E000001F8
7E000003F8
7E000003F0
3F000003F0
3F000007F0
3F800007E0
1F80000FE0
1FC0001FC0
0FF0003FC0
07FC01FF80
07FFFFFF00
01FFFFFE00
00FFFFFC00
007FFFF000
000FFFC000
0000300000
ENDCHAR
STARTCHAR 00DB
ENCODING 219
SWIDTH 675 0
DWIDTH 45 0
BBX 37 62 4 -1
BITMAP
0000FC0000
0001FE0000
0003FE0000
0007FF0000
0007CF8000
000F8FC000
001F07E000
003F03F000
007E01F800
00FC00FC00
0000000000
0000000000
0000000000
0000000000
FC000000F8
FC000000F8
FC000000F8
FC000000F8
FC000000F8
FC000000F8
FC000000F8
FC000000F8
FC000000F8
FC000000F8
FC000000F8
FC000000F8
FC000000F8
FC000000F8
FC000000F8
FC000000F8
FC000000F8
FC000000F8
FC000000F8
FC000000F8
FC000000F8
FC000000F8
FC000000F8
FC000000F8
FC000000F8
FC000000F8
FC000000F8
FC000001F8
FC000001F8
FC000001F8
7C000001F8
7E000001F8
7E000001F8
7E000003F8
7E000003F0
3F000003F0
3F000007F0
3F800007E0
1F80000FE0
1FC0001FC0
0FF0003FC0
07FC01FF80
07FFFFFF00
01FFFFFE00
00FFFFFC00
007FFFF000
000FFFC000
0000300000
ENDCHAR
STARTCHAR 00DC
ENCODING 220
SWIDTH 675 0
DWIDTH 45 0
BBX 37 62 4 -1
BITMAP
0018004000
003E01F000
007F03F800
007F03F800
007F03F800
007F03F800
003E01F000
001C00E000
0000000000
0000000000
0000000000
0000000000
0000000000
0000000000
FC000000F8
FC000000F8
FC000000F8
FC000000F8
FC000000F8
FC000000F8
FC000000F8
FC000000F8
FC000000F8
FC000000F8
FC000000F8
FC000000F8
FC000000F8
FC000000F8
FC000000F8
FC000000F8
FC000000F8
FC000000F8
FC000000F8
FC000000F8
FC000000F8
FC000000F8
FC000000F8
FC000000F8
FC000000F8
FC000000F8
FC000000F8
FC000001F8
FC000001F8
FC000001F8
7C000001F8
7E000001F8
7E000001F8
7E000003F8
7E000003F0
3F000003F0
3F000007F0
3F800007E0
1F80000FE0
1FC0001FC0
0FF0003FC0
07FC01FF80
07FFFFFF00
01FFFFFE00
00FFFFFC00
007FFFF000
000FFFC000
0000300000
ENDCHAR
STARTCHAR 00DD
ENCODING 221
SWIDTH 600 0
DWIDTH 40 0
BBX 36 63 2 0
BITMAP
000003F000
000003F000
000007E000
000007C000
00000FC000
00000F8000
00001F0000
00003F0000
00003E0000
00007C0000
00007C0000
0000F80000
0000000000
0000000000
0000000000
0000000000
FE000003F0
7E000003F0
7F000007E0
3F000007E0
3F80000FC0
1F80000FC0
1FC0001F80
0FC0001F80
0FE0003F00
07E0003F00
07F0007E00
03F0007E00
03F800FC00
01F800FC00
01FC01F800
00FC01F800
007E03F000
007E03F000
003F07E000
003F07E000
001F8FC000
001F8FC000
000FDF8000
000FDF8000
0007FF0000
0007FF0000
0003FE0000
0003FE0000
0001FC0000
0001FC0000
0001F80000
0001F80000
0001F80000
0001F80000
0001F80000
0001F80000
0001F80000
0001F80000
0001F80000
0001F80000
0001F80000
0001F80000
0001F80000
0001F80000
0001F80000
0001F80000
0001F80000
ENDCHAR
STARTCHAR 00DE
ENCODING 222
SWIDTH 585 0
DWIDTH 39 0
BBX 32 47 5 0
BITMAP
FC000000
FC000000
FC000000
FC000000
FC000000
FC000000
FC000000
FC000000
FFFFC000
FFFFFE00
FFFFFF80
FFFFFFC0
FFFFFFF0
FFFFFFF8
FC000FF8
FC0001FC
FC0000FC
FC00007E
FC00007E
FC00003E
FC00003F
FC00003F
FC00003F
FC00003F
FC00003F
FC00003F
FC00003F
FC00003F
FC00003E
FC00007E
FC0000FE
FC0001FC
FC0003FC
FC001FF8
FFFFFFF0
FFFFFFE0
FFFFFFC0
FFFFFF00
FFFFF000
FC000000
FC000000
FC000000
FC000000
FC000000
FC000000
FC000000
FC000000
ENDCHAR
STARTCHAR 00DF
ENCODING 223
SWIDTH 555 0
DWIDTH 37 0
BBX 29 49 5 -1
BITMAP
001F0000
01FFF800
07FFFE00
0FFFFF00
1FFFFF80
1FE07FC0
3F800FE0
3F0007E0
7E0003F0
7C0003F0
7C0003F0
FC0001F0
FC0001F0
FC0001F0
FC0001F0
FC0003F0
FC0003F0
FC0003E0
FC0007E0
FC001FC0
FC007F80
FC3FFF00
FC3FFC00
FC3FF800
FC3FFE00
FC01FF80
FC001FC0
FC0007E0
FC0003F0
FC0001F0
FC0001F8
FC0000F8
FC0000F8
FC0000F8
FC0000F8
FC0000F8
FC0000F8
FC0000F8
FC0001F8
FC0001F8
FC0003F0
FC0007F0
FC001FE0
FC19FFC0
FC1FFFC0
FC1FFF00
FC1FFE00
FC1FF800
00020000
ENDCHAR
STARTCHAR 00E0
ENCODING 224
SWIDTH 615 0
DWIDTH 41 0
BBX 33 52 3 0
BITMAP
01F8000000
00FC000000
00FC000000
007E000000
003E000000
003F000000
001F000000
000F800000
000FC00000
0007C00000
0003E00000
0003E00000
0000000000
0000000000
0000000000
0000000000
001FE00000
00FFFC1F80
01FFFE1F80
03FFFF1F80
07FFFF9F80
0FF80FDF80
1FE003DF80
1FC001FF80
3F8000FF80
3F00007F80
7F00003F80
7E00003F80
7E00003F80
7E00001F80
FC00001F80
FC00001F80
FC00001F80
FC00001F80
FC00001F80
FC00001F80
FC00001F80
FC00001F80
FC00001F80
7E00001F80
7E00003F80
7E00003F80
7F00007F80
3F80007F80
3F8000FF80
1FC001FF80
1FF007DF80
0FFF7F9F80
07FFFF1F80
03FFFE1F80
01FFFC1F80
007FF01F80
ENDCHAR
STARTCHAR 00E1
ENCODING 225
SWIDTH 615 0
DWIDTH 41 0
BBX 33 52 3 0
BITMAP
000003F000
000007E000
000007C000
00000FC000
00001F8000
00001F0000
00003F0000
00003E0000
00007C0000
00007C0000
0000F80000
0000F00000
0000000000
0000000000
0000000000
0000000000
001FE00000
00FFFC1F80
01FFFE1F80
03FFFF1F80
07FFFF9F80
0FF80FDF80
1FE003DF80
1FC001FF80
3F8000FF80
3F00007F80
7F00003F80
7E00003F80
7E00003F80
7E00001F80
FC00001F80
FC00001F80
FC00001F80
FC00001F80
FC00001F80
FC00001F80
FC00001F80
FC00001F80
FC00001F80
7E00001F80
7E00003F80
7E00003F80
7F00007F80
3F80007F80
3F8000FF80
1FC001FF80
1FF007DF80
0FFF7F9F80
07FFFF1F80
03FFFE1F80
01FFFC1F80
007FF01F80
ENDCHAR
STARTCHAR 00E2
ENCODING 226
SWIDTH 615 0
DWIDTH 41 0
BBX 33 49 3 0
BITMAP
0003F80000
0007FC0000
000FFC0000
000FBE0000
001F3F0000
003E1F8000
007E0FC000
00FC07E000
01F803F000
0000000000
0000000000
0000000000
0000000000
001FE00000
00FFFC1F80
01FFFE1F80
03FFFF1F80
07FFFF9F80
0FF80FDF80
1FE003DF80
1FC001FF80
3F8000FF80
3F00007F80
7F00003F80
7E00003F80
7E00003F80
7E00001F80
FC00001F80
FC00001F80
FC00001F80
FC00001F80
FC00001F80
FC00001F80
FC00001F80
FC00001F80
FC00001F80
7E00001F80
7E00003F80
7E00003F80
7F00007F80
3F80007F80
3F8000FF80
1FC001FF80
1FF007DF80
0FFF7F9F80
07FFFF1F80
03FFFE1F80
01FFFC1F80
007FF01F80
ENDCHAR
STARTCHAR 00E3
ENCODING 227
SWIDTH 615 0
DWIDTH 41 0
BBX 33 49 3 0
BITMAP
000E01E000
003F81E000
007FE1E000
007FF3E000
00F1FFC000
00F0FFC000
00E03F8000
00E00E0000
0000000000
0000000000
0000000000
0000000000
0000000000
001FE00000
00FFFC1F80
01FFFE1F80
03FFFF1F80
07FFFF9F80
0FF80FDF80
1FE003DF80
1FC001FF80
3F8000FF80
3F00007F80
7F00003F80
7E00003F80
7E00003F80
7E00001F80
FC00001F80
FC00001F80
FC00001F80
FC00001F80
FC00001F80
FC00001F80
FC00001F80
FC00001F80
FC00001F80
7E00001F80
7E00003F80
7E00003F80
7F00007F80
3F80007F80
3F8000FF80
1FC001FF80
1FF007DF80
0FFF7F9F80
07FFFF1F80
03FFFE1F80
01FFFC1F80
007FF01F80
ENDCHAR
STARTCHAR 00E4
ENCODING 228
SWIDTH 615 0
DWIDTH 41 0
BBX 33 49 3 0
BITMAP
007803C000
00FC07E000
01FE0FF000
01FE0FF000
01FE0FF000
00FC07E000
007803C000
0000000000
0000000000
0000000000
0000000000
0000000000
0000000000
001FE00000
00FFFC1F80
01FFFE1F80
03FFFF1F80
07FFFF9F80
0FF80FDF80
1FE003DF80
1FC001FF80
3F8000FF80
3F00007F80
7F00003F80
7E00003F80
7E00003F80
7E00001F80
FC00001F80
FC00001F80
FC00001F80
FC00001F80
FC00001F80
FC00001F80
FC00001F80
FC00001F80
FC00001F80
7E00001F80
7E00003F80
7E00003F80
7F00007F80
3F80007F80
3F8000FF80
1FC001FF80
1FF007DF80
0FFF7F9F80
07FFFF1F80
03FFFE1F80
01FFFC1F80
007FF01F80
ENDCHAR
STARTCHAR 00E5
ENCODING 229
SWIDTH 615 0
DWIDTH 41 0
BBX 33 52 3 0
BITMAP
0003F80000
0007FC0000
000F1C0000
000E0E0000
000C0E0000
000C0E0000
000C0E0000
000E0E0000
000FFC0000
0007F80000
0001F00000
0000000000
0000000000
0000000000
0000000000
0000000000
001FE00000
00FFFC1F80
01FFFE1F80
03FFFF1F80
07FFFF9F80
0FF80FDF80
1FE003DF80
1FC001FF80
3F8000FF80
3F00007F80
7F00003F80
7E00003F80
7E00003F80
7E00001F80
FC00001F80
FC00001F80
FC00001F80
FC00001F80
FC00001F80
FC00001F80
FC00001F80
FC00001F80
FC00001F80
7E00001F80
7E00003F80
7E00003F80
7F00007F80
3F80007F80
3F8000FF80
1FC001FF80
1FF007DF80
0FFF7F9F80
07FFFF1F80
03FFFE1F80
01FFFC1F80
007FF01F80
ENDCHAR
STARTCHAR 00E6
ENCODING 230
SWIDTH 930 0
DWIDTH 62 0
BBX 56 36 3 0
BITMAP
001FE0000FF800
00FFFC003FFF00
01FFFE00FFFFC0
07FFFF81FFFFE0
0FFFFF83FFFFF0
0FE00FC7F007F8
1FC007E7E001F8
3F8003EF8000FC
3F0001FF80007C
3E0001FF00007E
7E0000FE00003E
000000FE00003E
000000FE00003F
000000FC00003F
000000FC00001F
000000FC00001F
003FFFFFFFFFFF
01FFFFFFFFFFFF
0FFFFFFFFFFFFF
1FFFFFFFFFFFFF
3FC000FC000000
7F0000FC000000
7E0000FC000000
7E0000FC000000
7C0000FE000000
FC0000FE00003F
FC0001FF00003E
7C0001FF00007E
7E0003DF8000FE
7E0007CFC001FC
7F000F8FF003F8
3FC07F07FE3FF0
1FFFFE03FFFFF0
0FFFFC01FFFFC0
07FFF8007FFF80
01FFE0001FFE00
ENDCHAR
STARTCHAR 00E7
ENCODING 231
SWIDTH 570 0
DWIDTH 38 0
BBX 32 52 3 -16
BITMAP
000FFC00
003FFF00
00FFFFC0
03FFFFE0
07FFFFF0
0FF807F8
0FE001FC
1FC000FC
1F80007E
3F00007E
3F00003F
7E00003F
7E00001F
7E00001F
7E000000
7C000000
FC000000
FC000000
FC000000
FC000000
7C000000
7C000000
7E000000
7E00001F
7E00003F
3F00003F
3F00003F
3F80007E
1FC000FE
1FE001FC
0FF003F8
07FF3FF8
03FFFFF0
01FFFFE0
007FFF80
001FFE00
0001E000
0001C000
0001C000
0003C000
0003FE00
0003FF00
0007FF80
000003C0
000003C0
000001C0
000001C0
000003C0
00000780
0003FF80
0003FF00
0003FC00
ENDCHAR
STARTCHAR 00E8
ENCODING 232
SWIDTH 570 0
DWIDTH 38 0
BBX 32 52 3 0
BITMAP
01F80000
01F80000
00FC0000
007C0000
007E0000
003E0000
001F0000
001F0000
000F8000
0007C000
0007C000
0003E000
00000000
00000000
00000000
00000000
000FF800
007FFF00
00FFFFC0
03FFFFE0
07FF7FF0
0FF007F8
0FC001FC
1F8000FC
1F80007E
3F00007E
3E00003E
7E00003F
7E00003F
7E00001F
7C00001F
7C00001F
FFFFFFFF
FFFFFFFF
FFFFFFFF
FFFFFFFF
7C000000
7C000000
7C000000
7E000000
7E000000
3E00003F
3F00003F
3F00007E
1F8000FE
1FC001FC
0FF003F8
07FE3FF8
03FFFFF0
01FFFFC0
007FFF80
001FFE00
ENDCHAR
STARTCHAR 00E9
ENCODING 233
SWIDTH 570 0
DWIDTH 38 0
BBX 32 52 3 0
BITMAP
000007E0
000007E0
00000FC0
00001F80
00001F80
00003F00
00003E00
00007C00
00007C00
0000F800
0000F000
0001F000
00000000
00000000
00000000
00000000
000FF800
007FFF00
00FFFFC0
03FFFFE0
07FF7FF0
0FF007F8
0FC001FC
1F8000FC
1F80007E
3F00007E
3E00003E
7E00003F
7E00003F
7E00001F
7C00001F
7C00001F
FFFFFFFF
FFFFFFFF
FFFFFFFF
FFFFFFFF
7C000000
7C000000
7C000000
7E000000
7E000000
3E00003F
3F00003F
3F00007E
1F8000FE
1FC001FC
0FF003F8
07FE3FF8
03FFFFF0
01FFFFC0
007FFF80
001FFE00
ENDCHAR
STARTCHAR 00EA
ENCODING 234
SWIDTH 570 0
DWIDTH 38 0
BBX 32 49 3 0
BITMAP
0003F000
0007F800
000FFC00
001FFE00
003F3F00
007E1F80
00FC0F80
01F807C0
01F003E0
02000010
00000000
00000000
00000000
000FF800
007FFF00
00FFFFC0
03FFFFE0
07FF7FF0
0FF007F8
0FC001FC
1F8000FC
1F80007E
3F00007E
3E00003E
7E00003F
7E00003F
7E00001F
7C00001F
7C00001F
FFFFFFFF
FFFFFFFF
FFFFFFFF
FFFFFFFF
7C000000
7C000000
7C000000
7E000000
7E000000
3E00003F
3F00003F
3F00007E
1F8000FE
1FC001FC
0FF003F8
07FE3FF8
03FFFFF0
01FFFFC0
007FFF80
001FFE00
ENDCHAR
STARTCHAR 00EB
ENCODING 235
SWIDTH 570 0
DWIDTH 38 0
BBX 32 49 3 0
BITMAP
00F807C0
01FC0FE0
01FC0FE0
01FC0FE0
01FC0FE0
01FC0FE0
00F807C0
00000000
00000000
00000000
00000000
00000000
00000000
000FF800
007FFF00
00FFFFC0
03FFFFE0
07FF7FF0
0FF007F8
0FC001FC
1F8000FC
1F80007E
3F00007E
3E00003E
7E00003F
7E00003F
7E00001F
7C00001F
7C00001F
FFFFFFFF
FFFFFFFF
FFFFFFFF
FFFFFFFF
7C000000
7C000000
7C000000
7E000000
7E000000
3E00003F
3F00003F
3F00007E
1F8000FE
1FC001FC
0FF003F8
07FE3FF8
03FFFFF0
01FFFFC0
007FFF80
001FFE00
ENDCHAR
STARTCHAR 00EC
ENCODING 236
SWIDTH 240 0
DWIDTH 16 0
BBX 13 52 -2 0
BITMAP
FC00
7E00
7E00
3F00
1F00
1F80
0F80
07C0
07C0
03E0
01F0
01F0
0000
0000
0000
0000
0000
01F8
01F8
01F8
01F8
01F8
01F8
01F8
01F8
01F8
01F8
01F8
01F8
01F8
01F8
01F8
01F8
01F8
01F8
01F8
01F8
01F8
01F8
01F8
01F8
01F8
01F8
01F8
01F8
01F8
01F8
01F8
01F8
01F8
01F8
01F8
ENDCHAR
STARTCHAR 00ED
ENCODING 237
SWIDTH 240 0
DWIDTH 16 0
BBX 14 52 5 0
BITMAP
00FC
01F8
03F0
03F0
07E0
07C0
0FC0
0F80
1F00
1F00
3E00
3C00
0000
0000
0000
0000
0000
FC00
FC00
FC00
FC00
FC00
FC00
FC00
FC00
FC00
FC00
FC00
FC00
FC00
FC00
FC00
FC00
FC00
FC00
FC00
FC00
FC00
FC00
FC00
FC00
FC00
FC00
FC00
FC00
FC00
FC00
FC00
FC00
FC00
FC00
FC00
ENDCHAR
STARTCHAR 00EE
ENCODING 238
SWIDTH 240 0
DWIDTH 16 0
BBX 21 49 -2 0
BITMAP
01FC00
03FC00
07FE00
0FFF00
0F9F80
1F0FC0
3E07E0
7E03F0
FC01F8
000000
000000
000000
000000
000000
01F800
01F800
01F800
01F800
01F800
01F800
01F800
01F800
01F800
01F800
01F800
01F800
01F800
01F800
01F800
01F800
01F800
01F800
01F800
01F800
01F800
01F800
01F800
01F800
01F800
01F800
01F800
01F800
01F800
01F800
01F800
01F800
01F800
01F800
01F800
ENDCHAR
STARTCHAR 00EF
ENCODING 239
SWIDTH 240 0
DWIDTH 16 0
BBX 21 49 -2 0
BITMAP
3C01E0
7E03F0
FF07F8
FF07F8
FF07F8
7E03F0
3C01E0
000000
000000
000000
000000
000000
000000
000000
01F800
01F800
01F800
01F800
01F800
01F800
01F800
01F800
01F800
01F800
01F800
01F800
01F800
01F800
01F800
01F800
01F800
01F800
01F800
01F800
01F800
01F800
01F800
01F800
01F800
01F800
01F800
01F800
01F800
01F800
01F800
01F800
01F800
01F800
01F800
ENDCHAR
STARTCHAR 00F0
ENCODING 240
SWIDTH 600 0
DWIDTH 40 0
BBX 33 53 3 0
BITMAP
000C000000
000FE00600
000FF81E00
000FFE7F00
000FFFFE00
0000FFF800
00003FE000
00003FF000
00007FF000
0001FFF800
0001F1FC00
0001E0FC00
0000807E00
0000007E00
0000003E00
0000003F00
0000003F00
003FE03F00
00FFF81F00
03FFFE1F00
07FFFF1F80
0FFFFF9F80
1FF00F9F80
1FC003DF80
3F8001FF80
3F0000FF80
7F00007F80
7E00007F80
7E00003F80
FC00003F80
FC00003F80
FC00001F80
FC00001F80
FC00001F80
FC00001F80
FC00001F80
FC00001F80
FC00001F80
FC00001F00
FC00003F00
FC00003F00
7E00003F00
7E00007E00
7F00007E00
3F0000FE00
3F8001FC00
1FC003F800
0FF007F800
0FFF7FF000
07FFFFE000
01FFFFC000
00FFFF0000
003FFC0000
ENDCHAR
STARTCHAR 00F1
ENCODING 241
SWIDTH 600 0
DWIDTH 40 0
BBX 31 49 5 0
BITMAP
00380780
00FE0780
01FF8780
01FFCF80
03C7FF00
03C3FF00
0380FE00
03803800
00000000
00000000
00000000
00000000
00000000
0003FC00
FC1FFF80
FC3FFFC0
FC7FFFE0
FCFFFFF0
FDF81FF8
FDC007F8
FF8003FC
FF0001FC
FE0000FE
FE00007E
FC00007E
FC00007E
FC00007E
FC00007E
FC00003E
FC00003E
FC00003E
FC00003E
FC00003E
FC00003E
FC00003E
FC00003E
FC00003E
FC00003E
FC00003E
FC00003E
FC00003E
FC00003E
FC00003E
FC00003E
FC00003E
FC00003E
FC00003E
FC00003E
FC00003E
ENDCHAR
STARTCHAR 00F2
ENCODING 242
SWIDTH 585 0
DWIDTH 39 0
BBX 33 52 3 0
BITMAP
01F8000000
01F8000000
00FC000000
007C000000
007E000000
003E000000
001F000000
001F000000
000F800000
0007C00000
0007C00000
0003E00000
0000000000
0000000000
0000000000
0000000000
000FF80000
003FFF0000
00FFFFC000
01FFFFE000
07FFFFF000
07F807F800
0FE001FC00
1FC000FE00
1F80007E00
3F00007F00
3F00003F00
7E00003F00
7E00001F80
7E00001F80
7C00001F80
7C00001F80
FC00001F80
FC00000F80
FC00000F80
FC00001F80
7C00001F80
7C00001F80
7E00001F80
7E00001F80
7E00003F00
3F00003F00
3F00007F00
3F80007E00
1FC000FE00
0FE001FC00
0FF007F800
07FFFFF800
03FFFFF000
01FFFFC000
007FFF8000
001FFE0000
ENDCHAR
STARTCHAR 00F3
ENCODING 243
SWIDTH 585 0
DWIDTH 39 0
BBX 33 52 3 0
BITMAP
000007E000
000007E000
00000FC000
00001F8000
00001F8000
00003F0000
00003E0000
00007C0000
00007C0000
0000F80000
0000F00000
0001F00000
0000000000
0000000000
0000000000
0000000000
000FF80000
003FFF0000
00FFFFC000
01FFFFE000
07FFFFF000
07F807F800
0FE001FC00
1FC000FE00
1F80007E00
3F00007F00
3F00003F00
7E00003F00
7E00001F80
7E00001F80
7C00001F80
7C00001F80
FC00001F80
FC00000F80
FC00000F80
FC00001F80
7C00001F80
7C00001F80
7E00001F80
7E00001F80
7E00003F00
3F00003F00
3F00007F00
3F80007E00
1FC000FE00
0FE001FC00
0FF007F800
07FFFFF800
03FFFFF000
01FFFFC000
007FFF8000
001FFE0000
ENDCHAR
STARTCHAR 00F4
ENCODING 244
SWIDTH 585 0
DWIDTH 39 0
BBX 33 49 3 0
BITMAP
0003F00000
0007F80000
000FFC0000
001FFE0000
003F3F0000
007E1F8000
00FC0F8000
01F807C000
01F003E000
0200001000
0000000000
0000000000
0000000000
000FF80000
003FFF0000
00FFFFC000
01FFFFE000
07FFFFF000
07F807F800
0FE001FC00
1FC000FE00
1F80007E00
3F00007F00
3F00003F00
7E00003F00
7E00001F80
7E00001F80
7C00001F80
7C00001F80
FC00001F80
FC00000F80
FC00000F80
FC00001F80
7C00001F80
7C00001F80
7E00001F80
7E00001F80
7E00003F00
3F00003F00
3F00007F00
3F80007E00
1FC000FE00
0FE001FC00
0FF007F800
07FFFFF800
03FFFFF000
01FFFFC000
007FFF8000
001FFE0000
ENDCHAR
STARTCHAR 00F5
ENCODING 245
SWIDTH 585 0
DWIDTH 39 0
BBX 33 49 3 0
BITMAP
001E01C000
007F81C000
007FC1C000
00FFF3C000
00F3FFC000
01E0FF8000
01E07F0000
01E00C0000
0000000000
0000000000
0000000000
0000000000
0000000000
000FF80000
003FFF0000
00FFFFC000
01FFFFE000
07FFFFF000
07F807F800
0FE001FC00
1FC000FE00
1F80007E00
3F00007F00
3F00003F00
7E00003F00
7E00001F80
7E00001F80
7C00001F80
7C00001F80
FC00001F80
FC00000F80
FC00000F80
FC00001F80
7C00001F80
7C00001F80
7E00001F80
7E00001F80
7E00003F00
3F00003F00
3F00007F00
3F80007E00
1FC000FE00
0FE001FC00
0FF007F800
07FFFFF800
03FFFFF000
01FFFFC000
007FFF8000
001FFE0000
ENDCHAR
STARTCHAR 00F6
ENCODING 246
SWIDTH 585 0
DWIDTH 39 0
BBX 33 49 3 0
BITMAP
00F807C000
01FC0FE000
01FC0FE000
01FC0FE000
01FC0FE000
01FC0FE000
00F807C000
0000000000
0000000000
0000000000
0000000000
0000000000
0000000000
000FF80000
003FFF0000
00FFFFC000
01FFFFE000
07FFFFF000
07F807F800
0FE001FC00
1FC000FE00
1F80007E00
3F00007F00
3F00003F00
7E00003F00
7E00001F80
7E00001F80
7C00001F80
7C00001F80
FC00001F80
FC00000F80
FC00000F80
FC00001F80
7C00001F80
7C00001F80
7E00001F80
7E00001F80
7E00003F00
3F00003F00
3F00007F00
3F80007E00
1FC000FE00
0FE001FC00
0FF007F800
07FFFFF800
03FFFFF000
01FFFFC000
007FFF8000
001FFE0000
ENDCHAR
STARTCHAR 00F7
ENCODING 247
SWIDTH 600 0
DWIDTH 40 0
BBX 26 32 5 5
BITMAP
000E0000
003F0000
003F8000
007F8000
007F8000
003F8000
003F0000
001E0000
00000000
00000000
00000000
00000000
00000000
00000000
FFFFFFC0
FFFFFFC0
FFFFFFC0
FFFFFFC0
FFFFFFC0
00000000
00000000
00000000
00000000
00000000
001E0000
003F0000
003F8000
007F8000
007F8000
003F8000
003F0000
000C0000
ENDCHAR
STARTCHAR 00F8
ENCODING 248
SWIDTH 585 0
DWIDTH 39 0
BBX 33 42 3 -3
BITMAP
0000003C00
0000007C00
0000007800
000FF8F800
003FFFF000
00FFFFF000
01FFFFE000
07FFFFF000
07F807F800
0FE007FC00
1FC00FFE00
1F800F7E00
3F001F7F00
3F001E3F00
7E003E3F00
7E003C1F80
7E007C1F80
7C00F81F80
7C00F01F80
FC01F01F80
FC01E00F80
FC03E00F80
FC03C01F80
7C07C01F80
7C07801F80
7E0F801F80
7E0F001F80
7E1E003F00
3F3E003F00
3F3C007F00
3FFC007E00
1FF800FE00
0FF801FC00
0FF807F800
07FFFFF000
03FFFFE000
03FFFFC000
07FFFF8000
079FFE0000
0F80000000
0F00000000
1F00000000
ENDCHAR
STARTCHAR 00F9
ENCODING 249
SWIDTH 600 0
DWIDTH 40 0
BBX 31 53 5 -1
BITMAP
0FC00000
07E00000
07E00000
03F00000
01F00000
01F80000
00F80000
007C0000
007C0000
003E0000
001F0000
001F0000
00000000
00000000
00000000
00000000
00000000
FC00007E
FC00007E
FC00007E
FC00007E
FC00007E
FC00007E
FC00007E
FC00007E
FC00007E
FC00007E
FC00007E
FC00007E
FC00007E
FC00007E
FC00007E
FC00007E
FC00007E
FC00007E
FC00007E
FC00007E
FC00007E
FC00007E
FC00007E
FC0000FE
FC0000FE
7E0000FE
7E0001FE
7F0003FE
3F80077E
3FE00F7E
1FFFFE7E
1FFFFC7E
0FFFF87E
03FFF07E
01FFC07E
001C0000
ENDCHAR
STARTCHAR 00FA
ENCODING 250
SWIDTH 600 0
DWIDTH 40 0
BBX 31 53 5 -1
BITMAP
00003F80
00003F00
00007E00
00007E00
0000FC00
0000F800
0001F800
0001F000
0003E000
0003E000
0007C000
000F8000
00000000
00000000
00000000
00000000
00000000
FC00007E
FC00007E
FC00007E
FC00007E
FC00007E
FC00007E
FC00007E
FC00007E
FC00007E
FC00007E
FC00007E
FC00007E
FC00007E
FC00007E
FC00007E
FC00007E
FC00007E
FC00007E
FC00007E
FC00007E
FC00007E
FC00007E
FC00007E
FC0000FE
FC0000FE
7E0000FE
7E0001FE
7F0003FE
3F80077E
3FE00F7E
1FFFFE7E
1FFFFC7E
0FFFF87E
03FFF07E
01FFC07E
001C0000
ENDCHAR
STARTCHAR 00FB
ENCODING 251
SWIDTH 600 0
DWIDTH 40 0
BBX 31 50 5 -1
BITMAP
001F8000
003FC000
007FE000
00FFF000
00F9F800
01F0FC00
03E07E00
07E03F00
0FC01F80
00000000
00000000
00000000
00000000
00000000
FC00007E
FC00007E
FC00007E
FC00007E
FC00007E
FC00007E
FC00007E
FC00007E
FC00007E
FC00007E
FC00007E
FC00007E
FC00007E
FC00007E
FC00007E
FC00007E
FC00007E
FC00007E
FC00007E
FC00007E
FC00007E
FC00007E
FC00007E
FC0000FE
FC0000FE
7E0000FE
7E0001FE
7F0003FE
3F80077E
3FE00F7E
1FFFFE7E
1FFFFC7E
0FFFF87E
03FFF07E
01FFC07E
001C0000
ENDCHAR
STARTCHAR 00FC
ENCODING 252
SWIDTH 600 0
DWIDTH 40 0
BBX 31 50 5 -1
BITMAP
03C01E00
07E03F00
0FE07F80
0FF07F80
0FE07F80
07E03F00
07C01E00
00000000
00000000
00000000
00000000
00000000
00000000
00000000
FC00007E
FC00007E
FC00007E
FC00007E
FC00007E
FC00007E
FC00007E
FC00007E
FC00007E
FC00007E
FC00007E
FC00007E
FC00007E
FC00007E
FC00007E
FC00007E
FC00007E
FC00007E
FC00007E
FC00007E
FC00007E
FC00007E
FC00007E
FC0000FE
FC0000FE
7E0000FE
7E0001FE
7F0003FE
3F80077E
3FE00F7E
1FFFFE7E
1FFFFC7E
0FFFF87E
03FFF07E
01FFC07E
001C0000
ENDCHAR
STARTCHAR 00FD
ENCODING 253
SWIDTH 525 0
DWIDTH 35 0
BBX 32 66 2 -14
BITMAP
00000FC0
00000FC0
00001F80
00001F00
00003F00
00007E00
00007C00
0000FC00
0000F800
0001F000
0001F000
0003E000
00000000
00000000
00000000
00000000
00000000
FC00003F
7E00003F
7E00007E
7E00007E
3F00007E
3F0000FC
1F0000FC
1F8001F8
1F8001F8
0F8001F0
0FC003F0
0FC003F0
07E003E0
07E007E0
03E007C0
03F00FC0
03F00FC0
01F00F80
01F81F80
00F81F00
00F81F00
00FC3F00
007C3E00
007C7E00
003E7C00
003E7C00
003FF800
001FF800
001FF800
001FF000
000FF000
000FE000
0007E000
0007E000
000FC000
000FC000
000F8000
001F8000
001F8000
003F0000
003F0000
007E0000
00FE0000
01FC0000
7FFC0000
7FF80000
7FF00000
7FC00000
0C000000
ENDCHAR
STARTCHAR 00FE
ENCODING 254
SWIDTH 615 0
DWIDTH 41 0
BBX 33 66 5 -16
BITMAP
FC00000000
FC00000000
FC00000000
FC00000000
FC00000000
FC00000000
FC00000000
FC00000000
FC00000000
FC00000000
FC00000000
FC00000000
FC00000000
FC00000000
FC03FC0000
FC1FFF8000
FC3FFFC000
FC7FFFF000
FCFFFFF800
FDF80FF800
FDE003FC00
FFC001FE00
FF8000FE00
FF00007F00
FF00007F00
FE00003F00
FE00003F00
FC00001F80
FC00001F80
FC00001F80
FC00001F80
FC00001F80
FC00001F80
FC00001F80
FC00001F80
FC00001F80
FC00001F80
FE00003F00
FE00003F00
FE00003F00
FF00007F00
FF00007E00
FF8000FE00
FFC001FC00
FDF007FC00
FCFF7FF800
FC7FFFF000
FC3FFFE000
FC1FFFC000
FC07FF0000
FC00000000
FC00000000
FC00000000
FC00000000
FC00000000
FC00000000
FC00000000
FC00000000
FC00000000
FC00000000
FC00000000
FC00000000
FC00000000
FC00000000
FC00000000
FC00000000
ENDCHAR
STARTCHAR 00FF
ENCODING 255
SWIDTH 525 0
DWIDTH 35 0
BBX 32 63 2 -14
BITMAP
01F00F80
03F81FC0
03F81FC0
03F81FC0
03F81FC0
03F81FC0
01F00F80
00000000
00000000
00000000
00000000
00000000
00000000
00000000
FC00003F
7E00003F
7E00007E
7E00007E
3F00007E
3F0000FC
1F0000FC
1F8001F8
1F8001F8
0F8001F0
0FC003F0
0FC003F0
07E003E0
07E007E0
03E007C0
03F00FC0
03F00FC0
01F00F80
01F81F80
00F81F00
00F81F00
00FC3F00
007C3E00
007C7E00
003E7C00
003E7C00
003FF800
001FF800
001FF800
001FF000
000FF000
000FE000
0007E000
0007E000
000FC000
000FC000
000F8000
001F8000
001F8000
003F0000
003F0000
007E0000
00FE0000
01FC0000
7FFC0000
7FF80000
7FF00000
7FC00000
0C000000
ENDCHAR
STARTCHAR 0100
ENCODING 256
SWIDTH 675 0
DWIDTH 45 0
BBX 40 56 3 0
BITMAP
003FFFFC00
003FFFFC00
003FFFFC00
0000000000
0000000000
0000000000
0000000000
0000000000
0000000000
00007C0000
0000FE0000
0000FE0000
0000FF0000
0001FF0000
0001FF0000
0001FF8000
0003FF8000
0003EFC000
0007EFC000
0007C7C000
0007C7E000
000FC3E000
000F83E000
000F83F000
001F81F000
001F01F800
003F01F800
003F00F800
003E00FC00
007E00FC00
007E007C00
007C007E00
00FC003E00
00F8003F00
01F8003F00
01F8001F00
01F0001F80
03F0001F80
03FFFFFF80
03FFFFFFC0
07FFFFFFC0
07FFFFFFE0
0FC00007E0
0FC00003E0
0F800003F0
1F800003F0
1F800001F0
1F000001F8
3F000001F8
3F000000FC
7E000000FC
7E0000007C
7E0000007E
FC0000007E
FC0000003F
F80000003F
ENDCHAR
STARTCHAR 0101
ENCODING 257
SWIDTH 615 0
DWIDTH 41 0
BBX 33 45 3 0
BITMAP
01FFFFE000
01FFFFE000
01FFFFE000
0000000000
0000000000
0000000000
0000000000
0000000000
0000000000
001FE00000
00FFFC1F80
01FFFE1F80
03FFFF1F80
07FFFF9F80
0FF80FDF80
1FE003DF80
1FC001FF80
3F8000FF80
3F00007F80
7F00003F80
7E00003F80
7E00003F80
7E00001F80
FC00001F80
FC00001F80
FC00001F80
FC00001F80
FC00001F80
FC00001F80
FC00001F80
FC00001F80
FC00001F80
7E00001F80
7E00003F80
7E00003F80
7F00007F80
3F80007F80
3F8000FF80
1FC001FF80
1FF007DF80
0FFF7F9F80
07FFFF1F80
03FFFE1F80
01FFFC1F80
007FF01F80
ENDCHAR
STARTCHAR 0102
ENCODING 258
SWIDTH 675 0
DWIDTH 45 0
BBX 40 59 3 0
BITMAP
007C003E00
007C007C00
003F01F800
001FFFF000
000FFFE000
0007FFC000
0000FE0000
0000000000
0000000000
0000000000
0000000000
0000000000
00007C0000
0000FE0000
0000FE0000
0000FF0000
0001FF0000
0001FF0000
0001FF8000
0003FF8000
0003EFC000
0007EFC000
0007C7C000
0007C7E000
000FC3E000
000F83E000
000F83F000
001F81F000
001F01F800
003F01F800
003F00F800
003E00FC00
007E00FC00
007E007C00
007C007E00
00FC003E00
00F8003F00
01F8003F00
01F8001F00
01F0001F80
03F0001F80
03FFFFFF80
03FFFFFFC0
07FFFFFFC0
07FFFFFFE0
0FC00007E0
0FC00003E0
0F800003F0
1F800003F0
1F800001F0
1F000001F8
3F000001F8
3F000000FC
7E000000FC
7E0000007C
7E0000007E
FC0000007E
FC0000003F
F80000003F
ENDCHAR
STARTCHAR 0103
ENCODING 259
SWIDTH 615 0
DWIDTH 41 0
BBX 33 48 3 0
BITMAP
03E000F800
01F001F000
01F803E000
00FE0FE000
007FFFC000
003FFF0000
000FFE0000
0000000000
0000000000
0000000000
0000000000
0000000000
001FE00000
00FFFC1F80
01FFFE1F80
03FFFF1F80
07FFFF9F80
0FF80FDF80
1FE003DF80
1FC001FF80
3F8000FF80
3F00007F80
7F00003F80
7E00003F80
7E00003F80
7E00001F80
FC00001F80
FC00001F80
FC00001F80
FC00001F80
FC00001F80
FC00001F80
FC00001F80
FC00001F80
FC00001F80
7E00001F80
7E00003F80
7E00003F80
7F00007F80
3F80007F80
3F8000FF80
1FC001FF80
1FF007DF80
0FFF7F9F80
07FFFF1F80
03FFFE1F80
01FFFC1F80
007FF01F80
ENDCHAR
STARTCHAR 0104
ENCODING 260
SWIDTH 675 0
DWIDTH 45 0
BBX 41 58 3 -11
BITMAP
00007C000000
0000FE000000
0000FE000000
0000FF000000
0001FF000000
0001FF000000
0001FF800000
0003FF800000
0003EFC00000
0007EFC00000
0007C7C00000
0007C7E00000
000FC3E00000
000F83E00000
000F83F00000
001F81F00000
001F01F80000
003F01F80000
003F00F80000
003E00FC0000
007E00FC0000
007E007C0000
007C007E0000
00FC003E0000
00F8003F0000
01F8003F0000
01F8001F0000
01F0001F8000
03F0001F8000
03FFFFFF8000
03FFFFFFC000
07FFFFFFC000
07FFFFFFE000
0FC00007E000
0FC00003E000
0F800003F000
1F800003F000
1F800001F000
1F000001F800
3F000001F800
3F000000FC00
7E000000FC00
7E0000007C00
7E0000007E00
FC0000007E00
FC0000003F00
F80000003F00
000000007C00
00000000F800
00000000F000
00000001E000
00000001E000
00000001E000
00000001F000
00000000FF80
00000000FF80
000000007F80
000000001F80
ENDCHAR
STARTCHAR 0105
ENCODING 261
SWIDTH 615 0
DWIDTH 41 0
BBX 36 47 3 -11
BITMAP
001FE00000
00FFFC1F80
01FFFE1F80
03FFFF1F80
07FFFF9F80
0FF80FDF80
1FE003DF80
1FC001FF80
3F8000FF80
3F00007F80
7F00003F80
7E00003F80
7E00003F80
7E00001F80
FC00001F80
FC00001F80
FC00001F80
FC00001F80
FC00001F80
FC00001F80
FC00001F80
FC00001F80
FC00001F80
7E00001F80
7E00003F80
7E00003F80
7F00007F80
3F80007F80
3F8000FF80
1FC001FF80
1FF007DF80
0FFF7F9F80
07FFFF1F80
03FFFE1F80
01FFFC1F80
007FF01F80
0000001F00
0000001E00
0000003C00
0000003C00
0000007C00
0000007C00
0000003C00
0000003FF0
0000001FF0
0000000FF0
00000003E0
ENDCHAR
STARTCHAR 0106
ENCODING 262
SWIDTH 705 0
DWIDTH 47 0
BBX 40 63 4 0
BITMAP
000000FC00
000001F800
000001F800
000003F000
000003E000
000007E000
000007C000
00000F8000
00001F8000
00001F0000
00003E0000
00003C0000
0000000000
0000000000
0000000000
00003F0000
0007FFF000
001FFFFC00
007FFFFF00
00FFFFFF80
01FFFFFFC0
03FE003FE0
07F8000FF0
0FF00003F8
1FE00001FC
1FC00000FC
3F800000FE
3F0000007E
3F0000003F
7E0000003F
7E0000003F
7E0000001F
FC00000000
FC00000000
FC00000000
FC00000000
FC00000000
FC00000000
FC00000000
FC00000000
FC00000000
FC00000000
FC00000000
FC00000000
FC00000000
FC00000000
FE00000000
7E00000000
7E0000003F
7F0000003F
3F0000003E
3F8000007E
3F800000FE
1FC00001FC
0FE00003F8
0FF00007F8
07F8000FF0
03FF007FE0
01FFFFFFC0
00FFFFFF80
003FFFFF00
001FFFFC00
0003FFE000
ENDCHAR
STARTCHAR 0107
ENCODING 263
SWIDTH 570 0
DWIDTH 38 0
BBX 32 52 3 0
BITMAP
000007E0
000007E0
00000FC0
00000F80
00001F80
00003F00
00003E00
00007E00
00007C00
0000F800
0000F800
0001F000
00000000
00000000
00000000
00000000
000FFC00
003FFF00
00FFFFC0
03FFFFE0
07FFFFF0
0FF807F8
0FE001FC
1FC000FC
1F80007E
3F00007E
3F00003F
7E00003F
7E00001F
7E00001F
7E000000
7C000000
FC000000
FC000000
FC000000
FC000000
7C000000
7C000000
7E000000
7E00001F
7E00003F
3F00003F
3F00003F
3F80007E
1FC000FE
1FE001FC
0FF003F8
07FF3FF8
03FFFFF0
01FFFFE0
007FFF80
001FFE00
ENDCHAR
STARTCHAR 010A
ENCODING 266
SWIDTH 705 0
DWIDTH 47 0
BBX 40 61 4 0
BITMAP
0000180000
00007E0000
0000FE0000
0000FF0000
0000FF0000
0000FE0000
00007E0000
0000380000
0000000000
0000000000
0000000000
0000000000
0000000000
00003F0000
0007FFF000
001FFFFC00
007FFFFF00
00FFFFFF80
01FFFFFFC0
03FE003FE0
07F8000FF0
0FF00003F8
1FE00001FC
1FC00000FC
3F800000FE
3F0000007E
3F0000003F
7E0000003F
7E0000003F
7E0000001F
FC00000000
FC00000000
FC00000000
FC00000000
FC00000000
FC00000000
FC00000000
FC00000000
FC00000000
FC00000000
FC00000000
FC00000000
FC00000000
FC00000000
FE00000000
7E00000000
7E0000003F
7F0000003F
3F0000003E
3F8000007E
3F800000FE
1FC00001FC
0FE00003F8
0FF00007F8
07F8000FF0
03FF007FE0
01FFFFFFC0
00FFFFFF80
003FFFFF00
001FFFFC00
0003FFE000
ENDCHAR
STARTCHAR 010B
ENCODING 267
SWIDTH 570 0
DWIDTH 38 0
BBX 32 49 3 0
BITMAP
0001E000
0003F000
0007F800
0007F800
0007F800
0003F000
0001E000
00000000
00000000
00000000
00000000
00000000
00000000
000FFC00
003FFF00
00FFFFC0
03FFFFE0
07FFFFF0
0FF807F8
0FE001FC
1FC000FC
1F80007E
3F00007E
3F00003F
7E00003F
7E00001F
7E00001F
7E000000
7C000000
FC000000
FC000000
FC000000
FC000000
7C000000
7C000000
7E000000
7E00001F
7E00003F
3F00003F
3F00003F
3F80007E
1FC000FE
1FE001FC
0FF003F8
07FF3FF8
03FFFFF0
01FFFFE0
007FFF80
001FFE00
ENDCHAR
STARTCHAR 010C
ENCODING 268
SWIDTH 705 0
DWIDTH 47 0
BBX 40 61 4 0
BITMAP
007E007E00
003F00FC00
001F01F800
000F83F000
0007C7E000
0007E7C000
0003FFC000
0001FF8000
0000FF0000
00007E0000
0000000000
0000000000
0000000000
00003F0000
0007FFF000
001FFFFC00
007FFFFF00
00FFFFFF80
01FFFFFFC0
03FE003FE0
07F8000FF0
0FF00003F8
1FE00001FC
1FC00000FC
3F800000FE
3F0000007E
3F0000003F
7E0000003F
7E0000003F
7E0000001F
FC00000000
FC00000000
FC00000000
FC00000000
FC00000000
FC00000000
FC00000000
FC00000000
FC00000000
FC00000000
FC00000000
FC00000000
FC00000000
FC00000000
FE00000000
7E00000000
7E0000003F
7F0000003F
3F0000003E
3F8000007E
3F800000FE
1FC00001FC
0FE00003F8
0FF00007F8
07F8000FF0
03FF007FE0
01FFFFFFC0
00FFFFFF80
003FFFFF00
001FFFFC00
0003FFE000
ENDCHAR
STARTCHAR 010D
ENCODING 269
SWIDTH 570 0
DWIDTH 38 0
BBX 32 49 3 0
BITMAP
03F003F0
01F807E0
00FC0FC0
007E1F80
003F3F00
001FFE00
000FFC00
0007F800
0003F000
00000000
00000000
00000000
00000000
000FFC00
003FFF00
00FFFFC0
03FFFFE0
07FFFFF0
0FF807F8
0FE001FC
1FC000FC
1F80007E
3F00007E
3F00003F
7E00003F
7E00001F
7E00001F
7E000000
7C000000
FC000000
FC000000
FC000000
FC000000
7C000000
7C000000
7E000000
7E00001F
7E00003F
3F00003F
3F00003F
3F80007E
1FC000FE
1FE001FC
0FF003F8
07FF3FF8
03FFFFF0
01FFFFE0
007FFF80
001FFE00
ENDCHAR
STARTCHAR 010E
ENCODING 270
SWIDTH 675 0
DWIDTH 45 0
BBX 38 61 5 0
BITMAP
03F003F000
01F807E000
00FC0FC000
007E0F8000
003F1F0000
001F3F0000
000FFE0000
0007FC0000
0007F80000
0003F00000
0000000000
0000000000
0000000000
0000000000
FFFFF00000
FFFFFF0000
FFFFFFE000
FFFFFFF800
FFFFFFFC00
FFFFFFFE00
FC0003FF00
FC0000FF80
FC00003FC0
FC00001FC0
FC00000FE0
FC000007E0
FC000007F0
FC000003F0
FC000003F8
FC000001F8
FC000001F8
FC000001F8
FC000001FC
FC000000FC
FC000000FC
FC000000FC
FC000000FC
FC000000FC
FC000000FC
FC000000FC
FC000000FC
FC000000FC
FC000001FC
FC000001F8
FC000001F8
FC000001F8
FC000003F8
FC000003F0
FC000007F0
FC000007F0
FC00000FE0
FC00001FC0
FC00003FC0
FC00007F80
FC0001FF00
FC003FFE00
FFFFFFFC00
FFFFFFF800
FFFFFFE000
FFFFFF8000
FFFFFC0000
ENDCHAR
STARTCHAR 010F
ENCODING 271
SWIDTH 735 0
DWIDTH 49 0
BBX 45 52 3 0
BITMAP
0000000003E0
0000000007F0
0000000F8FF8
0000000F8FF8
0000000F8FF8
0000000F87F8
0000000F87F8
0000000F8078
0000000F8038
0000000F8038
0000000F8038
0000000F8070
0000000F8070
0000000F80E0
0000000F83E0
0000000F8380
001FE00F8300
00FFFC0F8000
01FFFE0F8000
03FFFF0F8000
07FFFF8F8000
0FF80FCF8000
1FE003EF8000
1FC000FF8000
3F8000FF8000
3F00007F8000
7F00003F8000
7E00003F8000
7E00001F8000
7E00001F8000
FC00001F8000
FC00001F8000
FC00001F8000
FC00001F8000
FC00001F8000
FC00001F8000
FC00001F8000
FC00001F8000
7E00001F8000
7E00001F8000
7E00003F8000
7F00003F8000
3F00007F8000
3F80007F8000
3F8000FF8000
1FC001EF8000
0FF007CF8000
0FFF7F8F8000
07FFFF0F8000
03FFFE0F8000
00FFFC0F8000
003FF00F8000
ENDCHAR
STARTCHAR 0110
ENCODING 272
SWIDTH 705 0
DWIDTH 47 0
BBX 42 47 3 0
BITMAP
0FFFF8000000
0FFFFFE00000
0FFFFFFC0000
0FFFFFFF0000
0FFFFFFF8000
0FFFFFFFE000
0F80007FF000
0F80000FF800
0F800007F800
0F800001FC00
0F800000FE00
0F800000FE00
0F8000007F00
0F8000003F00
0F8000003F00
0F8000001F80
0F8000001F80
0F8000001F80
0F8000001F80
0F8000001F80
0F8000000FC0
FFFFC0000FC0
FFFFC0000FC0
FFFFC0000FC0
FFFFC0000FC0
0F8000000FC0
0F8000000FC0
0F8000000FC0
0F8000001F80
0F8000001F80
0F8000001F80
0F8000001F80
0F8000003F80
0F8000003F00
0F8000007F00
0F8000007E00
0F800000FE00
0F800001FC00
0F800003FC00
0F800007F800
0F80001FF000
0F8003FFE000
0FFFFFFFC000
0FFFFFFF0000
0FFFFFFE0000
0FFFFFF00000
0FFFFF800000
ENDCHAR
STARTCHAR 0111
ENCODING 273
SWIDTH 615 0
DWIDTH 41 0
BBX 38 50 3 0
BITMAP
0000000F80
0000000F80
0000000F80
0000000F80
0000000F80
00007FFFFC
00007FFFFC
00007FFFFC
00007FFFFC
0000000F80
0000000F80
0000000F80
0000000F80
0000000F80
001FE00F80
00FFFC0F80
01FFFE0F80
03FFFF0F80
07FFFF8F80
0FF80FCF80
1FE003EF80
1FC000FF80
3F8000FF80
3F00007F80
7F00003F80
7E00003F80
7E00001F80
7E00001F80
FC00001F80
FC00001F80
FC00001F80
FC00001F80
FC00001F80
FC00001F80
FC00001F80
FC00001F80
7E00001F80
7E00001F80
7E00003F80
7F00003F80
3F00007F80
3F80007F80
3F8000FF80
1FC001EF80
0FF007CF80
0FFF7F8F80
07FFFF0F80
03FFFE0F80
00FFFC0F80
003FF00F80
ENDCHAR
STARTCHAR 0112
ENCODING 274
SWIDTH 555 0
DWIDTH 37 0
BBX 29 56 5 0
BITMAP
0FFFFF00
0FFFFF00
0FFFFF00
00000000
00000000
00000000
00000000
00000000
00000000
FFFFFFF8
FFFFFFF8
FFFFFFF8
FFFFFFF8
FFFFFFF8
FFFFFFF8
FC000000
FC000000
FC000000
FC000000
FC000000
FC000000
FC000000
FC000000
FC000000
FC000000
FC000000
FC000000
FC000000
FC000000
FC000000
FFFFFFC0
FFFFFFC0
FFFFFFC0
FFFFFFC0
FFFFFFC0
FC000000
FC000000
FC000000
FC000000
FC000000
FC000000
FC000000
FC000000
FC000000
FC000000
FC000000
FC000000
FC000000
FC000000
FC000000
FC000000
FFFFFFF8
FFFFFFF8
FFFFFFF8
FFFFFFF8
FFFFFFF8
ENDCHAR
STARTCHAR 0113
ENCODING 275
SWIDTH 570 0
DWIDTH 38 0
BBX 32 45 3 0
BITMAP
01FFFFE0
01FFFFE0
01FFFFE0
00000000
00000000
00000000
00000000
00000000
00000000
000FF800
007FFF00
00FFFFC0
03FFFFE0
07FF7FF0
0FF007F8
0FC001FC
1F8000FC
1F80007E
3F00007E
3E00003E
7E00003F
7E00003F
7E00001F
7C00001F
7C00001F
FFFFFFFF
FFFFFFFF
FFFFFFFF
FFFFFFFF
7C000000
7C000000
7C000000
7E000000
7E000000
3E00003F
3F00003F
3F00007E
1F8000FE
1FC001FC
0FF003F8
07FE3FF8
03FFFFF0
01FFFFC0
007FFF80
001FFE00
ENDCHAR
STARTCHAR 0116
ENCODING 278
SWIDTH 555 0
DWIDTH 37 0
BBX 29 61 5 0
BITMAP
00060000
001F8000
001FC000
003FC000
003FC000
001FC000
001F8000
00070000
00000000
00000000
00000000
00000000
00000000
00000000
FFFFFFF8
FFFFFFF8
FFFFFFF8
FFFFFFF8
FFFFFFF8
FFFFFFF8
FC000000
FC000000
FC000000
FC000000
FC000000
FC000000
FC000000
FC000000
FC000000
FC000000
FC000000
FC000000
FC000000
FC000000
FC000000
FFFFFFC0
FFFFFFC0
FFFFFFC0
FFFFFFC0
FFFFFFC0
FC000000
FC000000
FC000000
FC000000
FC000000
FC000000
FC000000
FC000000
FC000000
FC000000
FC000000
FC000000
FC000000
FC000000
FC000000
FC000000
FFFFFFF8
FFFFFFF8
FFFFFFF8
FFFFFFF8
FFFFFFF8
ENDCHAR
STARTCHAR 0117
ENCODING 279
SWIDTH 570 0
DWIDTH 38 0
BBX 32 49 3 0
BITMAP
0001E000
0003F000
0007F000
0007F800
0007F000
0003F000
0003E000
00000000
00000000
00000000
00000000
00000000
00000000
000FF800
007FFF00
00FFFFC0
03FFFFE0
07FF7FF0
0FF007F8
0FC001FC
1F8000FC
1F80007E
3F00007E
3E00003E
7E00003F
7E00003F
7E00001F
7C00001F
7C00001F
FFFFFFFF
FFFFFFFF
FFFFFFFF
FFFFFFFF
7C000000
7C000000
7C000000
7E000000
7E000000
3E00003F
3F00003F
3F00007E
1F8000FE
1FC001FC
0FF003F8
07FE3FF8
03FFFFF0
01FFFFC0
007FFF80
001FFE00
ENDCHAR
STARTCHAR 0118
ENCODING 280
SWIDTH 555 0
DWIDTH 37 0
BBX 31 58 5 -11
BITMAP
FFFFFFF8
FFFFFFF8
FFFFFFF8
FFFFFFF8
FFFFFFF8
FFFFFFF8
FC000000
FC000000
FC000000
FC000000
FC000000
FC000000
FC000000
FC000000
FC000000
FC000000
FC000000
FC000000
FC000000
FC000000
FC000000
FFFFFFC0
FFFFFFC0
FFFFFFC0
FFFFFFC0
FFFFFFC0
FC000000
FC000000
FC000000
FC000000
FC000000
FC000000
FC000000
FC000000
FC000000
FC000000
FC000000
FC000000
FC000000
FC000000
FC000000
FC000000
FFFFFFF8
FFFFFFF8
FFFFFFF8
FFFFFFF8
FFFFFFF8
000001F0
000003E0
000007C0
00000780
00000780
00000780
000007C0
000007FE
000003FE
000001FE
0000003C
ENDCHAR
STARTCHAR 0119
ENCODING 281
SWIDTH 570 0
DWIDTH 38 0
BBX 32 47 3 -11
BITMAP
000FF800
007FFF00
00FFFFC0
03FFFFE0
07FF7FF0
0FF007F8
0FC001FC
1F8000FC
1F80007E
3F00007E
3E00003E
7E00003F
7E00003F
7E00001F
7C00001F
7C00001F
FFFFFFFF
FFFFFFFF
FFFFFFFF
FFFFFFFF
7C000000
7C000000
7C000000
7E000000
7E000000
3E00003F
3F00003F
3F00007E
1F8000FE
1FC001FC
0FF003F8
07FE3FF8
03FFFFF0
01FFFFC0
007FFF80
001FFE00
0003E000
0007C000
000F8000
000F0000
000F0000
000F0000
000F0000
000FC400
0007FC00
0007FC00
0001FC00
ENDCHAR
STARTCHAR 011A
ENCODING 282
SWIDTH 555 0
DWIDTH 37 0
BBX 29 61 5 0
BITMAP
1F800F80
0FC01F00
07E03F00
03F07E00
01F8FC00
00FDF800
007FF000
003FE000
001FC000
001F8000
00000000
00000000
00000000
00000000
FFFFFFF8
FFFFFFF8
FFFFFFF8
FFFFFFF8
FFFFFFF8
FFFFFFF8
FC000000
FC000000
FC000000
FC000000
FC000000
FC000000
FC000000
FC000000
FC000000
FC000000
FC000000
FC000000
FC000000
FC000000
FC000000
FFFFFFC0
FFFFFFC0
FFFFFFC0
FFFFFFC0
FFFFFFC0
FC000000
FC000000
FC000000
FC000000
FC000000
FC000000
FC000000
FC000000
FC000000
FC000000
FC000000
FC000000
FC000000
FC000000
FC000000
FC000000
FFFFFFF8
FFFFFFF8
FFFFFFF8
FFFFFFF8
FFFFFFF8
ENDCHAR
STARTCHAR 011B
ENCODING 283
SWIDTH 570 0
DWIDTH 38 0
BBX 32 49 3 0
BITMAP
03F003F0
01F807E0
00FC0FC0
007E1F80
003F3F00
001FFE00
000FFC00
0007F800
0003F000
00000000
00000000
00000000
00000000
000FF800
007FFF00
00FFFFC0
03FFFFE0
07FF7FF0
0FF007F8
0FC001FC
1F8000FC
1F80007E
3F00007E
3E00003E
7E00003F
7E00003F
7E00001F
7C00001F
7C00001F
FFFFFFFF
FFFFFFFF
FFFFFFFF
FFFFFFFF
7C000000
7C000000
7C000000
7E000000
7E000000
3E00003F
3F00003F
3F00007E
1F8000FE
1FC001FC
0FF003F8
07FE3FF8
03FFFFF0
01FFFFC0
007FFF80
001FFE00
ENDCHAR
STARTCHAR 011E
ENCODING 286
SWIDTH 705 0
DWIDTH 47 0
BBX 40 59 4 0
BITMAP
007C003E00
003E007E00
001F00FC00
000FFFF800
0007FFF000
0003FFC000
00007F0000
0000000000
0000000000
0000000000
0000000000
00003E0000
0007FFF000
001FFFFC00
007FFFFF00
00FFFFFF80
01FFFFFFC0
03FE003FE0
07F8000FF0
0FE00007F0
1FC00003F8
1F800001FC
3F800000FC
3F000000FE
7F0000007E
7E0000007E
7E00000000
FC00000000
FC00000000
FC00000000
FC00000000
FC00000000
FC00000000
F800000000
F800000000
F80007FFFF
F80007FFFF
F80007FFFF
FC0007FFFF
FC0000003F
FC0000003F
FC0000003F
FC0000003F
7C0000003F
7E0000003F
7E0000007F
7F0000007F
3F0000007F
3F800000FF
1F800001FF
1FC00001FF
0FE00003DF
07F8000FDF
03FE003F9F
01FFF7FF1F
00FFFFFE1F
007FFFFC1F
001FFFF01F
0007FFC01F
ENDCHAR
STARTCHAR 011F
ENCODING 287
SWIDTH 615 0
DWIDTH 41 0
BBX 33 62 3 -14
BITMAP
03E000F800
01F001F000
01F803E000
00FE0FC000
007FFF8000
003FFF0000
000FFE0000
0000000000
0000000000
0000000000
0000000000
0000000000
001FF00000
00FFFC0F80
01FFFE0F80
03FFFF0F80
07FFFF8F80
0FF807CF80
1FE001EF80
1FC000EF80
3F80007F80
3F80007F80
7F00003F80
7F00003F80
7E00001F80
7E00001F80
7E00001F80
FE00001F80
FC00001F80
FC00000F80
FC00001F80
FE00001F80
7E00001F80
7E00001F80
7E00001F80
7E00003F80
7F00003F80
3F00003F80
3F80007F80
1FC000FF80
1FE001EF80
0FF807CF80
0FFFFFCF80
07FFFF8F80
01FFFF0F80
00FFFC0F80
003FF00F80
0000000F80
0000001F80
0000001F80
0000001F80
0000001F80
0000003F00
0000007F00
0000007F00
000001FE00
000807FC00
000FFFF800
000FFFF000
000FFFE000
000FFF8000
0007FE0000
ENDCHAR
STARTCHAR 0120
ENCODING 288
SWIDTH 705 0
DWIDTH 47 0
BBX 40 61 4 0
BITMAP
0000180000
00007E0000
00007F0000
0000FF0000
0000FF0000
00007F0000
00007E0000
00001C0000
0000000000
0000000000
0000000000
0000000000
0000000000
00003E0000
0007FFF000
001FFFFC00
007FFFFF00
00FFFFFF80
01FFFFFFC0
03FE003FE0
07F8000FF0
0FE00007F0
1FC00003F8
1F800001FC
3F800000FC
3F000000FE
7F0000007E
7E0000007E
7E00000000
FC00000000
FC00000000
FC00000000
FC00000000
FC00000000
FC00000000
F800000000
F800000000
F80007FFFF
F80007FFFF
F80007FFFF
FC0007FFFF
FC0000003F
FC0000003F
FC0000003F
FC0000003F
7C0000003F
7E0000003F
7E0000007F
7F0000007F
3F0000007F
3F800000FF
1F800001FF
1FC00001FF
0FE00003DF
07F8000FDF
03FE003F9F
01FFF7FF1F
00FFFFFE1F
007FFFFC1F
001FFFF01F
0007FFC01F
ENDCHAR
STARTCHAR 0121
ENCODING 289
SWIDTH 615 0
DWIDTH 41 0
BBX 33 63 3 -14
BITMAP
0001E00000
0003F00000
0003F80000
0003F80000
0003F80000
0003F80000
0001F00000
0000000000
0000000000
0000000000
0000000000
0000000000
0000000000
001FF00000
00FFFC0F80
01FFFE0F80
03FFFF0F80
07FFFF8F80
0FF807CF80
1FE001EF80
1FC000EF80
3F80007F80
3F80007F80
7F00003F80
7F00003F80
7E00001F80
7E00001F80
7E00001F80
FE00001F80
FC00001F80
FC00000F80
FC00001F80
FE00001F80
7E00001F80
7E00001F80
7E00001F80
7E00003F80
7F00003F80
3F00003F80
3F80007F80
1FC000FF80
1FE001EF80
0FF807CF80
0FFFFFCF80
07FFFF8F80
01FFFF0F80
00FFFC0F80
003FF00F80
0000000F80
0000001F80
0000001F80
0000001F80
0000001F80
0000003F00
0000007F00
0000007F00
000001FE00
000807FC00
000FFFF800
000FFFF000
000FFFE000
000FFF8000
0007FE0000
ENDCHAR
STARTCHAR 0126
ENCODING 294
SWIDTH 690 0
DWIDTH 46 0
BBX 43 47 2 0
BITMAP
1F8000007E00
1F8000007E00
1F8000007E00
1F8000007E00
1F8000007E00
1F8000007E00
1F8000007E00
1F8000007E00
FFFFFFFFFFE0
FFFFFFFFFFE0
FFFFFFFFFFE0
FFFFFFFFFFE0
FFFFFFFFFFE0
1F8000007E00
1F8000007E00
1F8000007E00
1F8000007E00
1F8000007E00
1F8000007E00
1F8000007E00
1F8000007E00
1FFFFFFFFE00
1FFFFFFFFE00
1FFFFFFFFE00
1FFFFFFFFE00
1FFFFFFFFE00
1F8000007E00
1F8000007E00
1F8000007E00
1F8000007E00
1F8000007E00
1F8000007E00
1F8000007E00
1F8000007E00
1F8000007E00
1F8000007E00
1F8000007E00
1F8000007E00
1F8000007E00
1F8000007E00
1F8000007E00
1F8000007E00
1F8000007E00
1F8000007E00
1F8000007E00
1F8000007E00
1F8000007E00
ENDCHAR
STARTCHAR 0127
ENCODING 295
SWIDTH 600 0
DWIDTH 40 0
BBX 36 50 1 0
BITMAP
07C0000000
07C0000000
07C0000000
07C0000000
07C0000000
FFFFF00000
FFFFF00000
FFFFF00000
FFFFF00000
07C0000000
07C0000000
07C0000000
07C0000000
07C0000000
07C01FF000
07C07FFE00
07C1FFFF00
07C3FFFF80
07C7FFFF80
07CFC07FC0
07DE001FC0
07DC000FE0
07F80007E0
07F00007E0
07F00007E0
07E00003F0
07E00003F0
07E00003F0
07E00003F0
07C00003F0
07C00003F0
07C00003F0
07C00003F0
07C00003F0
07C00003F0
07C00003F0
07C00003F0
07C00003F0
07C00003F0
07C00003F0
07C00003F0
07C00003F0
07C00003F0
07C00003F0
07C00003F0
07C00003F0
07C00003F0
07C00003F0
07C00003F0
07C00003F0
ENDCHAR
STARTCHAR 0128
ENCODING 296
SWIDTH 240 0
DWIDTH 16 0
BBX 19 60 -1 0
BITMAP
3F01E0
7FC1E0
FFE1C0
FFFFC0
F1FFC0
E07F80
E01F00
000000
000000
000000
000000
000000
000000
03F000
03F000
03F000
03F000
03F000
03F000
03F000
03F000
03F000
03F000
03F000
03F000
03F000
03F000
03F000
03F000
03F000
03F000
03F000
03F000
03F000
03F000
03F000
03F000
03F000
03F000
03F000
03F000
03F000
03F000
03F000
03F000
03F000
03F000
03F000
03F000
03F000
03F000
03F000
03F000
03F000
03F000
03F000
03F000
03F000
03F000
03F000
ENDCHAR
STARTCHAR 0129
ENCODING 297
SWIDTH 240 0
DWIDTH 16 0
BBX 19 49 -1 0
BITMAP
0E01E0
3F81E0
7FE1E0
FFF3C0
F1FFC0
F0FFC0
E03F80
E00C00
000000
000000
000000
000000
000000
000000
03F000
03F000
03F000
03F000
03F000
03F000
03F000
03F000
03F000
03F000
03F000
03F000
03F000
03F000
03F000
03F000
03F000
03F000
03F000
03F000
03F000
03F000
03F000
03F000
03F000
03F000
03F000
03F000
03F000
03F000
03F000
03F000
03F000
03F000
03F000
ENDCHAR
STARTCHAR 012A
ENCODING 298
SWIDTH 240 0
DWIDTH 16 0
BBX 20 56 -2 0
BITMAP
FFFFF0
FFFFF0
FFFFF0
000000
000000
000000
000000
000000
000000
01F800
01F800
01F800
01F800
01F800
01F800
01F800
01F800
01F800
01F800
01F800
01F800
01F800
01F800
01F800
01F800
01F800
01F800
01F800
01F800
01F800
01F800
01F800
01F800
01F800
01F800
01F800
01F800
01F800
01F800
01F800
01F800
01F800
01F800
01F800
01F800
01F800
01F800
01F800
01F800
01F800
01F800
01F800
01F800
01F800
01F800
01F800
ENDCHAR
STARTCHAR 012B
ENCODING 299
SWIDTH 240 0
DWIDTH 16 0
BBX 20 45 -2 0
BITMAP
FFFFF0
FFFFF0
FFFFF0
000000
000000
000000
000000
000000
000000
000000
01F800
01F800
01F800
01F800
01F800
01F800
01F800
01F800
01F800
01F800
01F800
01F800
01F800
01F800
01F800
01F800
01F800
01F800
01F800
01F800
01F800
01F800
01F800
01F800
01F800
01F800
01F800
01F800
01F800
01F800
01F800
01F800
01F800
01F800
01F800
ENDCHAR
STARTCHAR 012E
ENCODING 302
SWIDTH 240 0
DWIDTH 16 0
BBX 11 58 3 -11
BITMAP
3F00
3F00
3F00
3F00
3F00
3F00
3F00
3F00
3F00
3F00
3F00
3F00
3F00
3F00
3F00
3F00
3F00
3F00
3F00
3F00
3F00
3F00
3F00
3F00
3F00
3F00
3F00
3F00
3F00
3F00
3F00
3F00
3F00
3F00
3F00
3F00
3F00
3F00
3F00
3F00
3F00
3F00
3F00
3F00
3F00
3F00
3F00
3E00
7C00
7800
F000
F000
F000
F800
7FE0
7FE0
3FE0
07C0
ENDCHAR
STARTCHAR 012F
ENCODING 303
SWIDTH 240 0
DWIDTH 16 0
BBX 11 60 3 -11
BITMAP
1E00
3F00
3F80
3F80
3F80
3F80
1F00
0000
0000
0000
0000
0000
0000
0000
3F00
3F00
3F00
3F00
3F00
3F00
3F00
3F00
3F00
3F00
3F00
3F00
3F00
3F00
3F00
3F00
3F00
3F00
3F00
3F00
3F00
3F00
3F00
3F00
3F00
3F00
3F00
3F00
3F00
3F00
3F00
3F00
3F00
3F00
3F00
3E00
3C00
7800
7800
F800
F800
7800
7FE0
3FE0
1FE0
07C0
ENDCHAR
STARTCHAR 0130
ENCODING 304
SWIDTH 240 0
DWIDTH 16 0
BBX 8 61 4 0
BITMAP
18
7E
7F
FF
FF
7F
7E
1C
00
00
00
00
00
00
7E
7E
7E
7E
7E
7E
7E
7E
7E
7E
7E
7E
7E
7E
7E
7E
7E
7E
7E
7E
7E
7E
7E
7E
7E
7E
7E
7E
7E
7E
7E
7E
7E
7E
7E
7E
7E
7E
7E
7E
7E
7E
7E
7E
7E
7E
7E
ENDCHAR
STARTCHAR 0131
ENCODING 305
SWIDTH 240 0
DWIDTH 16 0
BBX 6 35 5 0
BITMAP
FC
FC
FC
FC
FC
FC
FC
FC
FC
FC
FC
FC
FC
FC
FC
FC
FC
FC
FC
FC
FC
FC
FC
FC
FC
FC
FC
FC
FC
FC
FC
FC
FC
FC
FC
ENDCHAR
STARTCHAR 0139
ENCODING 313
SWIDTH 525 0
DWIDTH 35 0
BBX 28 63 5 0
BITMAP
01F80000
03F00000
03F00000
07E00000
07C00000
0F800000
0F800000
1F000000
3E000000
3E000000
7C000000
78000000
00000000
00000000
00000000
00000000
FC000000
FC000000
FC000000
FC000000
FC000000
FC000000
FC000000
FC000000
FC000000
FC000000
FC000000
FC000000
FC000000
FC000000
FC000000
FC000000
FC000000
FC000000
FC000000
FC000000
FC000000
FC000000
FC000000
FC000000
FC000000
FC000000
FC000000
FC000000
FC000000
FC000000
FC000000
FC000000
FC000000
FC000000
FC000000
FC000000
FC000000
FC000000
FC000000
FC000000
FC000000
FC000000
FFFFFFF0
FFFFFFF0
FFFFFFF0
FFFFFFF0
FFFFFFF0
ENDCHAR
STARTCHAR 013A
ENCODING 314
SWIDTH 300 0
DWIDTH 20 0
BBX 13 66 5 0
BITMAP
01F8
03F0
03F0
07E0
07C0
0FC0
0F80
1F00
1F00
3E00
7C00
0000
0000
0000
0000
0000
FC00
FC00
FC00
FC00
FC00
FC00
FC00
FC00
FC00
FC00
FC00
FC00
FC00
FC00
FC00
FC00
FC00
FC00
FC00
FC00
FC00
FC00
FC00
FC00
FC00
FC00
FC00
FC00
FC00
FC00
FC00
FC00
FC00
FC00
FC00
FC00
FC00
FC00
FC00
FC00
FC00
FC00
FC00
FC00
FE00
7F00
7FF8
3FF8
3FF8
0FF8
ENDCHAR
STARTCHAR 013D
ENCODING 317
SWIDTH 525 0
DWIDTH 35 0
BBX 36 61 -3 0
BITMAP
FC00FC0000
7E01F80000
3E03F00000
1F07E00000
1F8FC00000
0FCF800000
07FF000000
03FF000000
01FE000000
00FC000000
0000000000
0000000000
0000000000
0000000000
00FC000000
00FC000000
00FC000000
00FC000000
00FC000000
00FC000000
00FC000000
00FC000000
00FC000000
00FC000000
00FC000000
00FC000000
00FC000000
00FC000000
00FC000000
00FC000000
00FC000000
00FC000000
00FC000000
00FC000000
00FC000000
00FC000000
00FC000000
00FC000000
00FC000000
00FC000000
00FC000000
00FC000000
00FC000000
00FC000000
00FC000000
00FC000000
00FC000000
00FC000000
00FC000000
00FC000000
00FC000000
00FC000000
00FC000000
00FC000000
00FC000000
00FC000000
00FFFFFFF0
00FFFFFFF0
00FFFFFFF0
00FFFFFFF0
00FFFFFFF0
ENDCHAR
STARTCHAR 013E
ENCODING 318
SWIDTH 345 0
DWIDTH 23 0
BBX 18 52 5 0
BITMAP
003F00
007F80
FC7F80
FC7FC0
FC7FC0
FC7FC0
FC3FC0
FC03C0
FC03C0
FC03C0
FC0380
FC0380
FC0380
FC0700
FC1E00
FC3C00
FC3800
FC0000
FC0000
FC0000
FC0000
FC0000
FC0000
FC0000
FC0000
FC0000
FC0000
FC0000
FC0000
FC0000
FC0000
FC0000
FC0000
FC0000
FC0000
FC0000
FC0000
FC0000
FC0000
FC0000
FC0000
FC0000
FC0000
FC0000
FC0000
FC0000
FE0000
7F0000
7FF800
3FF800
3FF800
0FF800
ENDCHAR
STARTCHAR 0143
ENCODING 323
SWIDTH 705 0
DWIDTH 47 0
BBX 37 63 5 0
BITMAP
000001F800
000003F000
000003E000
000007E000
00000FC000
00000F8000
00001F8000
00001F0000
00003E0000
00003E0000
00007C0000
0000780000
0000000000
0000000000
0000000000
0000000000
FE000000F8
FE000000F8
FF000000F8
FF800000F8
FF800000F8
FFC00000F8
FFE00000F8
FFE00000F8
FFF00000F8
FFF80000F8
FFF80000F8
FDFC0000F8
FCFE0000F8
FCFE0000F8
FC7F0000F8
FC3F8000F8
FC3F8000F8
FC1FC000F8
FC0FE000F8
FC0FE000F8
FC07F000F8
FC03F800F8
FC03F800F8
FC01FC00F8
FC00FE00F8
FC00FE00F8
FC007F00F8
FC003F80F8
FC003F80F8
FC001FC0F8
FC000FE0F8
FC000FE0F8
FC0007F0F8
FC0003F8F8
FC0003F8F8
FC0001FCF8
FC0000FEF8
FC0000FEF8
FC00007FF8
FC00003FF8
FC00003FF8
FC00001FF8
FC00000FF8
FC000007F8
FC000007F8
FC000003F8
FC000001F8
ENDCHAR
STARTCHAR 0144
ENCODING 324
SWIDTH 600 0
DWIDTH 40 0
BBX 31 52 5 0
BITMAP
00000FC0
00001F80
00001F00
00003F00
00007E00
00007C00
0000FC00
0000F800
0001F000
0001F000
0003E000
0003C000
00000000
00000000
00000000
00000000
0003FC00
FC1FFF80
FC3FFFC0
FC7FFFE0
FCFFFFF0
FDF81FF8
FDC007F8
FF8003FC
FF0001FC
FE0000FE
FE00007E
FC00007E
FC00007E
FC00007E
FC00007E
FC00003E
FC00003E
FC00003E
FC00003E
FC00003E
FC00003E
FC00003E
FC00003E
FC00003E
FC00003E
FC00003E
FC00003E
FC00003E
FC00003E
FC00003E
FC00003E
FC00003E
FC00003E
FC00003E
FC00003E
FC00003E
ENDCHAR
STARTCHAR 0147
ENCODING 327
SWIDTH 705 0
DWIDTH 47 0
BBX 37 61 5 0
BITMAP
00F800FC00
007C01F800
003E03F000
003F07E000
001F8FC000
000FDF8000
0007FF0000
0003FE0000
0001FE0000
0000FC0000
0000000000
0000000000
0000000000
0000000000
FE000000F8
FE000000F8
FF000000F8
FF800000F8
FF800000F8
FFC00000F8
FFE00000F8
FFE00000F8
FFF00000F8
FFF80000F8
FFF80000F8
FDFC0000F8
FCFE0000F8
FCFE0000F8
FC7F0000F8
FC3F8000F8
FC3F8000F8
FC1FC000F8
FC0FE000F8
FC0FE000F8
FC07F000F8
FC03F800F8
FC03F800F8
FC01FC00F8
FC00FE00F8
FC00FE00F8
FC007F00F8
FC003F80F8
FC003F80F8
FC001FC0F8
FC000FE0F8
FC000FE0F8
FC0007F0F8
FC0003F8F8
FC0003F8F8
FC0001FCF8
FC0000FEF8
FC0000FEF8
FC00007FF8
FC00003FF8
FC00003FF8
FC00001FF8
FC00000FF8
FC000007F8
FC000007F8
FC000003F8
FC000001F8
ENDCHAR
STARTCHAR 0148
ENCODING 328
SWIDTH 600 0
DWIDTH 40 0
BBX 31 49 5 0
BITMAP
07E00FC0
03E01F80
01F03F00
00F87E00
00FC7C00
007EF800
003FF800
001FF000
000FE000
00000000
00000000
00000000
00000000
0003FC00
FC1FFF80
FC3FFFC0
FC7FFFE0
FCFFFFF0
FDF81FF8
FDC007F8
FF8003FC
FF0001FC
FE0000FE
FE00007E
FC00007E
FC00007E
FC00007E
FC00007E
FC00003E
FC00003E
FC00003E
FC00003E
FC00003E
FC00003E
FC00003E
FC00003E
FC00003E
FC00003E
FC00003E
FC00003E
FC00003E
FC00003E
FC00003E
FC00003E
FC00003E
FC00003E
FC00003E
FC00003E
FC00003E
ENDCHAR
STARTCHAR 014C
ENCODING 332
SWIDTH 735 0
DWIDTH 49 0
BBX 42 56 3 0
BITMAP
000FFFFF0000
000FFFFF0000
000FFFFF0000
000000000000
000000000000
000000000000
000000000000
000000000000
00001F000000
0003FFF80000
000FFFFE0000
003FFFFF8000
007FFFFFC000
00FFFFFFE000
01FF001FF000
03FC0007F800
07F80003FC00
0FF00001FE00
0FE00000FE00
1FC000007F00
1F8000003F00
3F8000003F80
3F0000001F80
3F0000001F80
7F0000001FC0
7E0000000FC0
7E0000000FC0
7E0000000FC0
7E0000000FC0
7E0000000FC0
FE0000000FC0
FC0000000FC0
FC0000000FC0
FC0000000FC0
FE0000000FC0
7E0000000FC0
7E0000000FC0
7E0000000FC0
7E0000000FC0
7E0000000FC0
7F0000001FC0
3F0000001F80
3F0000003F80
3F8000003F80
1F8000007F00
1FC000007F00
0FE00000FE00
0FF00001FE00
07F80003FC00
03FE000FF800
01FF803FF000
00FFFFFFE000
007FFFFFC000
003FFFFF8000
000FFFFE0000
0001FFF00000
ENDCHAR
STARTCHAR 014D
ENCODING 333
SWIDTH 585 0
DWIDTH 39 0
BBX 33 45 3 0
BITMAP
01FFFFE000
01FFFFE000
01FFFFE000
0000000000
0000000000
0000000000
0000000000
0000000000
0000000000
000FF80000
003FFF0000
00FFFFC000
01FFFFE000
07FFFFF000
07F807F800
0FE001FC00
1FC000FE00
1F80007E00
3F00007F00
3F00003F00
7E00003F00
7E00001F80
7E00001F80
7C00001F80
7C00001F80
FC00001F80
FC00000F80
FC00000F80
FC00001F80
7C00001F80
7C00001F80
7E00001F80
7E00001F80
7E00003F00
3F00003F00
3F00007F00
3F80007E00
1FC000FE00
0FE001FC00
0FF007F800
07FFFFF800
03FFFFF000
01FFFFC000
007FFF8000
001FFE0000
ENDCHAR
STARTCHAR 0152
ENCODING 338
SWIDTH 960 0
DWIDTH 64 0
BBX 57 47 3 0
BITMAP
00003FFFFFFFFF80
0007FFFFFFFFFF80
001FFFFFFFFFFF80
007FFFFFFFFFFF80
00FFFFFFFFFFFF80
01FFFFFFFFFFFF80
03FF000FC0000000
07F8000FC0000000
0FF0000FC0000000
1FE0000FC0000000
1FC0000FC0000000
3F80000FC0000000
3F80000FC0000000
3F00000FC0000000
7F00000FC0000000
7E00000FC0000000
7E00000FC0000000
FE00000FC0000000
FC00000FC0000000
FC00000FC0000000
FC00000FC0000000
FC00000FFFFFFC00
FC00000FFFFFFC00
FC00000FFFFFFC00
FC00000FFFFFFC00
FC00000FFFFFFC00
FC00000FC0000000
FC00000FC0000000
FC00000FC0000000
FE00000FC0000000
7E00000FC0000000
7E00000FC0000000
7F00000FC0000000
7F00000FC0000000
3F00000FC0000000
3F80000FC0000000
1FC0000FC0000000
1FE0000FC0000000
0FF0000FC0000000
07F8000FC0000000
07FE000FC0000000
03FFC00FC0000000
01FFFFFFFFFFFF80
007FFFFFFFFFFF80
003FFFFFFFFFFF80
000FFFFFFFFFFF80
0000FFFFFFFFFF80
ENDCHAR
STARTCHAR 0153
ENCODING 339
SWIDTH 975 0
DWIDTH 65 0
BBX 60 37 3 -1
BITMAP
000FF80000FF8000
003FFE0007FFE000
00FFFF800FFFF800
01FFFFC03FFFFC00
07FFFFE07FFFFE00
07F80FF07E007F00
0FE003F8FC003F80
1FC001FDF8001F80
1F8000FDF0000FC0
3F00007FE00007C0
3F00007FE00007C0
7E00003FC00007E0
7E00003FC00003E0
7E00001FC00003E0
7C00001FC00003E0
7C00001FC00003E0
FC00001FFFFFFFE0
FC00001FFFFFFFF0
FC00001FFFFFFFF0
FC00001FFFFFFFF0
FC00001FC0000000
7C00001FC0000000
7E00001FC0000000
7E00001FC0000000
7E00003FC0000000
3F00003FE00007E0
3F00007FE00007E0
3F80007FF0000FC0
1F8000FDF8001FC0
1FC001F8FC003F80
0FF007F8FE007F00
07FE3FF07FE7FF00
03FFFFE03FFFFE00
01FFFFC01FFFF800
007FFF000FFFF000
001FFC0003FFC000
0000800000000000
ENDCHAR
STARTCHAR 0154
ENCODING 340
SWIDTH 600 0
DWIDTH 40 0
BBX 32 63 5 0
BITMAP
00003F00
00007E00
00007E00
0000FC00
0000F800
0001F800
0001F000
0003E000
0003E000
0007C000
000F8000
000F8000
00000000
00000000
00000000
00000000
FFFFE000
FFFFFE00
FFFFFF80
FFFFFFE0
FFFFFFF0
FFFFFFF8
FC0007FC
FC0001FC
FC0000FE
FC00007E
FC00003E
FC00003F
FC00003F
FC00003F
FC00003F
FC00003F
FC00003F
FC00003F
FC00003E
FC00007E
FC0000FE
FC0001FC
FC0007FC
FFFFFFF8
FFFFFFF0
FFFFFFE0
FFFFFF80
FFFFFE00
FC03F000
FC01F800
FC01FC00
FC00FC00
FC007E00
FC007F00
FC003F00
FC001F80
FC001FC0
FC000FC0
FC0007E0
FC0007F0
FC0003F0
FC0001F8
FC0001F8
FC0000FC
FC0000FE
FC00007E
FC00003F
ENDCHAR
STARTCHAR 0155
ENCODING 341
SWIDTH 345 0
DWIDTH 23 0
BBX 18 52 5 0
BITMAP
001F80
001F80
003F00
003E00
007E00
00FC00
00F800
01F800
01F000
03E000
03E000
07C000
000000
000000
000000
000000
000000
F81FC0
F87FC0
F8FFC0
F9FFC0
FBFFC0
FFF0C0
FF8000
FF0000
FE0000
FC0000
FC0000
FC0000
FC0000
FC0000
F80000
F80000
F80000
F80000
F80000
F80000
F80000
F80000
F80000
F80000
F80000
F80000
F80000
F80000
F80000
F80000
F80000
F80000
F80000
F80000
F80000
ENDCHAR
STARTCHAR 0158
ENCODING 344
SWIDTH 600 0
DWIDTH 40 0
BBX 32 61 5 0
BITMAP
1F801F80
0FC03F00
07C07E00
03E0FC00
01F1F800
01F9F000
00FFF000
007FE000
003FC000
001F8000
00000000
00000000
00000000
00000000
FFFFE000
FFFFFE00
FFFFFF80
FFFFFFE0
FFFFFFF0
FFFFFFF8
FC0007FC
FC0001FC
FC0000FE
FC00007E
FC00003E
FC00003F
FC00003F
FC00003F
FC00003F
FC00003F
FC00003F
FC00003F
FC00003E
FC00007E
FC0000FE
FC0001FC
FC0007FC
FFFFFFF8
FFFFFFF0
FFFFFFE0
FFFFFF80
FFFFFE00
FC03F000
FC01F800
FC01FC00
FC00FC00
FC007E00
FC007F00
FC003F00
FC001F80
FC001FC0
FC000FC0
FC0007E0
FC0007F0
FC0003F0
FC0001F8
FC0001F8
FC0000FC
FC0000FE
FC00007E
FC00003F
ENDCHAR
STARTCHAR 0159
ENCODING 345
SWIDTH 345 0
DWIDTH 23 0
BBX 22 49 1 0
BITMAP
FC00FC
7E01F8
3F03F0
1F87E0
0FCFC0
07FF80
03FF00
01FE00
00FC00
000000
000000
000000
000000
000000
0F81FC
0F87FC
0F8FFC
0F9FFC
0FBFFC
0FFF0C
0FF800
0FF000
0FE000
0FC000
0FC000
0FC000
0FC000
0FC000
0F8000
0F8000
0F8000
0F8000
0F8000
0F8000
0F8000
0F8000
0F8000
0F8000
0F8000
0F8000
0F8000
0F8000
0F8000
0F8000
0F8000
0F8000
0F8000
0F8000
0F8000
ENDCHAR
STARTCHAR 015A
ENCODING 346
SWIDTH 585 0
DWIDTH 39 0
BBX 34 64 3 -1
BITMAP
000003F000
000003E000
000007E000
00000FC000
00000F8000
00001F8000
00001F0000
00003E0000
00003E0000
00007C0000
0000780000
0000F80000
0000000000
0000000000
0000000000
0001F00000
003FFF0000
00FFFFC000
03FFFFE000
07FFFFF800
0FFE3FFC00
0FF003FC00
1FC001FE00
1F8000FF00
3F80007F00
3F00003F00
3F00003F80
3F00001F80
3F00001F80
3F00001F80
3F00000000
3F00000000
3F80000000
1FC0000000
1FE0000000
0FF8000000
07FFC00000
03FFFE0000
01FFFFC000
007FFFF000
000FFFF800
0000FFFC00
000007FE00
000000FF00
0000007F80
0000003F80
0000001F80
0000001FC0
FE00000FC0
7E00000FC0
7E00000FC0
7E00000FC0
7F00001F80
7F00001F80
3F80003F80
3FC0007F00
1FE000FF00
0FF803FE00
07FFFFFC00
03FFFFF800
01FFFFF000
00FFFFC000
001FFF0000
0000400000
ENDCHAR
STARTCHAR 015B
ENCODING 347
SWIDTH 495 0
DWIDTH 33 0
BBX 27 52 3 0
BITMAP
00003F00
00007E00
00007E00
0000FC00
0000F800
0001F800
0001F000
0003E000
0007E000
0007C000
000F8000
000F0000
00000000
00000000
00000000
00000000
007FC000
03FFF800
07FFFC00
0FFFFE00
1FFBFF00
3F803F80
3F001FC0
7E000FC0
7E000FC0
7C0007C0
7C0007C0
7E000000
7E000000
3F000000
3F800000
1FFC0000
1FFFE000
07FFFC00
01FFFE00
007FFF80
0000FFC0
00001FC0
00000FE0
000007E0
FC0007E0
FC0003E0
FC0003E0
7E0007E0
7E0007E0
7F000FC0
3F801FC0
1FF0FF80
1FFFFF80
07FFFE00
03FFFC00
00FFF000
ENDCHAR
STARTCHAR 015E
ENCODING 350
SWIDTH 585 0
DWIDTH 39 0
BBX 34 65 3 -17
BITMAP
0001F00000
003FFF0000
00FFFFC000
03FFFFE000
07FFFFF800
0FFE3FFC00
0FF003FC00
1FC001FE00
1F8000FF00
3F80007F00
3F00003F00
3F00003F80
3F00001F80
3F00001F80
3F00001F80
3F00000000
3F00000000
3F80000000
1FC0000000
1FE0000000
0FF8000000
07FFC00000
03FFFE0000
01FFFFC000
007FFFF000
000FFFF800
0000FFFC00
000007FE00
000000FF00
0000007F80
0000003F80
0000001F80
0000001FC0
FE00000FC0
7E00000FC0
7E00000FC0
7E00000FC0
7F00001F80
7F00001F80
3F80003F80
3FC0007F00
1FE000FF00
0FF803FE00
07FFFFFC00
03FFFFF800
01FFFFF000
00FFFFE000
001FFF0000
0001E00000
0001C00000
0001C00000
0003C00000
0003FE0000
0003FF0000
0007FF8000
0000078000
000003C000
000001C000
000001C000
000003C000
0000078000
0003FF8000
0003FF0000
0003FE0000
0000F00000
ENDCHAR
STARTCHAR 015F
ENCODING 351
SWIDTH 495 0
DWIDTH 33 0
BBX 27 53 3 -17
BITMAP
007FC000
03FFF800
07FFFC00
0FFFFE00
1FFBFF00
3F803F80
3F001FC0
7E000FC0
7E000FC0
7C0007C0
7C0007C0
7E000000
7E000000
3F000000
3F800000
1FFC0000
1FFFE000
07FFFC00
01FFFE00
007FFF80
0000FFC0
00001FC0
00000FE0
000007E0
FC0007E0
FC0003E0
FC0003E0
7E0007E0
7E0007E0
7F000FC0
3F801FC0
1FF0FF80
1FFFFF00
07FFFE00
03FFFC00
00FFF000
00070000
000F0000
000E0000
000E0000
001FF000
001FF800
001FFC00
00001E00
00000E00
00000E00
00000E00
00001E00
00003C00
001FFC00
001FF800
001FF000
00070000
ENDCHAR
STARTCHAR 0160
ENCODING 352
SWIDTH 585 0
DWIDTH 39 0
BBX 34 62 3 -1
BITMAP
01F801F800
00FC03F000
007E03E000
003F07C000
001F0FC000
000F9F8000
0007FF0000
0007FE0000
0003FC0000
0001F80000
0000000000
0000000000
0000000000
0001F00000
003FFF0000
00FFFFC000
03FFFFE000
07FFFFF800
0FFE3FFC00
0FF003FC00
1FC001FE00
1F8000FF00
3F80007F00
3F00003F00
3F00003F80
3F00001F80
3F00001F80
3F00001F80
3F00000000
3F00000000
3F80000000
1FC0000000
1FE0000000
0FF8000000
07FFC00000
03FFFE0000
01FFFFC000
007FFFF000
000FFFF800
0000FFFC00
000007FE00
000000FF00
0000007F80
0000003F80
0000001F80
0000001FC0
FE00000FC0
7E00000FC0
7E00000FC0
7E00000FC0
7F00001F80
7F00001F80
3F80003F80
3FC0007F00
1FE000FF00
0FF803FE00
07FFFFFC00
03FFFFF800
01FFFFF000
00FFFFC000
001FFF0000
0000400000
ENDCHAR
STARTCHAR 0161
ENCODING 353
SWIDTH 495 0
DWIDTH 33 0
BBX 27 50 3 0
BITMAP
1F001F80
0F803F00
07C07E00
07E0FC00
03F1F800
01FBF000
00FFE000
007FE000
003FC000
001F8000
00000000
00000000
00000000
00000000
007FC000
03FFF800
07FFFC00
0FFFFE00
1FFBFF00
3F803F80
3F001FC0
7E000FC0
7E000FC0
7C0007C0
7C0007C0
7E000000
7E000000
3F000000
3F800000
1FFC0000
1FFFE000
07FFFC00
01FFFE00
007FFF80
0000FFC0
00001FC0
00000FE0
000007E0
FC0007E0
FC0003E0
FC0003E0
7E0007E0
7E0007E0
7F000FC0
3F801FC0
1FF0FF80
1FFFFF80
07FFFE00
03FFFC00
00FFF000
ENDCHAR
STARTCHAR 0162
ENCODING 354
SWIDTH 585 0
DWIDTH 39 0
BBX 33 64 3 -17
BITMAP
FFFFFFFF80
FFFFFFFF80
FFFFFFFF80
FFFFFFFF80
FFFFFFFF80
FFFFFFFF80
0003E00000
0003E00000
0003E00000
0003E00000
0003E00000
0003E00000
0003E00000
0003E00000
0003E00000
0003E00000
0003E00000
0003E00000
0003E00000
0003E00000
0003E00000
0003E00000
0003E00000
0003E00000
0003E00000
0003E00000
0003E00000
0003E00000
0003E00000
0003E00000
0003E00000
0003E00000
0003E00000
0003E00000
0003E00000
0003E00000
0003E00000
0003E00000
0003E00000
0003E00000
0003E00000
0003E00000
0003E00000
0003E00000
0003E00000
0003E00000
0003E00000
0003C00000
0003800000
0003800000
0007800000
0007FC0000
0007FE0000
000FFF0000
00000F0000
0000078000
0000078000
0000078000
0000070000
00000F0000
0007FF0000
0007FE0000
0007F80000
0000C00000
ENDCHAR
STARTCHAR 0163
ENCODING 355
SWIDTH 390 0
DWIDTH 26 0
BBX 22 63 2 -16
BITMAP
01F000
01F000
01F000
01F000
01F000
01F000
01F000
01F000
01F000
01F000
01F000
01F000
FFFFF8
FFFFF8
FFFFF8
FFFFF8
01F000
01F000
01F000
01F000
01F000
01F000
01F000
01F000
01F000
01F000
01F000
01F000
01F000
01F000
01F000
01F000
01F000
01F000
01F000
01F000
01F000
01F000
01F000
01F000
01F800
01F800
01FC00
01FFF8
00FFF8
007FF8
003FF8
000E00
001E00
001C00
001C00
003FE0
003FF8
003FF8
00003C
00001C
00001C
00001C
00003C
000078
003FF8
003FF0
003FE0
ENDCHAR
STARTCHAR 0164
ENCODING 356
SWIDTH 585 0
DWIDTH 39 0
BBX 33 61 3 0
BITMAP
03E003F000
01F007E000
01F80FC000
00FC1F8000
007E3F0000
003F7E0000
001FFC0000
000FF80000
0007F00000
0003F00000
0000000000
0000000000
0000000000
0000000000
FFFFFFFF80
FFFFFFFF80
FFFFFFFF80
FFFFFFFF80
FFFFFFFF80
FFFFFFFF80
0003E00000
0003E00000
0003E00000
0003E00000
0003E00000
0003E00000
0003E00000
0003E00000
0003E00000
0003E00000
0003E00000
0003E00000
0003E00000
0003E00000
0003E00000
0003E00000
0003E00000
0003E00000
0003E00000
0003E00000
0003E00000
0003E00000
0003E00000
0003E00000
0003E00000
0003E00000
0003E00000
0003E00000
0003E00000
0003E00000
0003E00000
0003E00000
0003E00000
0003E00000
0003E00000
0003E00000
0003E00000
0003E00000
0003E00000
0003E00000
0003E00000
ENDCHAR
STARTCHAR 0165
ENCODING 357
SWIDTH 495 0
DWIDTH 33 0
BBX 30 52 2 0
BITMAP
000001F0
000003F8
000007FC
000007FC
000007FC
01F003FC
01F001FC
01F0003C
01F0001C
01F0001C
01F0001C
01F0001C
01F00038
01F00078
01F000F0
01F001E0
01F00180
FFFFF800
FFFFF800
FFFFF800
FFFFF800
01F00000
01F00000
01F00000
01F00000
01F00000
01F00000
01F00000
01F00000
01F00000
01F00000
01F00000
01F00000
01F00000
01F00000
01F00000
01F00000
01F00000
01F00000
01F00000
01F00000
01F00000
01F00000
01F00000
01F00000
01F80000
01F80000
01FC0000
01FFF800
00FFF800
007FF800
003FF800
ENDCHAR
STARTCHAR 0166
ENCODING 358
SWIDTH 585 0
DWIDTH 39 0
BBX 33 47 3 0
BITMAP
FFFFFFFF80
FFFFFFFF80
FFFFFFFF80
FFFFFFFF80
FFFFFFFF80
FFFFFFFF80
0003E00000
0003E00000
0003E00000
0003E00000
0003E00000
0003E00000
0003E00000
0003E00000
0003E00000
0003E00000
0003E00000
0003E00000
0003E00000
1FFFFFFE00
1FFFFFFE00
1FFFFFFE00
1FFFFFFE00
0003E00000
0003E00000
0003E00000
0003E00000
0003E00000
0003E00000
0003E00000
0003E00000
0003E00000
0003E00000
0003E00000
0003E00000
0003E00000
0003E00000
0003E00000
0003E00000
0003E00000
0003E00000
0003E00000
0003E00000
0003E00000
0003E00000
0003E00000
0003E00000
ENDCHAR
STARTCHAR 0167
ENCODING 359
SWIDTH 390 0
DWIDTH 26 0
BBX 21 47 2 0
BITMAP
01F000
01F000
01F000
01F000
01F000
01F000
01F000
01F000
01F000
01F000
01F000
01F000
FFFFF8
FFFFF8
FFFFF8
FFFFF8
01F000
01F000
01F000
01F000
01F000
01F000
01F000
01F000
01F000
FFFFF8
FFFFF8
FFFFF8
FFFFF8
01F000
01F000
01F000
01F000
01F000
01F000
01F000
01F000
01F000
01F800
01F800
01F800
01F800
01FC00
01FFF8
00FFF8
007FF8
003FF8
ENDCHAR
STARTCHAR 0168
ENCODING 360
SWIDTH 675 0
DWIDTH 45 0
BBX 37 61 4 -1
BITMAP
000FC07000
001FE07000
003FF8F000
003FFFF000
00387FE000
00781FE000
00780F8000
0000000000
0000000000
0000000000
0000000000
0000000000
0000000000
FC000000F8
FC000000F8
FC000000F8
FC000000F8
FC000000F8
FC000000F8
FC000000F8
FC000000F8
FC000000F8
FC000000F8
FC000000F8
FC000000F8
FC000000F8
FC000000F8
FC000000F8
FC000000F8
FC000000F8
FC000000F8
FC000000F8
FC000000F8
FC000000F8
FC000000F8
FC000000F8
FC000000F8
FC000000F8
FC000000F8
FC000000F8
FC000001F8
FC000001F8
FC000001F8
7C000001F8
7E000001F8
7E000001F8
7E000003F8
7E000003F0
3F000003F0
3F000007F0
3F800007E0
1F80000FE0
1FC0001FC0
0FF0003FC0
07FC01FF80
07FFFFFF00
01FFFFFE00
00FFFFFC00
007FFFF000
000FFFC000
0000300000
ENDCHAR
STARTCHAR 0169
ENCODING 361
SWIDTH 600 0
DWIDTH 40 0
BBX 31 50 5 -1
BITMAP
00700F00
01FC0F00
03FE0F00
07FF9E00
078FFE00
0707FE00
0701FC00
07006000
00000000
00000000
00000000
00000000
00000000
00000000
FC00007E
FC00007E
FC00007E
FC00007E
FC00007E
FC00007E
FC00007E
FC00007E
FC00007E
FC00007E
FC00007E
FC00007E
FC00007E
FC00007E
FC00007E
FC00007E
FC00007E
FC00007E
FC00007E
FC00007E
FC00007E
FC00007E
FC00007E
FC0000FE
FC0000FE
7E0000FE
7E0001FE
7F0003FE
3F80077E
3FE00F7E
1FFFFE7E
1FFFFC7E
0FFFF87E
03FFF07E
01FFC07E
001C0000
ENDCHAR
STARTCHAR 016A
ENCODING 362
SWIDTH 675 0
DWIDTH 45 0
BBX 37 57 4 -1
BITMAP
007FFFF800
007FFFF800
007FFFF800
0000000000
0000000000
0000000000
0000000000
0000000000
0000000000
FC000000F8
FC000000F8
FC000000F8
FC000000F8
FC000000F8
FC000000F8
FC000000F8
FC000000F8
FC000000F8
FC000000F8
FC000000F8
FC000000F8
FC000000F8
FC000000F8
FC000000F8
FC000000F8
FC000000F8
FC000000F8
FC000000F8
FC000000F8
FC000000F8
FC000000F8
FC000000F8
FC000000F8
FC000000F8
FC000000F8
FC000000F8
FC000001F8
FC000001F8
FC000001F8
7C000001F8
7E000001F8
7E000001F8
7E000003F8
7E000003F0
3F000003F0
3F000007F0
3F800007E0
1F80000FE0
1FC0001FC0
0FF0003FC0
07FC01FF80
07FFFFFF00
01FFFFFE00
00FFFFFC00
007FFFF000
000FFFC000
0000300000
ENDCHAR
STARTCHAR 016B
ENCODING 363
SWIDTH 600 0
DWIDTH 40 0
BBX 31 46 5 -1
BITMAP
0FFFFF00
0FFFFF00
0FFFFF00
00000000
00000000
00000000
00000000
00000000
00000000
00000000
FC00007E
FC00007E
FC00007E
FC00007E
FC00007E
FC00007E
FC00007E
FC00007E
FC00007E
FC00007E
FC00007E
FC00007E
FC00007E
FC00007E
FC00007E
FC00007E
FC00007E
FC00007E
FC00007E
FC00007E
FC00007E
FC00007E
FC00007E
FC0000FE
FC0000FE
7E0000FE
7E0001FE
7F0003FE
3F80077E
3FE00F7E
1FFFFE7E
1FFFFC7E
0FFFF87E
03FFF07E
01FFC07E
001C0000
ENDCHAR
STARTCHAR 016E
ENCODING 366
SWIDTH 675 0
DWIDTH 45 0
BBX 37 65 4 -1
BITMAP
0000F80000
0001FE0000
0003FF0000
0007870000
0007038000
0007038000
0007038000
0007070000
00038F0000
0003FE0000
0001FC0000
0000300000
0000000000
0000000000
0000000000
0000000000
0000000000
FC000000F8
FC000000F8
FC000000F8
FC000000F8
FC000000F8
FC000000F8
FC000000F8
FC000000F8
FC000000F8
FC000000F8
FC000000F8
FC000000F8
FC000000F8
FC000000F8
FC000000F8
FC000000F8
FC000000F8
FC000000F8
FC000000F8
FC000000F8
FC000000F8
FC000000F8
FC000000F8
FC000000F8
FC000000F8
FC000000F8
FC000000F8
FC000001F8
FC000001F8
FC000001F8
7C000001F8
7E000001F8
7E000001F8
7E000003F8
7E000003F0
3F000003F0
3F000007F0
3F800007E0
1F80000FE0
1FC0001FC0
0FF0003FC0
07FC01FF80
07FFFFFF00
01FFFFFE00
00FFFFFC00
007FFFF000
000FFFC000
0000300000
ENDCHAR
STARTCHAR 016F
ENCODING 367
SWIDTH 600 0
DWIDTH 40 0
BBX 31 53 5 -1
BITMAP
001F8000
003FE000
0079E000
00707000
00E07000
00E07000
00E07000
0070F000
007FE000
003FC000
001F8000
00000000
00000000
00000000
00000000
00000000
00000000
FC00007E
FC00007E
FC00007E
FC00007E
FC00007E
FC00007E
FC00007E
FC00007E
FC00007E
FC00007E
FC00007E
FC00007E
FC00007E
FC00007E
FC00007E
FC00007E
FC00007E
FC00007E
FC00007E
FC00007E
FC00007E
FC00007E
FC00007E
FC0000FE
FC0000FE
7E0000FE
7E0001FE
7F0003FE
3F80077E
3FE00F7E
1FFFFE7E
1FFFFC7E
0FFFF87E
03FFF07E
01FFC07E
001C0000
ENDCHAR
STARTCHAR 0172
ENCODING 370
SWIDTH 675 0
DWIDTH 45 0
BBX 37 58 4 -11
BITMAP
FC000000F8
FC000000F8
FC000000F8
FC000000F8
FC000000F8
FC000000F8
FC000000F8
FC000000F8
FC000000F8
FC000000F8
FC000000F8
FC000000F8
FC000000F8
FC000000F8
FC000000F8
FC000000F8
FC000000F8
FC000000F8
FC000000F8
FC000000F8
FC000000F8
FC000000F8
FC000000F8
FC000000F8
FC000000F8
FC000000F8
FC000000F8
FC000001F8
FC000001F8
FC000001F8
7C000001F8
7E000001F8
7E000001F8
7E000003F8
7E000003F0
3F000003F0
3F000007F0
3F800007E0
1F80000FE0
1FC0001FC0
0FF0003FC0
07FC01FF80
07FFFFFF00
03FFFFFE00
00FFFFFC00
007FFFF000
000FFFC000
0000FC0000
0001F00000
0001E00000
0003C00000
0003C00000
0003C00000
0003C00000
0003F00000
0001FF0000
0000FF0000
00007F0000
ENDCHAR
STARTCHAR 0173
ENCODING 371
SWIDTH 600 0
DWIDTH 40 0
BBX 32 46 5 -11
BITMAP
FC00007E
FC00007E
FC00007E
FC00007E
FC00007E
FC00007E
FC00007E
FC00007E
FC00007E
FC00007E
FC00007E
FC00007E
FC00007E
FC00007E
FC00007E
FC00007E
FC00007E
FC00007E
FC00007E
FC00007E
FC00007E
FC00007E
FC00007E
FC0000FE
FC0000FE
7E0000FE
7E0001FE
7F0003FE
3F80077E
3FE00F7E
1FFFFE7E
1FFFFC7E
0FFFF87E
03FFF07E
01FFC07E
001C00F8
000001E0
000003E0
000003C0
000003C0
000003C0
000003E0
000003FF
000001FF
000000FF
0000001E
ENDCHAR
STARTCHAR 0174
ENCODING 372
SWIDTH 990 0
DWIDTH 66 0
BBX 64 61 1 0
BITMAP
00000007E0000000
0000000FF0000000
0000000FF8000000
0000001FFC000000
0000003E7C000000
0000007E3E000000
000000FC3F000000
000001F81F800000
000003F00FC00000
000007E007E00000
0000000000000000
0000000000000000
0000000000000000
0000000000000000
FC000007E000003F
FC000007E000003F
7C000007E000003F
7E00000FF000003E
7E00000FF000007E
7E00000FF000007E
3E00001FF800007E
3F00001FF800007C
3F00001FF80000FC
3F00003FFC0000FC
1F00003FFC0000F8
1F80003F7C0000F8
1F80007E7E0001F8
0F80007E7E0001F8
0F80007E3E0001F0
0FC0007C3F0003F0
0FC000FC3F0003F0
07C000FC1F0003F0
07C000F81F8003E0
07E001F81F8007E0
07E001F80F8007E0
03E001F00FC007E0
03F003F00FC007C0
03F003F00FC00FC0
03F003E007E00FC0
01F007E007E00F80
01F807E007E00F80
01F807C003F01F80
00F80FC003F01F80
00F80FC003F01F00
00FC0F8001F81F00
00FC1F8001F83F00
007C1F8001F83F00
007C1F0000F83E00
007E3F0000FC7E00
007E3F0000FC7E00
003E3E00007C7E00
003E7E00007E7C00
003F7E00007EFC00
003F7E00003EFC00
001FFC00003FF800
001FFC00003FF800
001FFC00001FF800
000FF800001FF800
000FF800001FF000
000FF800000FF000
000FF000000FF000
ENDCHAR
STARTCHAR 0175
ENCODING 373
SWIDTH 810 0
DWIDTH 54 0
BBX 50 49 2 0
BITMAP
000003F0000000
000007F8000000
00000FFC000000
00001FFE000000
00001F3F000000
00003E1F800000
00007C0FC00000
0000FC07E00000
0001F803F00000
00000000000000
00000000000000
00000000000000
00000000000000
00000000000000
FC0003F00007C0
7C0003F0000FC0
7C0003F8000FC0
7E0003F8000F80
7E0007F8000F80
3E0007FC001F80
3E0007FC001F80
3F000FFC001F00
1F000FFE001F00
1F000FBE003F00
1F801FBE003E00
1F801F3F003E00
0F801F3F003E00
0F803F1F007E00
0FC03F1F007C00
07C03E1F807C00
07C03E0F80FC00
07C07E0F80FC00
07E07C0FC0F800
03E07C07C0F800
03E0FC07C1F800
03F0F807E1F000
03F0F803E1F000
01F1F803E1F000
01F1F003F3F000
01F9F003F3E000
00FBF001F3E000
00FBF001F3E000
00FBE001FFC000
00FFE000FFC000
007FE000FFC000
007FC000FFC000
007FC0007F8000
003FC0007F8000
003F80007F8000
ENDCHAR
STARTCHAR 0176
ENCODING 374
SWIDTH 600 0
DWIDTH 40 0
BBX 36 61 2 0
BITMAP
0000F80000
0001FC0000
0003FE0000
0007FF0000
000FDF8000
001F8FC000
003F07E000
007E03E000
00FC01F000
00F801F800
0000000000
0000000000
0000000000
0000000000
FE000003F0
7E000003F0
7F000007E0
3F000007E0
3F80000FC0
1F80000FC0
1FC0001F80
0FC0001F80
0FE0003F00
07E0003F00
07F0007E00
03F0007E00
03F800FC00
01F800FC00
01FC01F800
00FC01F800
007E03F000
007E03F000
003F07E000
003F07E000
001F8FC000
001F8FC000
000FDF8000
000FDF8000
0007FF0000
0007FF0000
0003FE0000
0003FE0000
0001FC0000
0001FC0000
0001F80000
0001F80000
0001F80000
0001F80000
0001F80000
0001F80000
0001F80000
0001F80000
0001F80000
0001F80000
0001F80000
0001F80000
0001F80000
0001F80000
0001F80000
0001F80000
0001F80000
ENDCHAR
STARTCHAR 0177
ENCODING 375
SWIDTH 525 0
DWIDTH 35 0
BBX 32 63 2 -14
BITMAP
0007E000
000FF000
001FF800
003FFC00
007E7E00
00FC3F00
01F81F80
03F00F80
03E007C0
04000020
00000000
00000000
00000000
00000000
FC00003F
7E00003F
7E00007E
7E00007E
3F00007E
3F0000FC
1F0000FC
1F8001F8
1F8001F8
0F8001F0
0FC003F0
0FC003F0
07E003E0
07E007E0
03E007C0
03F00FC0
03F00FC0
01F00F80
01F81F80
00F81F00
00F81F00
00FC3F00
007C3E00
007C7E00
003E7C00
003E7C00
003FF800
001FF800
001FF800
001FF000
000FF000
000FE000
0007E000
0007E000
000FC000
000FC000
000F8000
001F8000
001F8000
003F0000
003F0000
007E0000
00FE0000
01FC0000
7FFC0000
7FF80000
7FF00000
7FC00000
0C000000
ENDCHAR
STARTCHAR 0178
ENCODING 376
SWIDTH 600 0
DWIDTH 40 0
BBX 36 61 2 0
BITMAP
001800C000
007E03F000
00FE03F000
00FF07F800
00FF07F800
00FE07F000
007E03F000
003801C000
0000000000
0000000000
0000000000
0000000000
0000000000
0000000000
FE000003F0
7E000003F0
7F000007E0
3F000007E0
3F80000FC0
1F80000FC0
1FC0001F80
0FC0001F80
0FE0003F00
07E0003F00
07F0007E00
03F0007E00
03F800FC00
01F800FC00
01FC01F800
00FC01F800
007E03F000
007E03F000
003F07E000
003F07E000
001F8FC000
001F8FC000
000FDF8000
000FDF8000
0007FF0000
0007FF0000
0003FE0000
0003FE0000
0001FC0000
0001FC0000
0001F80000
0001F80000
0001F80000
0001F80000
0001F80000
0001F80000
0001F80000
0001F80000
0001F80000
0001F80000
0001F80000
0001F80000
0001F80000
0001F80000
0001F80000
0001F80000
0001F80000
ENDCHAR
STARTCHAR 0179
ENCODING 377
SWIDTH 600 0
DWIDTH 40 0
BBX 33 63 3 0
BITMAP
000007F000
000007E000
00000FC000
00000F8000
00001F8000
00001F0000
00003E0000
00003E0000
00007C0000
0000F80000
0000F80000
0001F00000
0000000000
0000000000
0000000000
0000000000
FFFFFFFF80
FFFFFFFF80
FFFFFFFF80
FFFFFFFF80
FFFFFFFF80
FFFFFFFF80
0000003F80
0000007F00
000000FE00
000000FE00
000001FC00
000003F800
000003F800
000007F000
00000FE000
00001FC000
00001FC000
00003F8000
00007F0000
00007E0000
0000FE0000
0001FC0000
0003F80000
0003F80000
0007F00000
000FE00000
001FC00000
001FC00000
003F800000
007F000000
007E000000
00FE000000
01FC000000
03F8000000
03F8000000
07F0000000
0FE0000000
1FC0000000
1FC0000000
3F80000000
7F00000000
7F00000000
FFFFFFFF80
FFFFFFFF80
FFFFFFFF80
FFFFFFFF80
FFFFFFFF80
ENDCHAR
STARTCHAR 017A
ENCODING 378
SWIDTH 495 0
DWIDTH 33 0
BBX 27 52 3 0
BITMAP
00003F00
00003F00
00007E00
00007C00
0000FC00
0000F800
0001F000
0003F000
0003E000
0007C000
0007C000
000F8000
00000000
00000000
00000000
00000000
00000000
3FFFFFE0
3FFFFFE0
3FFFFFE0
3FFFFFE0
3FFFFFE0
00000FE0
00001FC0
00001F80
00003F00
00007E00
0000FE00
0001FC00
0001F800
0003F000
0007E000
000FE000
001FC000
001F8000
003F0000
007E0000
00FE0000
01FC0000
01F80000
03F00000
07E00000
0FE00000
0FC00000
1F800000
3F000000
7E000000
FFFFFFE0
FFFFFFE0
FFFFFFE0
FFFFFFE0
FFFFFFE0
ENDCHAR
STARTCHAR 017B
ENCODING 379
SWIDTH 600 0
DWIDTH 40 0
BBX 33 61 3 0
BITMAP
0000E00000
0001F00000
0003F80000
0003F80000
0003F80000
0003F80000
0003F00000
0000E00000
0000000000
0000000000
0000000000
0000000000
0000000000
0000000000
FFFFFFFF80
FFFFFFFF80
FFFFFFFF80
FFFFFFFF80
FFFFFFFF80
FFFFFFFF80
0000003F80
0000007F00
000000FE00
000000FE00
000001FC00
000003F800
000003F800
000007F000
00000FE000
00001FC000
00001FC000
00003F8000
00007F0000
00007E0000
0000FE0000
0001FC0000
0003F80000
0003F80000
0007F00000
000FE00000
001FC00000
001FC00000
003F800000
007F000000
007E000000
00FE000000
01FC000000
03F8000000
03F8000000
07F0000000
0FE0000000
1FC0000000
1FC0000000
3F80000000
7F00000000
7F00000000
FFFFFFFF80
FFFFFFFF80
FFFFFFFF80
FFFFFFFF80
FFFFFFFF80
ENDCHAR
STARTCHAR 017C
ENCODING 380
SWIDTH 495 0
DWIDTH 33 0
BBX 27 49 3 0
BITMAP
000F0000
001F8000
003FC000
003FC000
003FC000
001F8000
000F0000
00000000
00000000
00000000
00000000
00000000
00000000
00000000
3FFFFFE0
3FFFFFE0
3FFFFFE0
3FFFFFE0
3FFFFFE0
00000FE0
00001FC0
00001F80
00003F00
00007E00
0000FE00
0001FC00
0001F800
0003F000
0007E000
000FE000
001FC000
001F8000
003F0000
007E0000
00FE0000
01FC0000
01F80000
03F00000
07E00000
0FE00000
0FC00000
1F800000
3F000000
7E000000
FFFFFFE0
FFFFFFE0
FFFFFFE0
FFFFFFE0
FFFFFFE0
ENDCHAR
STARTCHAR 017D
ENCODING 381
SWIDTH 600 0
DWIDTH 40 0
BBX 33 61 3 0
BITMAP
03F001F000
01F803F000
00FC07E000
007E0FC000
003F1F8000
001FBF0000
000FFE0000
0007FC0000
0003F80000
0001F00000
0000000000
0000000000
0000000000
0000000000
FFFFFFFF80
FFFFFFFF80
FFFFFFFF80
FFFFFFFF80
FFFFFFFF80
FFFFFFFF80
0000003F80
0000007F00
000000FE00
000000FE00
000001FC00
000003F800
000003F800
000007F000
00000FE000
00001FC000
00001FC000
00003F8000
00007F0000
00007E0000
0000FE0000
0001FC0000
0003F80000
0003F80000
0007F00000
000FE00000
001FC00000
001FC00000
003F800000
007F000000
007E000000
00FE000000
01FC000000
03F8000000
03F8000000
07F0000000
0FE0000000
1FC0000000
1FC0000000
3F80000000
7F00000000
7F00000000
FFFFFFFF80
FFFFFFFF80
FFFFFFFF80
FFFFFFFF80
FFFFFFFF80
ENDCHAR
STARTCHAR 017E
ENCODING 382
SWIDTH 495 0
DWIDTH 33 0
BBX 27 49 3 0
BITMAP
1F801F80
0FC03F00
07E07E00
03F0FC00
01F9F800
00FFF000
007FE000
003FC000
001F8000
00000000
00000000
00000000
00000000
00000000
3FFFFFE0
3FFFFFE0
3FFFFFE0
3FFFFFE0
3FFFFFE0
00000FE0
00001FC0
00001F80
00003F00
00007E00
0000FE00
0001FC00
0001F800
0003F000
0007E000
000FE000
001FC000
001F8000
003F0000
007E0000
00FE0000
01FC0000
01F80000
03F00000
07E00000
0FE00000
0FC00000
1F800000
3F000000
7E000000
FFFFFFE0
FFFFFFE0
FFFFFFE0
FFFFFFE0
FFFFFFE0
ENDCHAR
STARTCHAR 01A0
ENCODING 416
SWIDTH 735 0
DWIDTH 49 0
BBX 42 53 3 0
BITMAP
000000001E00
000000001E00
000000001E00
000000003E00
000000003E00
00001F003E00
0003FFFFFC00
000FFFFFF800
003FFFFFF000
007FFFFFC000
00FFFFFFE000
01FF001FF000
03FC0007F800
07F80003FC00
0FF00001FE00
0FE00000FE00
1FC000007F00
1F8000003F00
3F8000003F80
3F0000001F80
3F0000001F80
7F0000001FC0
7E0000000FC0
7E0000000FC0
7E0000000FC0
7E0000000FC0
7E0000000FC0
FE0000000FC0
FC0000000FC0
FC0000000FC0
FC0000000FC0
FE0000000FC0
7E0000000FC0
7E0000000FC0
7E0000000FC0
7E0000000FC0
7E0000000FC0
7F0000001FC0
3F0000001F80
3F0000003F80
3F8000003F80
1F8000007F00
1FC000007F00
0FE00000FE00
0FF00001FE00
07F80003FC00
03FE000FF800
01FF803FF000
00FFFFFFE000
007FFFFFC000
003FFFFF8000
000FFFFE0000
0001FFF00000
ENDCHAR
STARTCHAR 01A1
ENCODING 417
SWIDTH 600 0
DWIDTH 40 0
BBX 33 41 3 0
BITMAP
0000000780
0000000780
0000000780
0000000780
0000000F80
000FF81F80
003FFFFF00
00FFFFFE00
01FFFFF800
07FFFFF000
07F807F800
0FE001FC00
1FC000FE00
1F80007E00
3F00007F00
3F00003F00
7E00003F00
7E00001F80
7E00001F80
7C00001F80
7C00001F80
FC00001F80
FC00000F80
FC00000F80
FC00001F80
7C00001F80
7C00001F80
7E00001F80
7E00001F80
7E00003F00
3F00003F00
3F00007F00
3F80007E00
1FC000FE00
0FE001FC00
0FF007F800
07FFFFF800
03FFFFF000
01FFFFC000
007FFF8000
001FFE0000
ENDCHAR
STARTCHAR 01AF
ENCODING 431
SWIDTH 675 0
DWIDTH 45 0
BBX 44 54 4 -1
BITMAP
0000000000F0
0000000000F0
0000000000F0
0000000000F0
0000000000F0
0000000001F0
FC000000FFF0
FC000000FFE0
FC000000FF80
FC000000F800
FC000000F800
FC000000F800
FC000000F800
FC000000F800
FC000000F800
FC000000F800
FC000000F800
FC000000F800
FC000000F800
FC000000F800
FC000000F800
FC000000F800
FC000000F800
FC000000F800
FC000000F800
FC000000F800
FC000000F800
FC000000F800
FC000000F800
FC000000F800
FC000000F800
FC000000F800
FC000000F800
FC000001F800
FC000001F800
FC000001F800
7C000001F800
7E000001F800
7E000001F800
7E000003F800
7E000003F000
3F000003F000
3F000007F000
3F800007E000
1F80000FE000
1FC0001FC000
0FF0003FC000
07FC01FF8000
07FFFFFF0000
01FFFFFE0000
00FFFFFC0000
007FFFF00000
000FFFC00000
000030000000
ENDCHAR
STARTCHAR 01B0
ENCODING 432
SWIDTH 600 0
DWIDTH 40 0
BBX 38 42 5 -1
BITMAP
000000007C
000000007C
000000007C
000000007C
000000007C
00000000F8
FC00007FF8
FC00007FF0
FC00007FC0
FC00007E00
FC00007E00
FC00007E00
FC00007E00
FC00007E00
FC00007E00
FC00007E00
FC00007E00
FC00007E00
FC00007E00
FC00007E00
FC00007E00
FC00007E00
FC00007E00
FC00007E00
FC00007E00
FC00007E00
FC00007E00
FC00007E00
FC00007E00
FC0000FE00
FC0000FE00
7E0000FE00
7E0001FE00
7F0003FE00
3F80077E00
3FE00F7E00
1FFFFE7E00
1FFFFC7E00
0FFFF87E00
03FFF07E00
01FFC07E00
001C000000
ENDCHAR
STARTCHAR 02C6
ENCODING 710
SWIDTH 405 0
DWIDTH 27 0
BBX 21 9 3 40
BITMAP
00FC00
01FE00
03FF00
07FF80
0FCF80
1F87C0
3F03E0
7E03F0
FC01F8
ENDCHAR
STARTCHAR 02C7
ENCODING 711
SWIDTH 390 0
DWIDTH 26 0
BBX 22 9 2 40
BITMAP
FC00FC
3E01F8
3F03F0
1F87E0
0FCFC0
07FF80
03FF00
01FF00
00FE00
ENDCHAR
STARTCHAR 02D8
ENCODING 728
SWIDTH 390 0
DWIDTH 26 0
BBX 23 7 2 41
BITMAP
F8003E
7C007C
7E00F8
3F83F0
1FFFE0
0FFFC0
03FF00
ENDCHAR
STARTCHAR 02D9
ENCODING 729
SWIDTH 165 0
DWIDTH 11 0
BBX 8 7 2 42
BITMAP
3C
7E
FE
FF
FE
7E
7C
ENDCHAR
STARTCHAR 02DA
ENCODING 730
SWIDTH 225 0
DWIDTH 15 0
BBX 12 11 2 41
BITMAP
1F80
7FC0
71E0
E0E0
E070
E070
E070
F0E0
7FE0
3FC0
1F80
ENDCHAR
STARTCHAR 02DB
ENCODING 731
SWIDTH 210 0
DWIDTH 14 0
BBX 10 12 2 -12
BITMAP
0C00
1F00
3E00
7800
F800
F000
F000
F000
F800
7FC0
7FC0
1FC0
ENDCHAR
STARTCHAR 02DC
ENCODING 732
SWIDTH 375 0
DWIDTH 25 0
BBX 19 8 3 41
BITMAP
0E00E0
3FC0E0
7FE1E0
7FF9E0
79FFE0
F07FC0
F03F80
F00600
ENDCHAR
STARTCHAR 0300
ENCODING 768
SWIDTH 0 0
DWIDTH 0 0
BBX 12 12 -15 41
BITMAP
FC00
7E00
3E00
3F00
1F00
0F80
0FC0
07C0
03E0
03E0
01F0
00F0
ENDCHAR
STARTCHAR 0301
ENCODING 769
SWIDTH 0 0
DWIDTH 0 0
BBX 12 12 -13 41
BITMAP
03F0
03E0
07E0
0FC0
0F80
1F80
1F00
3E00
3E00
7C00
7800
F800
ENDCHAR
STARTCHAR 0302
ENCODING 770
SWIDTH 0 0
DWIDTH 0 0
BBX 21 9 -23 40
BITMAP
01FC00
03FE00
03FF00
07DF00
0F8F80
1F8FC0
3F07E0
7E03F0
FC01F8
ENDCHAR
STARTCHAR 0303
ENCODING 771
SWIDTH 0 0
DWIDTH 0 0
BBX 19 8 -21 41
BITMAP
0E00E0
3F80E0
7FE1E0
7FFBE0
F9FFC0
F07FC0
F03F80
F00400
ENDCHAR
STARTCHAR 0304
ENCODING 772
SWIDTH 0 0
DWIDTH 0 0
BBX 20 3 -24 43
BITMAP
FFFFF0
FFFFF0
FFFFF0
ENDCHAR
STARTCHAR 0306
ENCODING 774
SWIDTH 0 0
DWIDTH 0 0
BBX 22 7 -24 41
BITMAP
F8007C
F8007C
7C00F8
3F03F0
1FFFE0
0FFFC0
03FF00
ENDCHAR
STARTCHAR 0307
ENCODING 775
SWIDTH 0 0
DWIDTH 0 0
BBX 7 7 -12 42
BITMAP
3C
7E
FE
FE
FE
FE
7C
ENDCHAR
STARTCHAR 0308
ENCODING 776
SWIDTH 0 0
DWIDTH 0 0
BBX 21 7 -25 42
BITMAP
3C01E0
7E03F0
FE07F0
FF07F8
FE07F0
FE03F0
7C03E0
ENDCHAR
STARTCHAR 0309
ENCODING 777
SWIDTH 0 0
DWIDTH 0 0
BBX 14 13 -16 41
BITMAP
0F80
3FF0
7FF8
FFF8
F87C
F03C
003C
003C
0078
00F0
03E0
07C0
0780
ENDCHAR
STARTCHAR 030A
ENCODING 778
SWIDTH 0 0
DWIDTH 0 0
BBX 12 11 -15 41
BITMAP
1F80
7FC0
71E0
E0E0
E070
E070
E070
F0E0
7FE0
3FC0
1F80
ENDCHAR
STARTCHAR 030C
ENCODING 780
SWIDTH 0 0
DWIDTH 0 0
BBX 22 9 -25 40
BITMAP
FC00FC
3E01F8
3F03F0
1F87E0
0FCFC0
07FF80
03FF00
01FF00
00FE00
ENDCHAR
STARTCHAR 031B
ENCODING 795
SWIDTH 0 0
DWIDTH 0 0
BBX 11 9 -13 37
BITMAP
03E0
03E0
03E0
03E0
03E0
03E0
FFC0
FF80
FF00
ENDCHAR
STARTCHAR 0323
ENCODING 803
SWIDTH 0 0
DWIDTH 0 0
BBX 7 8 -8 -15
BITMAP
30
7C
FE
FE
FE
FE
FC
38
ENDCHAR
STARTCHAR 0327
ENCODING 807
SWIDTH 0 0
DWIDTH 0 0
BBX 12 17 -14 -17
BITMAP
3800
7800
7000
7000
FF80
FFC0
FFE0
00F0
0070
0070
0070
00F0
01E0
FFE0
FFC0
FF80
1800
ENDCHAR
STARTCHAR 0328
ENCODING 808
SWIDTH 0 0
DWIDTH 0 0
BBX 11 12 -13 -12
BITMAP
0400
1F00
3E00
7C00
7800
7800
F800
F800
7C00
7FE0
3FE0
1FE0
ENDCHAR
STARTCHAR 1E80
ENCODING 7808
SWIDTH 990 0
DWIDTH 66 0
BBX 64 63 1 0
BITMAP
000003F000000000
000001F800000000
000000F800000000
000000FC00000000
0000007C00000000
0000003E00000000
0000003E00000000
0000001F00000000
0000000F80000000
0000000F80000000
00000007C0000000
00000003C0000000
0000000000000000
0000000000000000
0000000000000000
0000000000000000
FC000007E000003F
FC000007E000003F
7C000007E000003F
7E00000FF000003E
7E00000FF000007E
7E00000FF000007E
3E00001FF800007E
3F00001FF800007C
3F00001FF80000FC
3F00003FFC0000FC
1F00003FFC0000F8
1F80003F7C0000F8
1F80007E7E0001F8
0F80007E7E0001F8
0F80007E3E0001F0
0FC0007C3F0003F0
0FC000FC3F0003F0
07C000FC1F0003F0
07C000F81F8003E0
07E001F81F8007E0
07E001F80F8007E0
03E001F00FC007E0
03F003F00FC007C0
03F003F00FC00FC0
03F003E007E00FC0
01F007E007E00F80
01F807E007E00F80
01F807C003F01F80
00F80FC003F01F80
00F80FC003F01F00
00FC0F8001F81F00
00FC1F8001F83F00
007C1F8001F83F00
007C1F0000F83E00
007E3F0000FC7E00
007E3F0000FC7E00
003E3E00007C7E00
003E7E00007E7C00
003F7E00007EFC00
003F7E00003EFC00
001FFC00003FF800
001FFC00003FF800
001FFC00001FF800
000FF800001FF800
000FF800001FF000
000FF800000FF000
000FF000000FF000
ENDCHAR
STARTCHAR 1E81
ENCODING 7809
SWIDTH 810 0
DWIDTH 54 0
BBX 50 52 2 0
BITMAP
0001F800000000
0000FC00000000
0000FC00000000
00007E00000000
00003E00000000
00003F00000000
00001F00000000
00000F80000000
00000F80000000
000007C0000000
000003E0000000
000003E0000000
00000000000000
00000000000000
00000000000000
00000000000000
00000000000000
FC0003F00007C0
7C0003F0000FC0
7C0003F8000FC0
7E0003F8000F80
7E0007F8000F80
3E0007FC001F80
3E0007FC001F80
3F000FFC001F00
1F000FFE001F00
1F000FBE003F00
1F801FBE003E00
1F801F3F003E00
0F801F3F003E00
0F803F1F007E00
0FC03F1F007C00
07C03E1F807C00
07C03E0F80FC00
07C07E0F80FC00
07E07C0FC0F800
03E07C07C0F800
03E0FC07C1F800
03F0F807E1F000
03F0F803E1F000
01F1F803E1F000
01F1F003F3F000
01F9F003F3E000
00FBF001F3E000
00FBF001F3E000
00FBE001FFC000
00FFE000FFC000
007FE000FFC000
007FC000FFC000
007FC0007F8000
003FC0007F8000
003F80007F8000
ENDCHAR
STARTCHAR 1E82
ENCODING 7810
SWIDTH 990 0
DWIDTH 66 0
BBX 64 63 1 0
BITMAP
000000000FC00000
000000000F800000
000000001F800000
000000003F000000
000000003E000000
000000007E000000
000000007C000000
00000000F8000000
00000000F8000000
00000001F0000000
00000001E0000000
00000003E0000000
0000000000000000
0000000000000000
0000000000000000
0000000000000000
FC000007E000003F
FC000007E000003F
7C000007E000003F
7E00000FF000003E
7E00000FF000007E
7E00000FF000007E
3E00001FF800007E
3F00001FF800007C
3F00001FF80000FC
3F00003FFC0000FC
1F00003FFC0000F8
1F80003F7C0000F8
1F80007E7E0001F8
0F80007E7E0001F8
0F80007E3E0001F0
0FC0007C3F0003F0
0FC000FC3F0003F0
07C000FC1F0003F0
07C000F81F8003E0
07E001F81F8007E0
07E001F80F8007E0
03E001F00FC007E0
03F003F00FC007C0
03F003F00FC00FC0
03F003E007E00FC0
01F007E007E00F80
01F807E007E00F80
01F807C003F01F80
00F80FC003F01F80
00F80FC003F01F00
00FC0F8001F81F00
00FC1F8001F83F00
007C1F8001F83F00
007C1F0000F83E00
007E3F0000FC7E00
007E3F0000FC7E00
003E3E00007C7E00
003E7E00007E7C00
003F7E00007EFC00
003F7E00003EFC00
001FFC00003FF800
001FFC00003FF800
001FFC00001FF800
000FF800001FF800
000FF800001FF000
000FF800000FF000
000FF000000FF000
ENDCHAR
STARTCHAR 1E83
ENCODING 7811
SWIDTH 810 0
DWIDTH 54 0
BBX 50 52 2 0
BITMAP
00000003F00000
00000007E00000
0000000FC00000
0000000FC00000
0000001F800000
0000001F000000
0000003F000000
0000003E000000
0000007C000000
0000007C000000
000000F8000000
000000F0000000
00000000000000
00000000000000
00000000000000
00000000000000
00000000000000
FC0003F00007C0
7C0003F0000FC0
7C0003F8000FC0
7E0003F8000F80
7E0007F8000F80
3E0007FC001F80
3E0007FC001F80
3F000FFC001F00
1F000FFE001F00
1F000FBE003F00
1F801FBE003E00
1F801F3F003E00
0F801F3F003E00
0F803F1F007E00
0FC03F1F007C00
07C03E1F807C00
07C03E0F80FC00
07C07E0F80FC00
07E07C0FC0F800
03E07C07C0F800
03E0FC07C1F800
03F0F807E1F000
03F0F803E1F000
01F1F803E1F000
01F1F003F3F000
01F9F003F3E000
00FBF001F3E000
00FBF001F3E000
00FBE001FFC000
00FFE000FFC000
007FE000FFC000
007FC000FFC000
007FC0007F8000
003FC0007F8000
003F80007F8000
ENDCHAR
STARTCHAR 1E84
ENCODING 7812
SWIDTH 990 0
DWIDTH 66 0
BBX 64 61 1 0
BITMAP
0000006003000000
000001F00FC00000
000003F81FC00000
000003F81FC00000
000003F81FE00000
000003F81FC00000
000001F80FC00000
000000E007000000
0000000000000000
0000000000000000
0000000000000000
0000000000000000
0000000000000000
0000000000000000
FC000007E000003F
FC000007E000003F
7C000007E000003F
7E00000FF000003E
7E00000FF000007E
7E00000FF000007E
3E00001FF800007E
3F00001FF800007C
3F00001FF80000FC
3F00003FFC0000FC
1F00003FFC0000F8
1F80003F7C0000F8
1F80007E7E0001F8
0F80007E7E0001F8
0F80007E3E0001F0
0FC0007C3F0003F0
0FC000FC3F0003F0
07C000FC1F0003F0
07C000F81F8003E0
07E001F81F8007E0
07E001F80F8007E0
03E001F00FC007E0
03F003F00FC007C0
03F003F00FC00FC0
03F003E007E00FC0
01F007E007E00F80
01F807E007E00F80
01F807C003F01F80
00F80FC003F01F80
00F80FC003F01F00
00FC0F8001F81F00
00FC1F8001F83F00
007C1F8001F83F00
007C1F0000F83E00
007E3F0000FC7E00
007E3F0000FC7E00
003E3E00007C7E00
003E7E00007E7C00
003F7E00007EFC00
003F7E00003EFC00
001FFC00003FF800
001FFC00003FF800
001FFC00001FF800
000FF800001FF800
000FF800001FF000
000FF800000FF000
000FF000000FF000
ENDCHAR
STARTCHAR 1E85
ENCODING 7813
SWIDTH 810 0
DWIDTH 54 0
BBX 50 49 2 0
BITMAP
00007803C00000
0000FC07E00000
0001FE0FF00000
0001FE0FF00000
0001FE0FF00000
0000FC07E00000
00007803C00000
00000000000000
00000000000000
00000000000000
00000000000000
00000000000000
00000000000000
00000000000000
FC0003F00007C0
7C0003F0000FC0
7C0003F8000FC0
7E0003F8000F80
7E0007F8000F80
3E0007FC001F80
3E0007FC001F80
3F000FFC001F00
1F000FFE001F00
1F000FBE003F00
1F801FBE003E00
1F801F3F003E00
0F801F3F003E00
0F803F1F007E00
0FC03F1F007C00
07C03E1F807C00
07C03E0F80FC00
07C07E0F80FC00
07E07C0FC0F800
03E07C07C0F800
03E0FC07C1F800
03F0F807E1F000
03F0F803E1F000
01F1F803E1F000
01F1F003F3F000
01F9F003F3E000
00FBF001F3E000
00FBF001F3E000
00FBE001FFC000
00FFE000FFC000
007FE000FFC000
007FC000FFC000
007FC0007F8000
003FC0007F8000
003F80007F8000
ENDCHAR
STARTCHAR 1EA0
ENCODING 7840
SWIDTH 675 0
DWIDTH 45 0
BBX 40 62 3 -15
BITMAP
00007C0000
0000FE0000
0000FE0000
0000FF0000
0001FF0000
0001FF0000
0001FF8000
0003FF8000
0003EFC000
0007EFC000
0007C7C000
0007C7E000
000FC3E000
000F83E000
000F83F000
001F81F000
001F01F800
003F01F800
003F00F800
003E00FC00
007E00FC00
007E007C00
007C007E00
00FC003E00
00F8003F00
01F8003F00
01F8001F00
01F0001F80
03F0001F80
03FFFFFF80
03FFFFFFC0
07FFFFFFC0
07FFFFFFE0
0FC00007E0
0FC00003E0
0F800003F0
1F800003F0
1F800001F0
1F000001F8
3F000001F8
3F000000FC
7E000000FC
7E0000007C
7E0000007E
FC0000007E
FC0000003F
F80000003F
0000000000
0000000000
0000000000
0000000000
0000000000
0000000000
0000000000
0000180000
00007C0000
0000FE0000
0000FE0000
0000FE0000
0000FE0000
00007E0000
0000380000
ENDCHAR
STARTCHAR 1EA1
ENCODING 7841
SWIDTH 615 0
DWIDTH 41 0
BBX 33 51 3 -15
BITMAP
001FE00000
00FFFC1F80
01FFFE1F80
03FFFF1F80
07FFFF9F80
0FF80FDF80
1FE003DF80
1FC001FF80
3F8000FF80
3F00007F80
7F00003F80
7E00003F80
7E00003F80
7E00001F80
FC00001F80
FC00001F80
FC00001F80
FC00001F80
FC00001F80
FC00001F80
FC00001F80
FC00001F80
FC00001F80
7E00001F80
7E00003F80
7E00003F80
7F00007F80
3F80007F80
3F8000FF80
1FC001FF80
1FF007DF80
0FFF7F9F80
07FFFF1F80
03FFFE1F80
01FFFC1F80
007FF01F80
0000000000
0000000000
0000000000
0000000000
0000000000
0000000000
0000000000
0000400000
0001F00000
0003F80000
0003F80000
0003F80000
0003F80000
0001F80000
0000E00000
ENDCHAR
STARTCHAR 1EA2
ENCODING 7842
SWIDTH 675 0
DWIDTH 45 0
BBX 40 64 3 0
BITMAP
0000780000
0001FF0000
0003FF8000
0007FFC000
0007C3C000
000783E000
000001E000
000003C000
000003C000
00000F8000
00001F0000
00003E0000
00007C0000
0000000000
0000000000
0000000000
0000000000
00007C0000
0000FE0000
0000FE0000
0000FF0000
0001FF0000
0001FF0000
0001FF8000
0003FF8000
0003EFC000
0007EFC000
0007C7C000
0007C7E000
000FC3E000
000F83E000
000F83F000
001F81F000
001F01F800
003F01F800
003F00F800
003E00FC00
007E00FC00
007E007C00
007C007E00
00FC003E00
00F8003F00
01F8003F00
01F8001F00
01F0001F80
03F0001F80
03FFFFFF80
03FFFFFFC0
07FFFFFFC0
07FFFFFFE0
0FC00007E0
0FC00003E0
0F800003F0
1F800003F0
1F800001F0
1F000001F8
3F000001F8
3F000000FC
7E000000FC
7E0000007C
7E0000007E
FC0000007E
FC0000003F
F80000003F
ENDCHAR
STARTCHAR 1EA3
ENCODING 7843
SWIDTH 615 0
DWIDTH 41 0
BBX 33 52 3 0
BITMAP
0003F80000
000FFE0000
001FFF0000
001F1F0000
003E0F0000
00000F0000
00000F0000
00000F0000
00001F0000
00003E0000
0000F80000
0001F00000
0000000000
0000000000
0000000000
0000000000
001FE00000
00FFFC1F80
01FFFE1F80
03FFFF1F80
07FFFF9F80
0FF80FDF80
1FE003DF80
1FC001FF80
3F8000FF80
3F00007F80
7F00003F80
7E00003F80
7E00003F80
7E00001F80
FC00001F80
FC00001F80
FC00001F80
FC00001F80
FC00001F80
FC00001F80
FC00001F80
FC00001F80
FC00001F80
7E00001F80
7E00003F80
7E00003F80
7F00007F80
3F80007F80
3F8000FF80
1FC001FF80
1FF007DF80
0FFF7F9F80
07FFFF1F80
03FFFE1F80
01FFFC1F80
007FF01F80
ENDCHAR
STARTCHAR 1EA4
ENCODING 7844
SWIDTH 675 0
DWIDTH 45 0
BBX 40 71 3 0
BITMAP
000000003F
000000007E
000000007C
00000000FC
00000000F8
00000001F0
00000003F0
00000003E0
00000007C0
00000007C0
00007C0F80
0000FE0F00
0001FF0000
0003FF8000
0007EFC000
000FC7E000
001F83F000
001F01F800
003E00FC00
007C007C00
0000000000
0000000000
0000000000
0000000000
00007C0000
0000FE0000
0000FE0000
0000FF0000
0001FF0000
0001FF0000
0001FF8000
0003FF8000
0003EFC000
0007EFC000
0007C7C000
0007C7E000
000FC3E000
000F83E000
000F83F000
001F81F000
001F01F800
003F01F800
003F00F800
003E00FC00
007E00FC00
007E007C00
007C007E00
00FC003E00
00F8003F00
01F8003F00
01F8001F00
01F0001F80
03F0001F80
03FFFFFF80
03FFFFFFC0
07FFFFFFC0
07FFFFFFE0
0FC00007E0
0FC00003E0
0F800003F0
1F800003F0
1F800001F0
1F000001F8
3F000001F8
3F000000FC
7E000000FC
7E0000007C
7E0000007E
FC0000007E
FC0000003F
F80000003F
ENDCHAR
STARTCHAR 1EA5
ENCODING 7845
SWIDTH 615 0
DWIDTH 41 0
BBX 38 60 3 0
BITMAP
00000000FC
00000001F8
00000001F8
00000003F0
00000003E0
00000007E0
00000007C0
0000000F80
0000001F80
0000001F00
0000003E00
0003F83E00
0007FC0000
000FFC0000
000FBE0000
001F3F0000
003E1F8000
007E0FC000
00FC07E000
01F803F000
0000000000
0000000000
0000000000
0000000000
001FE00000
00FFFC1F80
01FFFE1F80
03FFFF1F80
07FFFF9F80
0FF80FDF80
1FE003DF80
1FC001FF80
3F8000FF80
3F00007F80
7F00003F80
7E00003F80
7E00003F80
7E00001F80
FC00001F80
FC00001F80
FC00001F80
FC00001F80
FC00001F80
FC00001F80
FC00001F80
FC00001F80
FC00001F80
7E00001F80
7E00003F80
7E00003F80
7F00007F80
3F80007F80
3F8000FF80
1FC001FF80
1FF007DF80
0FFF7F9F80
07FFFF1F80
03FFFE1F80
01FFFC1F80
007FF01F80
ENDCHAR
STARTCHAR 1EA6
ENCODING 7846
SWIDTH 675 0
DWIDTH 45 0
BBX 40 71 3 0
BITMAP
00000FC000
000007E000
000003E000
000003F000
000001F800
000000F800
000000FC00
0000007C00
0000003E00
0000003E00
00007C1F00
0000FE0F00
0001FF0000
0003FF8000
0007EFC000
000FC7E000
001F83F000
001F01F800
003E00FC00
007C007C00
0000000000
0000000000
0000000000
0000000000
00007C0000
0000FE0000
0000FE0000
0000FF0000
0001FF0000
0001FF0000
0001FF8000
0003FF8000
0003EFC000
0007EFC000
0007C7C000
0007C7E000
000FC3E000
000F83E000
000F83F000
001F81F000
001F01F800
003F01F800
003F00F800
003E00FC00
007E00FC00
007E007C00
007C007E00
00FC003E00
00F8003F00
01F8003F00
01F8001F00
01F0001F80
03F0001F80
03FFFFFF80
03FFFFFFC0
07FFFFFFC0
07FFFFFFE0
0FC00007E0
0FC00003E0
0F800003F0
1F800003F0
1F800001F0
1F000001F8
3F000001F8
3F000000FC
7E000000FC
7E0000007C
7E0000007E
FC0000007E
FC0000003F
F80000003F
ENDCHAR
STARTCHAR 1EA7
ENCODING 7847
SWIDTH 615 0
DWIDTH 41 0
BBX 33 60 3 0
BITMAP
00003F0000
00003F0000
00001F8000
00000FC000
00000FC000
000007E000
000003E000
000003F000
000001F000
000000F800
0000007800
0003F87C00
0007FC0000
000FFC0000
000FBE0000
001F3F0000
003E1F8000
007E0FC000
00FC07E000
01F803F000
0000000000
0000000000
0000000000
0000000000
001FE00000
00FFFC1F80
01FFFE1F80
03FFFF1F80
07FFFF9F80
0FF80FDF80
1FE003DF80
1FC001FF80
3F8000FF80
3F00007F80
7F00003F80
7E00003F80
7E00003F80
7E00001F80
FC00001F80
FC00001F80
FC00001F80
FC00001F80
FC00001F80
FC00001F80
FC00001F80
FC00001F80
FC00001F80
7E00001F80
7E00003F80
7E00003F80
7F00007F80
3F80007F80
3F8000FF80
1FC001FF80
1FF007DF80
0FFF7F9F80
07FFFF1F80
03FFFE1F80
01FFFC1F80
007FF01F80
ENDCHAR
STARTCHAR 1EA8
ENCODING 7848
SWIDTH 675 0
DWIDTH 45 0
BBX 40 72 3 0
BITMAP
0000001F80
0000007FE0
000000FFF0
000001F9F8
000001F0F8
000001E078
0000000078
00000000F8
00000000F0
00000003E0
00000007C0
00007C0F80
0000FE0000
0001FF0000
0003FF8000
0007EFC000
000FC7E000
001F83F000
001F01F800
003E00FC00
007C007C00
0000000000
0000000000
0000000000
0000000000
00007C0000
0000FE0000
0000FE0000
0000FF0000
0001FF0000
0001FF0000
0001FF8000
0003FF8000
0003EFC000
0007EFC000
0007C7C000
0007C7E000
000FC3E000
000F83E000
000F83F000
001F81F000
001F01F800
003F01F800
003F00F800
003E00FC00
007E00FC00
007E007C00
007C007E00
00FC003E00
00F8003F00
01F8003F00
01F8001F00
01F0001F80
03F0001F80
03FFFFFF80
03FFFFFFC0
07FFFFFFC0
07FFFFFFE0
0FC00007E0
0FC00003E0
0F800003F0
1F800003F0
1F800001F0
1F000001F8
3F000001F8
3F000000FC
7E000000FC
7E0000007C
7E0000007E
FC0000007E
FC0000003F
F80000003F
ENDCHAR
STARTCHAR 1EA9
ENCODING 7849
SWIDTH 615 0
DWIDTH 41 0
BBX 35 60 3 1
BITMAP
000001FF00
000003FF80
000007FFC0
000007C3C0
00000783E0
00000001E0
00000003E0
00000003C0
00000007C0
0000001F00
0000003E00
0003F87C00
0007FC0000
000FFC0000
000FBE0000
001F3F0000
003E1F8000
007E0FC000
00FC07E000
01F803F000
0000000000
0000000000
0000000000
0000000000
001FE00000
00FFFC1F80
01FFFE1F80
03FFFF1F80
07FFFF9F80
0FF80FDF80
1FE003DF80
1FC001FF80
3F8000FF80
3F00007F80
7F00003F80
7E00003F80
7E00003F80
7E00001F80
FC00001F80
FC00001F80
FC00001F80
FC00001F80
FC00001F80
FC00001F80
FC00001F80
FC00001F80
FC00001F80
7E00001F80
7E00003F80
7E00003F80
7F00007F80
3F80007F80
3F8000FF80
1FC001FF80
1FF007DF80
0FFF7F9F80
07FFFF1F80
03FFFE1F80
01FFFC1F80
007FF01F80
ENDCHAR
STARTCHAR 1EAA
ENCODING 7850
SWIDTH 675 0
DWIDTH 45 0
BBX 40 71 3 0
BITMAP
0003803800
000FE03800
001FF87800
001FFC7800
001E7FF800
003C1FF000
003C0FE000
003C038000
0000000000
0000000000
00007C0000
0000FE0000
0001FF0000
0003FF8000
0007EFC000
000FC7E000
001F83F000
001F01F800
003E00FC00
007C007C00
0000000000
0000000000
0000000000
0000000000
00007C0000
0000FE0000
0000FE0000
0000FF0000
0001FF0000
0001FF0000
0001FF8000
0003FF8000
0003EFC000
0007EFC000
0007C7C000
0007C7E000
000FC3E000
000F83E000
000F83F000
001F81F000
001F01F800
003F01F800
003F00F800
003E00FC00
007E00FC00
007E007C00
007C007E00
00FC003E00
00F8003F00
01F8003F00
01F8001F00
01F0001F80
03F0001F80
03FFFFFF80
03FFFFFFC0
07FFFFFFC0
07FFFFFFE0
0FC00007E0
0FC00003E0
0F800003F0
1F800003F0
1F800001F0
1F000001F8
3F000001F8
3F000000FC
7E000000FC
7E0000007C
7E0000007E
FC0000007E
FC0000003F
F80000003F
ENDCHAR
STARTCHAR 1EAB
ENCODING 7851
SWIDTH 615 0
DWIDTH 41 0
BBX 33 59 3 0
BITMAP
001F00E000
003FC1E000
007FE1E000
00FFFFE000
00F0FFC000
00F07F8000
00E01F0000
0000000000
0000000000
0000000000
0003F80000
0007FC0000
000FFC0000
000FBE0000
001F3F0000
003E1F8000
007E0FC000
00FC07E000
01F803F000
0000000000
0000000000
0000000000
0000000000
001FE00000
00FFFC1F80
01FFFE1F80
03FFFF1F80
07FFFF9F80
0FF80FDF80
1FE003DF80
1FC001FF80
3F8000FF80
3F00007F80
7F00003F80
7E00003F80
7E00003F80
7E00001F80
FC00001F80
FC00001F80
FC00001F80
FC00001F80
FC00001F80
FC00001F80
FC00001F80
FC00001F80
FC00001F80
7E00001F80
7E00003F80
7E00003F80
7F00007F80
3F80007F80
3F8000FF80
1FC001FF80
1FF007DF80
0FFF7F9F80
07FFFF1F80
03FFFE1F80
01FFFC1F80
007FF01F80
ENDCHAR
STARTCHAR 1EAC
ENCODING 7852
SWIDTH 675 0
DWIDTH 45 0
BBX 40 76 3 -15
BITMAP
00007C0000
0000FE0000
0001FF0000
0003FF8000
0007EFC000
000FC7E000
001F83F000
001F01F800
003E00FC00
007C007C00
0000000000
0000000000
0000000000
0000000000
00007C0000
0000FE0000
0000FE0000
0000FF0000
0001FF0000
0001FF0000
0001FF8000
0003FF8000
0003EFC000
0007EFC000
0007C7C000
0007C7E000
000FC3E000
000F83E000
000F83F000
001F81F000
001F01F800
003F01F800
003F00F800
003E00FC00
007E00FC00
007E007C00
007C007E00
00FC003E00
00F8003F00
01F8003F00
01F8001F00
01F0001F80
03F0001F80
03FFFFFF80
03FFFFFFC0
07FFFFFFC0
07FFFFFFE0
0FC00007E0
0FC00003E0
0F800003F0
1F800003F0
1F800001F0
1F000001F8
3F000001F8
3F000000FC
7E000000FC
7E0000007C
7E0000007E
FC0000007E
FC0000003F
F80000003F
0000000000
0000000000
0000000000
0000000000
0000000000
0000000000
0000000000
0000180000
00007C0000
0000FE0000
0000FE0000
0000FE0000
0000FE0000
00007E0000
0000380000
ENDCHAR
STARTCHAR 1EAD
ENCODING 7853
SWIDTH 615 0
DWIDTH 41 0
BBX 33 64 3 -15
BITMAP
0003F80000
0007FC0000
000FFC0000
000FBE0000
001F3F0000
003E1F8000
007E0FC000
00FC07E000
01F803F000
0000000000
0000000000
0000000000
0000000000
001FE00000
00FFFC1F80
01FFFE1F80
03FFFF1F80
07FFFF9F80
0FF80FDF80
1FE003DF80
1FC001FF80
3F8000FF80
3F00007F80
7F00003F80
7E00003F80
7E00003F80
7E00001F80
FC00001F80
FC00001F80
FC00001F80
FC00001F80
FC00001F80
FC00001F80
FC00001F80
FC00001F80
FC00001F80
7E00001F80
7E00003F80
7E00003F80
7F00007F80
3F80007F80
3F8000FF80
1FC001FF80
1FF007DF80
0FFF7F9F80
07FFFF1F80
03FFFE1F80
01FFFC1F80
007FF01F80
0000000000
0000000000
0000000000
0000000000
0000000000
0000000000
0000000000
0000400000
0001F00000
0003F80000
0003F80000
0003F80000
0003F80000
0001F80000
0000E00000
ENDCHAR
STARTCHAR 1EAE
ENCODING 7854
SWIDTH 675 0
DWIDTH 45 0
BBX 40 73 3 0
BITMAP
000000FC00
000001F800
000001F800
000003F000
000003E000
000007E000
000007C000
00000F8000
00000F8000
00001F0000
00003E0000
00003E0000
0000000000
0000000000
007C003E00
007E007C00
003F01F800
001FFFF000
000FFFE000
0007FFC000
0000FE0000
0000000000
0000000000
0000000000
0000000000
0000000000
00007C0000
0000FE0000
0000FE0000
0000FF0000
0001FF0000
0001FF0000
0001FF8000
0003FF8000
0003EFC000
0007EFC000
0007C7C000
0007C7E000
000FC3E000
000F83E000
000F83F000
001F81F000
001F01F800
003F01F800
003F00F800
003E00FC00
007E00FC00
007E007C00
007C007E00
00FC003E00
00F8003F00
01F8003F00
01F8001F00
01F0001F80
03F0001F80
03FFFFFF80
03FFFFFFC0
07FFFFFFC0
07FFFFFFE0
0FC00007E0
0FC00003E0
0F800003F0
1F800003F0
1F800001F0
1F000001F8
3F000001F8
3F000000FC
7E000000FC
7E0000007C
7E0000007E
FC0000007E
FC0000003F
F80000003F
ENDCHAR
STARTCHAR 1EAF
ENCODING 7855
SWIDTH 615 0
DWIDTH 41 0
BBX 33 61 3 0
BITMAP
000007F000
000007E000
00000FC000
00000F8000
00001F8000
00001F0000
00003E0000
00003E0000
00007C0000
0000F80000
0000F80000
0001F00000
0000000000
03E000F800
01F001F000
01F803E000
00FE0FE000
007FFFC000
003FFF0000
000FFE0000
0000000000
0000000000
0000000000
0000000000
0000000000
001FE00000
00FFFC1F80
01FFFE1F80
03FFFF1F80
07FFFF9F80
0FF80FDF80
1FE003DF80
1FC001FF80
3F8000FF80
3F00007F80
7F00003F80
7E00003F80
7E00003F80
7E00001F80
FC00001F80
FC00001F80
FC00001F80
FC00001F80
FC00001F80
FC00001F80
FC00001F80
FC00001F80
FC00001F80
7E00001F80
7E00003F80
7E00003F80
7F00007F80
3F80007F80
3F8000FF80
1FC001FF80
1FF007DF80
0FFF7F9F80
07FFFF1F80
03FFFE1F80
01FFFC1F80
007FF01F80
ENDCHAR
STARTCHAR 1EB0
ENCODING 7856
SWIDTH 675 0
DWIDTH 45 0
BBX 40 73 3 0
BITMAP
003F000000
003F000000
001F800000
000F800000
000FC00000
0007C00000
0003E00000
0003E00000
0001F00000
0000F80000
0000F80000
00007C0000
0000000000
0000000000
007C003E00
007E007C00
003F00F800
001FFFF000
000FFFE000
0003FFC000
0000FF0000
0000000000
0000000000
0000000000
0000000000
0000000000
00007C0000
0000FE0000
0000FE0000
0000FF0000
0001FF0000
0001FF0000
0001FF8000
0003FF8000
0003EFC000
0007EFC000
0007C7C000
0007C7E000
000FC3E000
000F83E000
000F83F000
001F81F000
001F01F800
003F01F800
003F00F800
003E00FC00
007E00FC00
007E007C00
007C007E00
00FC003E00
00F8003F00
01F8003F00
01F8001F00
01F0001F80
03F0001F80
03FFFFFF80
03FFFFFFC0
07FFFFFFC0
07FFFFFFE0
0FC00007E0
0FC00003E0
0F800003F0
1F800003F0
1F800001F0
1F000001F8
3F000001F8
3F000000FC
7E000000FC
7E0000007C
7E0000007E
FC0000007E
FC0000003F
F80000003F
ENDCHAR
STARTCHAR 1EB1
ENCODING 7857
SWIDTH 615 0
DWIDTH 41 0
BBX 33 61 3 0
BITMAP
00FC000000
00FC000000
007E000000
003E000000
003F000000
001F000000
000F800000
000FC00000
0007C00000
0003E00000
0003E00000
0001F00000
0000000000
03E000F800
01F001F000
00F803F000
00FE0FE000
007FFFC000
001FFF8000
000FFE0000
0000000000
0000000000
0000000000
0000000000
0000000000
001FE00000
00FFFC1F80
01FFFE1F80
03FFFF1F80
07FFFF9F80
0FF80FDF80
1FE003DF80
1FC001FF80
3F8000FF80
3F00007F80
7F00003F80
7E00003F80
7E00003F80
7E00001F80
FC00001F80
FC00001F80
FC00001F80
FC00001F80
FC00001F80
FC00001F80
FC00001F80
FC00001F80
FC00001F80
7E00001F80
7E00003F80
7E00003F80
7F00007F80
3F80007F80
3F8000FF80
1FC001FF80
1FF007DF80
0FFF7F9F80
07FFFF1F80
03FFFE1F80
01FFFC1F80
007FF01F80
ENDCHAR
STARTCHAR 1EB2
ENCODING 7858
SWIDTH 675 0
DWIDTH 45 0
BBX 40 73 3 0
BITMAP
0000FE0000
0003FF8000
0003FFC000
0007C7C000
000783E000
000001E000
000003E000
000003C000
000007C000
00000F8000
00001F0000
00003C0000
0000000000
0000000000
007C003E00
007E007C00
003F01F800
001FFFF000
000FFFE000
0007FFC000
0000FE0000
0000000000
0000000000
0000000000
0000000000
0000000000
00007C0000
0000FE0000
0000FE0000
0000FF0000
0001FF0000
0001FF0000
0001FF8000
0003FF8000
0003EFC000
0007EFC000
0007C7C000
0007C7E000
000FC3E000
000F83E000
000F83F000
001F81F000
001F01F800
003F01F800
003F00F800
003E00FC00
007E00FC00
007E007C00
007C007E00
00FC003E00
00F8003F00
01F8003F00
01F8001F00
01F0001F80
03F0001F80
03FFFFFF80
03FFFFFFC0
07FFFFFFC0
07FFFFFFE0
0FC00007E0
0FC00003E0
0F800003F0
1F800003F0
1F800001F0
1F000001F8
3F000001F8
3F000000FC
7E000000FC
7E0000007C
7E0000007E
FC0000007E
FC0000003F
F80000003F
ENDCHAR
STARTCHAR 1EB3
ENCODING 7859
SWIDTH 615 0
DWIDTH 41 0
BBX 33 62 3 0
BITMAP
0000E00000
0007FC0000
000FFE0000
001FFF0000
001E0F0000
003E0F0000
00000F0000
00000F0000
00001F0000
00003E0000
00007C0000
0000F80000
0001F00000
0000000000
03E000F800
01F001F000
01F803E000
00FE0FE000
007FFFC000
003FFF0000
000FFE0000
0000000000
0000000000
0000000000
0000000000
0000000000
001FE00000
00FFFC1F80
01FFFE1F80
03FFFF1F80
07FFFF9F80
0FF80FDF80
1FE003DF80
1FC001FF80
3F8000FF80
3F00007F80
7F00003F80
7E00003F80
7E00003F80
7E00001F80
FC00001F80
FC00001F80
FC00001F80
FC00001F80
FC00001F80
FC00001F80
FC00001F80
FC00001F80
FC00001F80
7E00001F80
7E00003F80
7E00003F80
7F00007F80
3F80007F80
3F8000FF80
1FC001FF80
1FF007DF80
0FFF7F9F80
07FFFF1F80
03FFFE1F80
01FFFC1F80
007FF01F80
ENDCHAR
STARTCHAR 1EB4
ENCODING 7860
SWIDTH 675 0
DWIDTH 45 0
BBX 40 70 3 0
BITMAP
0003803800
000FE03800
001FF87800
001FFEF800
003E7FF000
003C1FF000
003C0FE000
003C010000
0000000000
0000000000
0000000000
007C003E00
007C007C00
003F01F800
001FFFF000
000FFFE000
0007FFC000
0000FE0000
0000000000
0000000000
0000000000
0000000000
0000000000
00007C0000
0000FE0000
0000FE0000
0000FF0000
0001FF0000
0001FF0000
0001FF8000
0003FF8000
0003EFC000
0007EFC000
0007C7C000
0007C7E000
000FC3E000
000F83E000
000F83F000
001F81F000
001F01F800
003F01F800
003F00F800
003E00FC00
007E00FC00
007E007C00
007C007E00
00FC003E00
00F8003F00
01F8003F00
01F8001F00
01F0001F80
03F0001F80
03FFFFFF80
03FFFFFFC0
07FFFFFFC0
07FFFFFFE0
0FC00007E0
0FC00003E0
0F800003F0
1F800003F0
1F800001F0
1F000001F8
3F000001F8
3F000000FC
7E000000FC
7E0000007C
7E0000007E
FC0000007E
FC0000003F
F80000003F
ENDCHAR
STARTCHAR 1EB5
ENCODING 7861
SWIDTH 615 0
DWIDTH 41 0
BBX 33 58 3 0
BITMAP
001F01E000
007FC1E000
007FE1E000
00FFFFC000
00F0FFC000
00E07F8000
00E01F0000
0000000000
0000000000
0000000000
03E000F800
01F001F000
01F803E000
00FE0FE000
007FFFC000
003FFF0000
000FFE0000
0000000000
0000000000
0000000000
0000000000
0000000000
001FE00000
00FFFC1F80
01FFFE1F80
03FFFF1F80
07FFFF9F80
0FF80FDF80
1FE003DF80
1FC001FF80
3F8000FF80
3F00007F80
7F00003F80
7E00003F80
7E00003F80
7E00001F80
FC00001F80
FC00001F80
FC00001F80
FC00001F80
FC00001F80
FC00001F80
FC00001F80
FC00001F80
FC00001F80
7E00001F80
7E00003F80
7E00003F80
7F00007F80
3F80007F80
3F8000FF80
1FC001FF80
1FF007DF80
0FFF7F9F80
07FFFF1F80
03FFFE1F80
01FFFC1F80
007FF01F80
ENDCHAR
STARTCHAR 1EB6
ENCODING 7862
SWIDTH 675 0
DWIDTH 45 0
BBX 40 74 3 -15
BITMAP
007C003E00
007C007C00
003F01F800
001FFFF000
000FFFE000
0007FFC000
0000FE0000
0000000000
0000000000
0000000000
0000000000
0000000000
00007C0000
0000FE0000
0000FE0000
0000FF0000
0001FF0000
0001FF0000
0001FF8000
0003FF8000
0003EFC000
0007EFC000
0007C7C000
0007C7E000
000FC3E000
000F83E000
000F83F000
001F81F000
001F01F800
003F01F800
003F00F800
003E00FC00
007E00FC00
007E007C00
007C007E00
00FC003E00
00F8003F00
01F8003F00
01F8001F00
01F0001F80
03F0001F80
03FFFFFF80
03FFFFFFC0
07FFFFFFC0
07FFFFFFE0
0FC00007E0
0FC00003E0
0F800003F0
1F800003F0
1F800001F0
1F000001F8
3F000001F8
3F000000FC
7E000000FC
7E0000007C
7E0000007E
FC0000007E
FC0000003F
F80000003F
0000000000
0000000000
0000000000
0000000000
0000000000
0000000000
0000000000
0000180000
00007C0000
0000FE0000
0000FE0000
0000FE0000
0000FE0000
00007E0000
0000380000
ENDCHAR
STARTCHAR 1EB7
ENCODING 7863
SWIDTH 615 0
DWIDTH 41 0
BBX 33 63 3 -15
BITMAP
03E000F800
01F001F000
01F803E000
00FE0FE000
007FFFC000
003FFF0000
000FFE0000
0000000000
0000000000
0000000000
0000000000
0000000000
001FE00000
00FFFC1F80
01FFFE1F80
03FFFF1F80
07FFFF9F80
0FF80FDF80
1FE003DF80
1FC001FF80
3F8000FF80
3F00007F80
7F00003F80
7E00003F80
7E00003F80
7E00001F80
FC00001F80
FC00001F80
FC00001F80
FC00001F80
FC00001F80
FC00001F80
FC00001F80
FC00001F80
FC00001F80
7E00001F80
7E00003F80
7E00003F80
7F00007F80
3F80007F80
3F8000FF80
1FC001FF80
1FF007DF80
0FFF7F9F80
07FFFF1F80
03FFFE1F80
01FFFC1F80
007FF01F80
0000000000
0000000000
0000000000
0000000000
0000000000
0000000000
0000000000
0000400000
0001F00000
0003F80000
0003F80000
0003F80000
0003F80000
0001F80000
0000E00000
ENDCHAR
STARTCHAR 1EB8
ENCODING 7864
SWIDTH 555 0
DWIDTH 37 0
BBX 29 62 5 -15
BITMAP
FFFFFFF8
FFFFFFF8
FFFFFFF8
FFFFFFF8
FFFFFFF8
FFFFFFF8
FC000000
FC000000
FC000000
FC000000
FC000000
FC000000
FC000000
FC000000
FC000000
FC000000
FC000000
FC000000
FC000000
FC000000
FC000000
FFFFFFC0
FFFFFFC0
FFFFFFC0
FFFFFFC0
FFFFFFC0
FC000000
FC000000
FC000000
FC000000
FC000000
FC000000
FC000000
FC000000
FC000000
FC000000
FC000000
FC000000
FC000000
FC000000
FC000000
FC000000
FFFFFFF8
FFFFFFF8
FFFFFFF8
FFFFFFF8
FFFFFFF8
00000000
00000000
00000000
00000000
00000000
00000000
00000000
00020000
000F8000
001FC000
001FC000
001FC000
001FC000
001F8000
00070000
ENDCHAR
STARTCHAR 1EB9
ENCODING 7865
SWIDTH 570 0
DWIDTH 38 0
BBX 32 51 3 -15
BITMAP
000FF800
007FFF00
00FFFFC0
03FFFFE0
07FF7FF0
0FF007F8
0FC001FC
1F8000FC
1F80007E
3F00007E
3E00003E
7E00003F
7E00003F
7E00001F
7C00001F
7C00001F
FFFFFFFF
FFFFFFFF
FFFFFFFF
FFFFFFFF
7C000000
7C000000
7C000000
7E000000
7E000000
3E00003F
3F00003F
3F00007E
1F8000FE
1FC001FC
0FF003F8
07FE3FF8
03FFFFF0
01FFFFC0
007FFF80
001FFE00
00000000
00000000
00000000
00000000
00000000
00000000
00000000
00008000
0003F000
0003F000
0007F800
0007F800
0007F000
0003F000
0001E000
ENDCHAR
STARTCHAR 1EBA
ENCODING 7866
SWIDTH 555 0
DWIDTH 37 0
BBX 29 64 5 0
BITMAP
00070000
003FE000
007FF000
00FFF800
00F07800
01F07800
00007800
00007800
0000F800
0001F000
0003E000
0007C000
000F8000
00000000
00000000
00000000
00000000
FFFFFFF8
FFFFFFF8
FFFFFFF8
FFFFFFF8
FFFFFFF8
FFFFFFF8
FC000000
FC000000
FC000000
FC000000
FC000000
FC000000
FC000000
FC000000
FC000000
FC000000
FC000000
FC000000
FC000000
FC000000
FC000000
FFFFFFC0
FFFFFFC0
FFFFFFC0
FFFFFFC0
FFFFFFC0
FC000000
FC000000
FC000000
FC000000
FC000000
FC000000
FC000000
FC000000
FC000000
FC000000
FC000000
FC000000
FC000000
FC000000
FC000000
FC000000
FFFFFFF8
FFFFFFF8
FFFFFFF8
FFFFFFF8
FFFFFFF8
ENDCHAR
STARTCHAR 1EBB
ENCODING 7867
SWIDTH 570 0
DWIDTH 38 0
BBX 32 52 3 0
BITMAP
0007F800
000FFC00
001FFE00
003F3F00
003C1F00
00000F00
00000F00
00001F00
00003E00
00007C00
0000F800
0001F000
00000000
00000000
00000000
00000000
000FF800
007FFF00
00FFFFC0
03FFFFE0
07FF7FF0
0FF007F8
0FC001FC
1F8000FC
1F80007E
3F00007E
3E00003E
7E00003F
7E00003F
7E00001F
7C00001F
7C00001F
FFFFFFFF
FFFFFFFF
FFFFFFFF
FFFFFFFF
7C000000
7C000000
7C000000
7E000000
7E000000
3E00003F
3F00003F
3F00007E
1F8000FE
1FC001FC
0FF003F8
07FE3FF8
03FFFFF0
01FFFFC0
007FFF80
001FFE00
ENDCHAR
STARTCHAR 1EBC
ENCODING 7868
SWIDTH 555 0
DWIDTH 37 0
BBX 29 60 5 0
BITMAP
01F80F00
03FE0F00
03FF0F00
07FFFE00
0787FE00
0703FC00
0700F800
00000000
00000000
00000000
00000000
00000000
00000000
FFFFFFF8
FFFFFFF8
FFFFFFF8
FFFFFFF8
FFFFFFF8
FFFFFFF8
FC000000
FC000000
FC000000
FC000000
FC000000
FC000000
FC000000
FC000000
FC000000
FC000000
FC000000
FC000000
FC000000
FC000000
FC000000
FFFFFFC0
FFFFFFC0
FFFFFFC0
FFFFFFC0
FFFFFFC0
FC000000
FC000000
FC000000
FC000000
FC000000
FC000000
FC000000
FC000000
FC000000
FC000000
FC000000
FC000000
FC000000
FC000000
FC000000
FC000000
FFFFFFF8
FFFFFFF8
FFFFFFF8
FFFFFFF8
FFFFFFF8
ENDCHAR
STARTCHAR 1EBD
ENCODING 7869
SWIDTH 570 0
DWIDTH 38 0
BBX 32 49 3 0
BITMAP
001E01C0
007F81C0
007FC1C0
00FFF3C0
00F3FFC0
01E0FF80
01E07F00
01E00C00
00000000
00000000
00000000
00000000
00000000
000FF800
007FFF00
00FFFFC0
03FFFFE0
07FF7FF0
0FF007F8
0FC001FC
1F8000FC
1F80007E
3F00007E
3E00003E
7E00003F
7E00003F
7E00001F
7C00001F
7C00001F
FFFFFFFF
FFFFFFFF
FFFFFFFF
FFFFFFFF
7C000000
7C000000
7C000000
7E000000
7E000000
3E00003F
3F00003F
3F00007E
1F8000FE
1FC001FC
0FF003F8
07FE3FF8
03FFFFF0
01FFFFC0
007FFF80
001FFE00
ENDCHAR
STARTCHAR 1EBE
ENCODING 7870
SWIDTH 555 0
DWIDTH 37 0
BBX 35 71 5 0
BITMAP
0000000FE0
0000000FC0
0000001F80
0000001F00
0000003F00
0000003E00
0000007C00
0000007C00
000000F800
000000F000
000F81F000
001FC3E000
003FE00000
007FF00000
00FDF80000
01F8FC0000
03F07E0000
07E03E0000
0FC01F0000
0F801F8000
0000000000
0000000000
0000000000
0000000000
FFFFFFF800
FFFFFFF800
FFFFFFF800
FFFFFFF800
FFFFFFF800
FFFFFFF800
FC00000000
FC00000000
FC00000000
FC00000000
FC00000000
FC00000000
FC00000000
FC00000000
FC00000000
FC00000000
FC00000000
FC00000000
FC00000000
FC00000000
FC00000000
FFFFFFC000
FFFFFFC000
FFFFFFC000
FFFFFFC000
FFFFFFC000
FC00000000
FC00000000
FC00000000
FC00000000
FC00000000
FC00000000
FC00000000
FC00000000
FC00000000
FC00000000
FC00000000
FC00000000
FC00000000
FC00000000
FC00000000
FC00000000
FFFFFFF800
FFFFFFF800
FFFFFFF800
FFFFFFF800
FFFFFFF800
ENDCHAR
STARTCHAR 1EBF
ENCODING 7871
SWIDTH 570 0
DWIDTH 38 0
BBX 37 60 3 0
BITMAP
00000001F8
00000001F8
00000003F0
00000003E0
00000007E0
00000007C0
0000000F80
0000001F80
0000001F00
0000003E00
0000003E00
0003F07C00
0007F80000
000FFC0000
001FFE0000
003F3F0000
007E1F8000
00FC0F8000
01F807C000
01F003E000
0200001000
0000000000
0000000000
0000000000
000FF80000
007FFF0000
00FFFFC000
03FFFFE000
07FF7FF000
0FF007F800
0FC001FC00
1F8000FC00
1F80007E00
3F00007E00
3E00003E00
7E00003F00
7E00003F00
7E00001F00
7C00001F00
7C00001F00
FFFFFFFF00
FFFFFFFF00
FFFFFFFF00
FFFFFFFF00
7C00000000
7C00000000
7C00000000
7E00000000
7E00000000
3E00003F00
3F00003F00
3F00007E00
1F8000FE00
1FC001FC00
0FF003F800
07FE3FF800
03FFFFF000
01FFFFC000
007FFF8000
001FFE0000
ENDCHAR
STARTCHAR 1EC0
ENCODING 7872
SWIDTH 555 0
DWIDTH 37 0
BBX 29 71 5 0
BITMAP
0001F800
0000FC00
0000FC00
00007E00
00003E00
00003F00
00001F00
00000F80
00000F80
000007C0
000F83E0
001FC3E0
003FE000
007FF000
00FDF800
01F8FC00
03F07C00
07E03E00
0FC03F00
1F801F80
00000000
00000000
00000000
00000000
FFFFFFF8
FFFFFFF8
FFFFFFF8
FFFFFFF8
FFFFFFF8
FFFFFFF8
FC000000
FC000000
FC000000
FC000000
FC000000
FC000000
FC000000
FC000000
FC000000
FC000000
FC000000
FC000000
FC000000
FC000000
FC000000
FFFFFFC0
FFFFFFC0
FFFFFFC0
FFFFFFC0
FFFFFFC0
FC000000
FC000000
FC000000
FC000000
FC000000
FC000000
FC000000
FC000000
FC000000
FC000000
FC000000
FC000000
FC000000
FC000000
FC000000
FC000000
FFFFFFF8
FFFFFFF8
FFFFFFF8
FFFFFFF8
FFFFFFF8
ENDCHAR
STARTCHAR 1EC1
ENCODING 7873
SWIDTH 570 0
DWIDTH 38 0
BBX 32 60 3 0
BITMAP
00007E00
00003F00
00001F00
00001F80
00000FC0
000007C0
000007E0
000003E0
000001F0
000001F0
000000F8
0003F078
0007F800
000FFC00
001FFE00
003F3F00
007E1F80
00FC0F80
01F807C0
01F003E0
02000010
00000000
00000000
00000000
000FF800
007FFF00
00FFFFC0
03FFFFE0
07FF7FF0
0FF007F8
0FC001FC
1F8000FC
1F80007E
3F00007E
3E00003E
7E00003F
7E00003F
7E00001F
7C00001F
7C00001F
FFFFFFFF
FFFFFFFF
FFFFFFFF
FFFFFFFF
7C000000
7C000000
7C000000
7E000000
7E000000
3E00003F
3F00003F
3F00007E
1F8000FE
1FC001FC
0FF003F8
07FE3FF8
03FFFFF0
01FFFFC0
007FFF80
001FFE00
ENDCHAR
STARTCHAR 1EC2
ENCODING 7874
SWIDTH 555 0
DWIDTH 37 0
BBX 32 72 5 0
BITMAP
000007F0
00000FFC
00001FFE
00003F7E
00003C1F
00007C1F
0000001F
0000001E
0000003E
0000007C
000000F8
000F81F0
001FC000
003FE000
007FF000
00FDF800
01F8FC00
03F07E00
07E03E00
0FC01F00
0F801F80
00000000
00000000
00000000
00000000
FFFFFFF8
FFFFFFF8
FFFFFFF8
FFFFFFF8
FFFFFFF8
FFFFFFF8
FC000000
FC000000
FC000000
FC000000
FC000000
FC000000
FC000000
FC000000
FC000000
FC000000
FC000000
FC000000
FC000000
FC000000
FC000000
FFFFFFC0
FFFFFFC0
FFFFFFC0
FFFFFFC0
FFFFFFC0
FC000000
FC000000
FC000000
FC000000
FC000000
FC000000
FC000000
FC000000
FC000000
FC000000
FC000000
FC000000
FC000000
FC000000
FC000000
FC000000
FFFFFFF8
FFFFFFF8
FFFFFFF8
FFFFFFF8
FFFFFFF8
ENDCHAR
STARTCHAR 1EC3
ENCODING 7875
SWIDTH 570 0
DWIDTH 38 0
BBX 34 61 3 0
BITMAP
0000002000
000001FF00
000003FF80
000007FFC0
00000F87C0
00000F83C0
00000003C0
00000003C0
00000007C0
0000000F80
0000001F00
0000003E00
0003F07C00
0007F80000
000FFC0000
001FFE0000
003F3F0000
007E1F8000
00FC0F8000
01F807C000
01F003E000
0200001000
0000000000
0000000000
0000000000
000FF80000
007FFF0000
00FFFFC000
03FFFFE000
07FF7FF000
0FF007F800
0FC001FC00
1F8000FC00
1F80007E00
3F00007E00
3E00003E00
7E00003F00
7E00003F00
7E00001F00
7C00001F00
7C00001F00
FFFFFFFF00
FFFFFFFF00
FFFFFFFF00
FFFFFFFF00
7C00000000
7C00000000
7C00000000
7E00000000
7E00000000
3E00003F00
3F00003F00
3F00007E00
1F8000FE00
1FC001FC00
0FF003F800
07FE3FF800
03FFFFF000
01FFFFC000
007FFF8000
001FFE0000
ENDCHAR
STARTCHAR 1EC4
ENCODING 7876
SWIDTH 555 0
DWIDTH 37 0
BBX 29 71 5 0
BITMAP
00700F00
01FC0F00
03FF0F00
03FF9F00
07CFFE00
0787FE00
0701FC00
07007000
00000000
00000000
000F8000
001FC000
003FE000
007FF000
00FDF800
01F8FC00
03F07E00
07E03E00
0FC01F00
0F801F80
00000000
00000000
00000000
00000000
FFFFFFF8
FFFFFFF8
FFFFFFF8
FFFFFFF8
FFFFFFF8
FFFFFFF8
FC000000
FC000000
FC000000
FC000000
FC000000
FC000000
FC000000
FC000000
FC000000
FC000000
FC000000
FC000000
FC000000
FC000000
FC000000
FFFFFFC0
FFFFFFC0
FFFFFFC0
FFFFFFC0
FFFFFFC0
FC000000
FC000000
FC000000
FC000000
FC000000
FC000000
FC000000
FC000000
FC000000
FC000000
FC000000
FC000000
FC000000
FC000000
FC000000
FC000000
FFFFFFF8
FFFFFFF8
FFFFFFF8
FFFFFFF8
FFFFFFF8
ENDCHAR
STARTCHAR 1EC5
ENCODING 7877
SWIDTH 570 0
DWIDTH 38 0
BBX 32 59 3 0
BITMAP
003F01C0
007F81C0
00FFE3C0
00FFFFC0
00F1FFC0
01E07F80
01E03F00
00000000
00000000
00000000
0003F000
0007F800
000FFC00
001FFE00
003F3F00
007E1F80
00FC0F80
01F807C0
01F003E0
02000010
00000000
00000000
00000000
000FF800
007FFF00
00FFFFC0
03FFFFE0
07FF7FF0
0FF007F8
0FC001FC
1F8000FC
1F80007E
3F00007E
3E00003E
7E00003F
7E00003F
7E00001F
7C00001F
7C00001F
FFFFFFFF
FFFFFFFF
FFFFFFFF
FFFFFFFF
7C000000
7C000000
7C000000
7E000000
7E000000
3E00003F
3F00003F
3F00007E
1F8000FE
1FC001FC
0FF003F8
07FE3FF8
03FFFFF0
01FFFFC0
007FFF80
001FFE00
ENDCHAR
STARTCHAR 1EC6
ENCODING 7878
SWIDTH 555 0
DWIDTH 37 0
BBX 29 76 5 -15
BITMAP
000F8000
001FC000
003FE000
007FF000
00FDF800
01F8FC00
03F07E00
07E03E00
0FC01F00
0F801F80
00000000
00000000
00000000
00000000
FFFFFFF8
FFFFFFF8
FFFFFFF8
FFFFFFF8
FFFFFFF8
FFFFFFF8
FC000000
FC000000
FC000000
FC000000
FC000000
FC000000
FC000000
FC000000
FC000000
FC000000
FC000000
FC000000
FC000000
FC000000
FC000000
FFFFFFC0
FFFFFFC0
FFFFFFC0
FFFFFFC0
FFFFFFC0
FC000000
FC000000
FC000000
FC000000
FC000000
FC000000
FC000000
FC000000
FC000000
FC000000
FC000000
FC000000
FC000000
FC000000
FC000000
FC000000
FFFFFFF8
FFFFFFF8
FFFFFFF8
FFFFFFF8
FFFFFFF8
00000000
00000000
00000000
00000000
00000000
00000000
00000000
00020000
000F8000
001FC000
001FC000
001FC000
001FC000
001F8000
00070000
ENDCHAR
STARTCHAR 1EC7
ENCODING 7879
SWIDTH 570 0
DWIDTH 38 0
BBX 32 64 3 -15
BITMAP
0003F000
0007F800
000FFC00
001FFE00
003F3F00
007E1F80
00FC0F80
01F807C0
01F003E0
02000010
00000000
00000000
00000000
000FF800
007FFF00
00FFFFC0
03FFFFE0
07FF7FF0
0FF007F8
0FC001FC
1F8000FC
1F80007E
3F00007E
3E00003E
7E00003F
7E00003F
7E00001F
7C00001F
7C00001F
FFFFFFFF
FFFFFFFF
FFFFFFFF
FFFFFFFF
7C000000
7C000000
7C000000
7E000000
7E000000
3E00003F
3F00003F
3F00007E
1F8000FE
1FC001FC
0FF003F8
07FE3FF8
03FFFFF0
01FFFFC0
007FFF80
001FFE00
00000000
00000000
00000000
00000000
00000000
00000000
00000000
00008000
0003F000
0003F000
0007F800
0007F800
0007F000
0003F000
0001E000
ENDCHAR
STARTCHAR 1EC8
ENCODING 7880
SWIDTH 240 0
DWIDTH 16 0
BBX 14 64 1 0
BITMAP
03C0
1FF0
7FF8
7FFC
F87C
F03C
003C
003C
007C
00F8
01F0
07C0
07C0
0000
0000
0000
0000
0FC0
0FC0
0FC0
0FC0
0FC0
0FC0
0FC0
0FC0
0FC0
0FC0
0FC0
0FC0
0FC0
0FC0
0FC0
0FC0
0FC0
0FC0
0FC0
0FC0
0FC0
0FC0
0FC0
0FC0
0FC0
0FC0
0FC0
0FC0
0FC0
0FC0
0FC0
0FC0
0FC0
0FC0
0FC0
0FC0
0FC0
0FC0
0FC0
0FC0
0FC0
0FC0
0FC0
0FC0
0FC0
0FC0
0FC0
ENDCHAR
STARTCHAR 1EC9
ENCODING 7881
SWIDTH 240 0
DWIDTH 16 0
BBX 14 52 1 0
BITMAP
0FE0
3FF8
7FFC
7C7C
F83C
003C
003C
003C
0078
00F8
03E0
07C0
0000
0000
0000
0000
0000
0FC0
0FC0
0FC0
0FC0
0FC0
0FC0
0FC0
0FC0
0FC0
0FC0
0FC0
0FC0
0FC0
0FC0
0FC0
0FC0
0FC0
0FC0
0FC0
0FC0
0FC0
0FC0
0FC0
0FC0
0FC0
0FC0
0FC0
0FC0
0FC0
0FC0
0FC0
0FC0
0FC0
0FC0
0FC0
ENDCHAR
STARTCHAR 1ECA
ENCODING 7882
SWIDTH 240 0
DWIDTH 16 0
BBX 8 62 4 -15
BITMAP
7E
7E
7E
7E
7E
7E
7E
7E
7E
7E
7E
7E
7E
7E
7E
7E
7E
7E
7E
7E
7E
7E
7E
7E
7E
7E
7E
7E
7E
7E
7E
7E
7E
7E
7E
7E
7E
7E
7E
7E
7E
7E
7E
7E
7E
7E
7E
00
00
00
00
00
00
00
08
3E
7F
7F
FF
7F
7E
1C
ENDCHAR
STARTCHAR 1ECB
ENCODING 7883
SWIDTH 240 0
DWIDTH 16 0
BBX 7 64 5 -15
BITMAP
78
FC
FE
FE
FE
FE
7C
00
00
00
00
00
00
00
FC
FC
FC
FC
FC
FC
FC
FC
FC
FC
FC
FC
FC
FC
FC
FC
FC
FC
FC
FC
FC
FC
FC
FC
FC
FC
FC
FC
FC
FC
FC
FC
FC
FC
FC
00
00
00
00
00
00
00
10
7C
FE
FE
FE
FE
FC
38
ENDCHAR
STARTCHAR 1ECC
ENCODING 7884
SWIDTH 735 0
DWIDTH 49 0
BBX 42 63 3 -15
BITMAP
00001F000000
0003FFF80000
000FFFFE0000
003FFFFF8000
007FFFFFC000
00FFFFFFE000
01FF001FF000
03FC0007F800
07F80003FC00
0FF00001FE00
0FE00000FE00
1FC000007F00
1F8000003F00
3F8000003F80
3F0000001F80
3F0000001F80
7F0000001FC0
7E0000000FC0
7E0000000FC0
7E0000000FC0
7E0000000FC0
7E0000000FC0
FE0000000FC0
FC0000000FC0
FC0000000FC0
FC0000000FC0
FE0000000FC0
7E0000000FC0
7E0000000FC0
7E0000000FC0
7E0000000FC0
7E0000000FC0
7F0000001FC0
3F0000001F80
3F0000003F80
3F8000003F80
1F8000007F00
1FC000007F00
0FE00000FE00
0FF00001FE00
07F80003FC00
03FE000FF800
01FF803FF000
00FFFFFFE000
007FFFFFC000
003FFFFF8000
000FFFFE0000
0001FFF00000
000000000000
000000000000
000000000000
000000000000
000000000000
000000000000
000000000000
000004000000
00001F000000
00003F800000
00003F800000
00003F800000
00003F800000
00001F800000
00000E000000
ENDCHAR
STARTCHAR 1ECD
ENCODING 7885
SWIDTH 585 0
DWIDTH 39 0
BBX 33 51 3 -15
BITMAP
000FF80000
003FFF0000
00FFFFC000
01FFFFE000
07FFFFF000
07F807F800
0FE001FC00
1FC000FE00
1F80007E00
3F00007F00
3F00003F00
7E00003F00
7E00001F80
7E00001F80
7C00001F80
7C00001F80
FC00001F80
FC00000F80
FC00000F80
FC00001F80
7C00001F80
7C00001F80
7E00001F80
7E00001F80
7E00003F00
3F00003F00
3F00007F00
3F80007E00
1FC000FE00
0FE001FC00
0FF007F800
07FFFFF800
03FFFFF000
01FFFFC000
007FFF8000
001FFE0000
0000000000
0000000000
0000000000
0000000000
0000000000
0000000000
0000000000
0000800000
0003F00000
0003F00000
0007F80000
0007F80000
0007F00000
0003F00000
0001E00000
ENDCHAR
STARTCHAR 1ECE
ENCODING 7886
SWIDTH 735 0
DWIDTH 49 0
BBX 42 64 3 0
BITMAP
00000E000000
00007FC00000
0000FFE00000
0001FFF00000
0001F0F00000
0003E0F80000
000000F80000
000000F00000
000000F00000
000003E00000
000007C00000
00000F800000
00001F000000
000000000000
000000000000
000000000000
00001F000000
0003FFF80000
000FFFFE0000
003FFFFF8000
007FFFFFC000
00FFFFFFE000
01FF001FF000
03FC0007F800
07F80003FC00
0FF00001FE00
0FE00000FE00
1FC000007F00
1F8000003F00
3F8000003F80
3F0000001F80
3F0000001F80
7F0000001FC0
7E0000000FC0
7E0000000FC0
7E0000000FC0
7E0000000FC0
7E0000000FC0
FE0000000FC0
FC0000000FC0
FC0000000FC0
FC0000000FC0
FE0000000FC0
7E0000000FC0
7E0000000FC0
7E0000000FC0
7E0000000FC0
7E0000000FC0
7F0000001FC0
3F0000001F80
3F0000003F80
3F8000003F80
1F8000007F00
1FC000007F00
0FE00000FE00
0FF00001FE00
07F80003FC00
03FE000FF800
01FF803FF000
00FFFFFFE000
007FFFFFC000
003FFFFF8000
000FFFFE0000
0001FFF00000
ENDCHAR
STARTCHAR 1ECF
ENCODING 7887
SWIDTH 585 0
DWIDTH 39 0
BBX 33 52 3 0
BITMAP
0007F80000
000FFC0000
001FFE0000
003F3F0000
003C1F0000
00000F0000
00000F0000
00001F0000
00003E0000
00007C0000
0000F80000
0001F00000
0000000000
0000000000
0000000000
0000000000
000FF80000
003FFF0000
00FFFFC000
01FFFFE000
07FFFFF000
07F807F800
0FE001FC00
1FC000FE00
1F80007E00
3F00007F00
3F00003F00
7E00003F00
7E00001F80
7E00001F80
7C00001F80
7C00001F80
FC00001F80
FC00000F80
FC00000F80
FC00001F80
7C00001F80
7C00001F80
7E00001F80
7E00001F80
7E00003F00
3F00003F00
3F00007F00
3F80007E00
1FC000FE00
0FE001FC00
0FF007F800
07FFFFF800
03FFFFF000
01FFFFC000
007FFF8000
001FFE0000
ENDCHAR
STARTCHAR 1ED0
ENCODING 7888
SWIDTH 735 0
DWIDTH 49 0
BBX 42 71 3 0
BITMAP
000000000FC0
000000001F80
000000001F00
000000003F00
000000007E00
000000007C00
00000000FC00
00000000F800
00000001F000
00000001F000
00001F03E000
00003F83C000
00007FC00000
0000FFE00000
0001FBF00000
0003F1F80000
0007E0FC0000
000FC07E0000
000F803F0000
001F001F0000
000000000000
000000000000
000000000000
00001F000000
0003FFF80000
000FFFFE0000
003FFFFF8000
007FFFFFC000
00FFFFFFE000
01FF001FF000
03FC0007F800
07F80003FC00
0FF00001FE00
0FE00000FE00
1FC000007F00
1F8000003F00
3F8000003F80
3F0000001F80
3F0000001F80
7F0000001FC0
7E0000000FC0
7E0000000FC0
7E0000000FC0
7E0000000FC0
7E0000000FC0
FE0000000FC0
FC0000000FC0
FC0000000FC0
FC0000000FC0
FE0000000FC0
7E0000000FC0
7E0000000FC0
7E0000000FC0
7E0000000FC0
7E0000000FC0
7F0000001FC0
3F0000001F80
3F0000003F80
3F8000003F80
1F8000007F00
1FC000007F00
0FE00000FE00
0FF00001FE00
07F80003FC00
03FE000FF800
01FF803FF000
00FFFFFFE000
007FFFFFC000
003FFFFF8000
000FFFFE0000
0001FFF00000
ENDCHAR
STARTCHAR 1ED1
ENCODING 7889
SWIDTH 585 0
DWIDTH 39 0
BBX 37 60 3 0
BITMAP
00000001F8
00000001F8
00000003F0
00000003E0
00000007E0
00000007C0
0000000F80
0000001F80
0000001F00
0000003E00
0000003E00
0003F07C00
0007F80000
000FFC0000
001FFE0000
003F3F0000
007E1F8000
00FC0F8000
01F807C000
01F003E000
0200001000
0000000000
0000000000
0000000000
000FF80000
003FFF0000
00FFFFC000
01FFFFE000
07FFFFF000
07F807F800
0FE001FC00
1FC000FE00
1F80007E00
3F00007F00
3F00003F00
7E00003F00
7E00001F80
7E00001F80
7C00001F80
7C00001F80
FC00001F80
FC00000F80
FC00000F80
FC00001F80
7C00001F80
7C00001F80
7E00001F80
7E00001F80
7E00003F00
3F00003F00
3F00007F00
3F80007E00
1FC000FE00
0FE001FC00
0FF007F800
07FFFFF800
03FFFFF000
01FFFFC000
007FFF8000
001FFE0000
ENDCHAR
ENDFONT
